<svg width="56" height="56" viewBox="0 0 56 56" fill="none" xmlns="http://www.w3.org/2000/svg">
<g clip-path="url(#clip0_2035_673)">
<path d="M30.2968 45.0626H13.125C7.08431 45.0626 2.1875 40.1658 2.1875 34.1252V13.1252C2.1875 7.08456 7.08431 2.18775 13.125 2.18775H42.8749C48.9155 2.18775 53.8124 7.08456 53.8124 13.1252V17.0627" stroke="#F36249" stroke-width="4" stroke-miterlimit="10" stroke-linecap="round" stroke-linejoin="round"/>
<path d="M13.125 22.9689H28.875" stroke="#F36249" stroke-width="4" stroke-miterlimit="10" stroke-linecap="round" stroke-linejoin="round"/>
<path d="M13.125 31.7189H23.0781" stroke="#F36249" stroke-width="4" stroke-miterlimit="10" stroke-linecap="round" stroke-linejoin="round"/>
<path d="M45.6582 23.7655L46.1436 24.4963C46.3666 24.832 46.6846 25.0937 47.0569 25.2479C47.4292 25.4021 47.839 25.4419 48.2341 25.3623L49.0941 25.1887C50.5156 24.9019 51.7701 26.1563 51.4833 27.5779L51.3098 28.438C51.2301 28.833 51.27 29.2428 51.4242 29.6152C51.5784 29.9875 51.8401 30.3054 52.1757 30.5284L52.9066 31.0139C54.1145 31.8161 54.1145 33.5903 52.9066 34.3927L52.1757 34.8782C51.84 35.1011 51.5784 35.4191 51.4241 35.7914C51.2699 36.1637 51.2301 36.5735 51.3098 36.9686L51.4833 37.8286C51.7701 39.2501 50.5156 40.5045 49.0941 40.2178L48.2341 40.0443C47.839 39.9646 47.4292 40.0044 47.0569 40.1586C46.6845 40.3129 46.3666 40.5745 46.1436 40.9102L45.6582 41.641C44.8558 42.849 43.0818 42.849 42.2793 41.641L41.7939 40.9102C41.5709 40.5745 41.253 40.3128 40.8806 40.1586C40.5083 40.0044 40.0985 39.9646 39.7034 40.0443L38.8434 40.2178C37.4219 40.5045 36.1674 39.2501 36.4542 37.8286L36.6278 36.9686C36.7075 36.5735 36.6677 36.1637 36.5134 35.7914C36.3592 35.4191 36.0976 35.1012 35.7619 34.8782L35.031 34.3927C33.823 33.5903 33.823 31.8161 35.031 31.0139L35.7619 30.5284C36.0975 30.3054 36.3592 29.9874 36.5134 29.6151C36.6676 29.2428 36.7075 28.833 36.6278 28.438L36.4542 27.5779C36.1674 26.1563 37.4219 24.9019 38.8434 25.1887L39.7034 25.3623C40.0985 25.4419 40.5083 25.4021 40.8806 25.2479C41.2529 25.0937 41.5709 24.832 41.7939 24.4963L42.2793 23.7655C43.0818 22.5576 44.8558 22.5576 45.6582 23.7655Z" stroke="#F36249" stroke-width="4" stroke-miterlimit="10" stroke-linecap="round" stroke-linejoin="round"/>
<path d="M13.125 14.219H42.8749" stroke="#F36249" stroke-width="4" stroke-miterlimit="10" stroke-linecap="round" stroke-linejoin="round"/>
<path d="M49.3281 48.1251V52.2598C49.3281 53.6175 47.7062 54.3189 46.7169 53.389L43.8594 50.7501L41.0018 53.389C40.0125 54.3189 38.3906 53.6175 38.3906 52.2598V48.1251" stroke="#F36249" stroke-width="4" stroke-miterlimit="10" stroke-linecap="round" stroke-linejoin="round"/>
</g>
<defs>
<clipPath id="clip0_2035_673">
<rect width="56" height="56" fill="white"/>
</clipPath>
</defs>
</svg>
