<svg width="149" height="149" viewBox="0 0 149 149" fill="none" xmlns="http://www.w3.org/2000/svg">
<circle cx="74.5" cy="74.5" r="68.5" fill="#F36249"/>
<circle cx="74.5" cy="74.5" r="43.5" fill="white"/>
<path d="M80.5084 24.4363L81.2288 18.6417C81.25 18.4711 81.2718 18.2963 81.294 18.1173C81.3259 17.9307 81.3588 17.7356 81.3928 17.532C81.0679 17.7774 80.7051 17.9791 80.3044 18.1371C79.9133 18.2876 79.5163 18.3812 79.1135 18.4177L79.0055 17.1963C79.1878 17.1929 79.4041 17.1592 79.6546 17.0951C79.905 17.031 80.1672 16.9423 80.441 16.8292C80.7149 16.716 80.9685 16.5917 81.2018 16.4561C81.4362 16.3121 81.6232 16.1665 81.7627 16.0193L82.9139 16.1624L81.8643 24.6048L80.5084 24.4363ZM86.9857 25.8609C86.2541 25.6696 85.6926 25.3541 85.3013 24.9143C84.9183 24.4767 84.6678 23.9227 84.5499 23.2524L85.9665 22.9299C85.9869 23.3615 86.0882 23.7388 86.2702 24.0618C86.4628 24.3786 86.8084 24.6022 87.3073 24.7325C87.6565 24.8238 87.9679 24.8386 88.2416 24.7769C88.5258 24.7091 88.7648 24.5762 88.9587 24.3782C89.1548 24.1718 89.2963 23.9024 89.3832 23.5698C89.4745 23.2206 89.4882 22.9133 89.4243 22.6479C89.3604 22.3826 89.2273 22.1612 89.025 21.984C88.8248 21.7984 88.5501 21.66 88.2009 21.5687C87.9598 21.5057 87.7288 21.472 87.5079 21.4675C87.287 21.4631 87.0793 21.4932 86.8848 21.5578C86.6924 21.6141 86.5121 21.7091 86.344 21.8428L85.3019 21.3439L86.9873 16.9349L91.7762 18.1866L91.4763 19.3339L87.7475 18.3593L86.8418 20.6006L86.781 20.7313L86.806 20.7378C87.0515 20.58 87.3392 20.4819 87.6689 20.4438C88.007 20.4078 88.3838 20.4441 88.7995 20.5528C89.3316 20.6919 89.7596 20.9236 90.0833 21.2481C90.4093 21.5642 90.6292 21.9459 90.7433 22.3932C90.8573 22.8404 90.8469 23.3218 90.7122 23.8373C90.5948 24.2862 90.4157 24.6657 90.1748 24.9758C89.9339 25.2859 89.6447 25.5256 89.3073 25.695C88.9699 25.8644 88.602 25.9636 88.2036 25.9927C87.8157 26.0157 87.4097 25.9717 86.9857 25.8609ZM98.1476 21.8532L95.5235 27.8244L94.4261 27.3421L97.0501 21.3709L98.1476 21.8532ZM99.4173 25.3398L98.9557 26.39L93.1498 23.8386L93.6113 22.7883L99.4173 25.3398ZM113.212 29.9511L107.623 32.3043L105.658 34.9067L104.557 34.0755L106.523 31.4731L107.267 25.4611L108.491 26.3855L108.05 29.4931L107.824 30.9051L109.12 30.301L111.978 29.019L113.212 29.9511ZM110.273 39.265C109.821 38.8058 109.518 38.3083 109.364 37.7724C109.21 37.2365 109.214 36.6957 109.376 36.15C109.551 35.6045 109.886 35.0874 110.382 34.599C110.878 34.1106 111.397 33.7864 111.939 33.6264C112.493 33.4665 113.034 33.4645 113.561 33.6205C114.089 33.7764 114.566 34.0717 114.994 34.5063C115.435 34.9533 115.717 35.4233 115.841 35.9164C115.964 36.4096 115.949 36.8956 115.793 37.3745C115.638 37.8533 115.358 38.2918 114.954 38.6898C114.843 38.7983 114.736 38.8978 114.632 38.9881C114.528 39.0785 114.434 39.1537 114.348 39.2138L110.712 35.5221L111.465 34.7804L114.676 38.0405L114.05 37.6985C114.466 37.2884 114.682 36.8708 114.697 36.4456C114.719 36.0143 114.552 35.618 114.196 35.2568C113.937 34.9936 113.649 34.8243 113.334 34.749C113.018 34.6737 112.687 34.7046 112.34 34.8417C111.998 34.9728 111.653 35.2102 111.304 35.5539C110.961 35.8916 110.725 36.2332 110.595 36.5785C110.464 36.9239 110.437 37.2579 110.514 37.5806C110.591 37.9032 110.765 38.2023 111.036 38.4778C111.337 38.7839 111.64 38.9746 111.943 39.0498C112.246 39.125 112.556 39.1152 112.873 39.0204L113.274 40.1628C112.946 40.2696 112.605 40.3096 112.253 40.2826C111.913 40.2557 111.573 40.1559 111.234 39.9832C110.895 39.8105 110.575 39.5711 110.273 39.265ZM119.278 43.448C119.627 43.1971 119.825 42.9063 119.873 42.5755C119.933 42.2467 119.843 41.9148 119.602 41.5799C119.376 41.2659 119.11 41.05 118.802 40.9321C118.495 40.8142 118.14 40.8208 117.737 40.952L117.458 39.7241C117.978 39.5507 118.506 39.563 119.04 39.7611C119.579 39.9662 120.069 40.3757 120.511 40.9896C120.812 41.4082 121.008 41.8282 121.099 42.2495C121.197 42.6657 121.176 43.0624 121.034 43.4394C120.897 43.8235 120.616 44.1685 120.191 44.4745L117.857 46.1527C117.599 46.3383 117.563 46.5602 117.748 46.8183C117.839 46.9439 117.944 47.0535 118.064 47.147L117.244 47.6411C117.052 47.5358 116.868 47.3611 116.693 47.1169C116.532 46.8936 116.425 46.6637 116.371 46.4271C116.33 46.1925 116.352 45.9652 116.437 45.7451C116.534 45.527 116.705 45.3302 116.949 45.1546L117.022 45.1019L117.198 45.3246C116.881 45.4575 116.561 45.4915 116.239 45.4266C115.925 45.3566 115.629 45.2252 115.353 45.0323C115.083 44.8344 114.853 44.6028 114.663 44.3377C114.427 44.0098 114.266 43.6757 114.18 43.3353C114.099 43.0019 114.108 42.6832 114.207 42.3792C114.318 42.0772 114.53 41.8133 114.844 41.5875C115.235 41.3065 115.646 41.2014 116.078 41.2719C116.515 41.3494 116.947 41.5893 117.373 41.9915L119.231 43.7358L118.439 44.2898L117.074 43.0324C116.807 42.7795 116.569 42.6174 116.359 42.5462C116.149 42.4749 115.943 42.512 115.741 42.6575C115.545 42.798 115.441 42.9841 115.428 43.2159C115.426 43.4497 115.516 43.6922 115.697 43.9433C115.822 44.1178 115.964 44.2701 116.121 44.4005C116.283 44.5379 116.457 44.6402 116.643 44.7075C116.836 44.7699 117.031 44.7832 117.228 44.7476C117.436 44.714 117.645 44.6219 117.855 44.4714L119.278 43.448ZM118.139 49.1879L123.813 46.1303L124.369 47.1629L123.409 47.8268C123.862 47.7783 124.262 47.8506 124.61 48.0437C124.97 48.2403 125.268 48.558 125.504 48.9967C125.565 49.1102 125.615 49.2298 125.654 49.3555C125.7 49.4771 125.724 49.5859 125.727 49.682L124.569 50.0866C124.554 49.9871 124.526 49.8803 124.484 49.7662C124.454 49.6556 124.392 49.5134 124.298 49.3394C124.171 49.1049 123.983 48.9088 123.732 48.7512C123.489 48.5895 123.201 48.5002 122.87 48.4835C122.543 48.4743 122.187 48.5736 121.801 48.7815L118.794 50.4021L118.139 49.1879ZM121.381 56.4135C121.149 55.8119 121.055 55.2178 121.096 54.6311C121.137 54.0443 121.315 53.5249 121.629 53.0727L122.742 53.6671C122.481 53.9699 122.313 54.3244 122.239 54.7303C122.176 55.1412 122.234 55.5792 122.413 56.0445C122.554 56.4134 122.731 56.6815 122.943 56.8488C123.154 57.016 123.376 57.0549 123.609 56.9655C123.761 56.9069 123.874 56.8039 123.946 56.6565C124.029 56.514 124.049 56.29 124.005 55.9846L123.784 54.6195C123.666 53.9285 123.695 53.3927 123.871 53.012C124.055 52.6283 124.367 52.3517 124.808 52.1821C125.137 52.0557 125.479 52.0348 125.834 52.1194C126.189 52.2039 126.521 52.3983 126.831 52.7026C127.153 53.0117 127.414 53.427 127.614 53.9484C127.845 54.55 127.934 55.1049 127.881 55.6133C127.836 56.1186 127.66 56.5591 127.353 56.9347L126.265 56.3311C126.527 56.0554 126.678 55.7399 126.716 55.3845C126.762 55.026 126.724 54.6864 126.601 54.3656C126.502 54.1089 126.385 53.9006 126.25 53.7408C126.115 53.581 125.973 53.4745 125.823 53.4215C125.674 53.3684 125.523 53.3711 125.371 53.4297C125.21 53.4914 125.093 53.6055 125.019 53.7721C124.945 53.9386 124.936 54.1906 124.992 54.5281L125.231 56.0107C125.34 56.6314 125.304 57.1105 125.12 57.4479C124.948 57.7903 124.669 58.0355 124.284 58.1835C123.899 58.3315 123.52 58.3623 123.146 58.2759C122.78 58.1863 122.445 57.9839 122.139 57.6686C121.834 57.3533 121.581 56.9349 121.381 56.4135ZM130.951 67.2623C131.029 67.8847 130.966 68.4512 130.761 68.9618C130.557 69.4724 130.22 69.8914 129.75 70.2187C129.289 70.5535 128.714 70.7642 128.023 70.8507C127.332 70.9371 126.718 70.8755 126.181 70.6656C125.654 70.4632 125.228 70.1398 124.904 69.6954C124.579 69.251 124.378 68.7176 124.3 68.0951C124.222 67.4727 124.286 66.9062 124.49 66.3956C124.695 65.885 125.027 65.4623 125.488 65.1275C125.957 64.7916 126.536 64.5805 127.227 64.494C127.918 64.4075 128.527 64.4697 129.056 64.6806C129.593 64.8905 130.024 65.2176 130.348 65.662C130.672 66.1064 130.873 66.6398 130.951 67.2623ZM129.877 67.3968C129.829 67.0131 129.698 66.696 129.485 66.4456C129.281 66.2026 129.004 66.0295 128.653 65.9262C128.303 65.8229 127.884 65.8016 127.398 65.8625C126.921 65.9223 126.521 66.046 126.198 66.2337C125.883 66.4203 125.653 66.657 125.507 66.9437C125.371 67.2379 125.327 67.5769 125.375 67.9606C125.423 68.3443 125.549 68.6576 125.752 68.9006C125.964 69.1425 126.246 69.3151 126.597 69.4184C126.956 69.5207 127.374 69.5419 127.852 69.4821C128.338 69.4212 128.738 69.2975 129.052 69.1109C129.367 68.9243 129.593 68.6882 129.73 68.4025C129.876 68.1157 129.925 67.7805 129.877 67.3968ZM134.36 76.0498C134.359 76.3162 134.327 76.5566 134.266 76.7712C134.213 76.9943 134.139 77.1615 134.044 77.2727L133.053 77.0098C133.114 76.9156 133.157 76.8084 133.184 76.6882C133.219 76.5681 133.236 76.4307 133.237 76.276C133.239 75.9237 133.159 75.644 132.997 75.4369C132.834 75.2384 132.569 75.1382 132.199 75.1363L131.258 75.1315L130.91 75.1683L124.929 75.1374L124.936 73.7582L132.309 73.7963C132.636 73.798 132.928 73.8468 133.185 73.9426C133.442 74.0471 133.656 74.1986 133.827 74.3971C134.006 74.5957 134.138 74.8327 134.223 75.1081C134.316 75.3922 134.362 75.7061 134.36 76.0498ZM131.363 77.2202L130.281 77.2146L130.305 72.5743L131.387 72.5799L131.363 77.2202ZM124.169 83.0997L132.45 85.0497L131.038 91.0471L129.884 90.7753L130.98 86.1204L128.596 85.559L127.739 89.1976L126.61 88.9317L127.467 85.2931L125.007 84.714L123.87 89.5446L122.716 89.2728L124.169 83.0997ZM127.663 94.5857L124.42 95.2155L124.286 95.4391L119.917 96.4691L120.54 94.9555L123.884 94.2836L124.092 94.0488L128.297 93.0482L127.663 94.5857ZM125.891 98.8882L123.659 95.2364L123.779 94.9791L121.788 91.9282L122.386 90.4742L124.737 94.4121L124.611 94.6525L126.495 97.4223L125.891 98.8882ZM116.783 96.616L124.592 101.389L123.954 102.434L122.36 101.58L122.641 101.541C122.873 101.804 123.043 102.094 123.151 102.412C123.259 102.729 123.293 103.062 123.251 103.409C123.206 103.764 123.082 104.107 122.88 104.437C122.607 104.884 122.245 105.221 121.793 105.449C121.342 105.677 120.839 105.767 120.283 105.72C119.736 105.677 119.161 105.472 118.56 105.104C117.959 104.737 117.509 104.311 117.211 103.826C116.915 103.354 116.768 102.861 116.77 102.348C116.766 101.843 116.904 101.363 117.181 100.908C117.468 100.439 117.833 100.113 118.277 99.931C118.728 99.7535 119.187 99.7115 119.653 99.8052L119.76 100.051L116.064 97.7929L116.783 96.616ZM118.293 101.24C118.002 101.716 117.944 102.19 118.12 102.66C118.291 103.137 118.674 103.558 119.268 103.921C119.862 104.284 120.408 104.436 120.907 104.378C121.413 104.325 121.809 104.064 122.096 103.594C122.284 103.286 122.369 102.966 122.351 102.633C122.336 102.311 122.226 101.997 122.021 101.69C121.818 101.395 121.519 101.127 121.123 100.885C120.735 100.648 120.359 100.504 119.997 100.454C119.635 100.403 119.308 100.445 119.015 100.578C118.722 100.711 118.481 100.932 118.293 101.24ZM112.599 107.211C113.019 106.722 113.489 106.378 114.01 106.18C114.532 105.982 115.071 105.941 115.628 106.057C116.186 106.185 116.73 106.475 117.258 106.928C117.786 107.382 118.153 107.872 118.357 108.399C118.563 108.937 118.61 109.476 118.499 110.015C118.388 110.553 118.134 111.054 117.736 111.517C117.328 111.993 116.883 112.314 116.402 112.479C115.921 112.643 115.435 112.668 114.945 112.553C114.455 112.438 113.995 112.196 113.564 111.827C113.447 111.726 113.339 111.628 113.24 111.532C113.141 111.436 113.058 111.347 112.991 111.267L116.366 107.335L117.168 108.023L114.188 111.496L114.476 110.843C114.92 111.224 115.354 111.404 115.779 111.383C116.211 111.369 116.591 111.169 116.922 110.784C117.162 110.504 117.307 110.203 117.355 109.883C117.404 109.562 117.346 109.234 117.18 108.9C117.021 108.571 116.755 108.247 116.383 107.928C116.018 107.614 115.658 107.407 115.303 107.306C114.948 107.205 114.613 107.207 114.298 107.31C113.983 107.413 113.699 107.612 113.447 107.905C113.168 108.231 113.003 108.548 112.953 108.857C112.904 109.165 112.94 109.473 113.061 109.781L111.956 110.277C111.822 109.958 111.753 109.622 111.751 109.269C111.749 108.927 111.82 108.581 111.964 108.229C112.108 107.876 112.319 107.537 112.599 107.211ZM109.34 110.983L113.615 115.807L112.737 116.585L111.871 115.802C112.022 116.231 112.043 116.637 111.935 117.02C111.826 117.415 111.585 117.778 111.212 118.109C111.115 118.194 111.01 118.27 110.896 118.336C110.789 118.409 110.688 118.458 110.595 118.483L109.937 117.448C110.03 117.411 110.128 117.359 110.229 117.292C110.33 117.237 110.454 117.144 110.602 117.013C110.801 116.836 110.949 116.608 111.045 116.327C111.147 116.053 111.168 115.753 111.108 115.427C111.043 115.107 110.864 114.782 110.574 114.454L108.308 111.898L109.34 110.983ZM108.906 121.174C109.149 120.996 109.379 120.917 109.597 120.938C109.813 120.97 110.003 121.097 110.166 121.319C110.329 121.54 110.392 121.755 110.354 121.965C110.309 122.179 110.166 122.376 109.924 122.554C109.689 122.728 109.466 122.801 109.254 122.776C109.036 122.755 108.846 122.634 108.682 122.413C108.519 122.191 108.457 121.97 108.497 121.749C108.535 121.539 108.671 121.348 108.906 121.174ZM107.714 120.708L103.889 115.522L104.999 114.703L108.824 119.89L107.714 120.708ZM99.2392 118.206C99.8002 117.889 100.36 117.726 100.917 117.717C101.475 117.707 101.996 117.852 102.48 118.151C102.962 118.461 103.374 118.919 103.716 119.525C104.059 120.131 104.237 120.716 104.25 121.281C104.26 121.858 104.121 122.381 103.834 122.849C103.546 123.318 103.136 123.703 102.605 124.003C102.059 124.312 101.532 124.462 101.023 124.453C100.515 124.444 100.05 124.302 99.628 124.028C99.2061 123.753 98.8556 123.368 98.5765 122.875C98.5004 122.74 98.4322 122.611 98.372 122.487C98.3118 122.363 98.2639 122.252 98.2281 122.154L102.739 119.604L103.259 120.524L99.2756 122.776L99.7689 122.26C100.056 122.769 100.404 123.086 100.81 123.211C101.221 123.344 101.647 123.286 102.088 123.036C102.41 122.855 102.648 122.621 102.803 122.336C102.958 122.051 103.014 121.723 102.972 121.352C102.935 120.989 102.795 120.594 102.554 120.167C102.317 119.748 102.049 119.431 101.749 119.215C101.45 119 101.134 118.887 100.803 118.877C100.471 118.867 100.137 118.957 99.8008 119.147C99.4268 119.359 99.164 119.601 99.0124 119.874C98.8609 120.147 98.7897 120.449 98.7988 120.78L97.5913 120.87C97.5737 120.525 97.6238 120.185 97.7415 119.852C97.8559 119.531 98.0407 119.229 98.2957 118.947C98.5506 118.664 98.8651 118.417 99.2392 118.206ZM94.8823 120.621L97.1167 126.666L95.9681 127.091L95.3025 125.55L95.5344 125.657C95.5496 126.045 95.4942 126.391 95.368 126.694C95.2368 127.008 95.0455 127.271 94.794 127.483C94.5345 127.698 94.2395 127.867 93.909 127.989C93.4818 128.147 93.0677 128.204 92.6666 128.16C92.2604 128.127 91.8955 127.982 91.5718 127.726C91.2482 127.47 90.9925 127.088 90.8048 126.58L89.3569 122.663L90.6506 122.185L91.951 125.703C92.1715 126.3 92.4484 126.665 92.7817 126.798C93.1099 126.942 93.4594 126.946 93.8301 126.809C94.0961 126.711 94.3302 126.551 94.5324 126.329C94.7376 126.116 94.8742 125.841 94.9422 125.505C95.0021 125.171 94.9471 124.774 94.7773 124.315L93.5886 121.099L94.8823 120.621ZM85.5408 130.343C85.035 130.443 84.5901 130.452 84.206 130.371C83.8152 130.299 83.4709 130.152 83.1731 129.931C82.8753 129.709 82.629 129.438 82.4343 129.118L83.6115 128.359C83.7978 128.726 84.0331 128.986 84.3176 129.14C84.5952 129.304 84.928 129.348 85.3158 129.271C85.6952 129.196 86.0022 129.043 86.237 128.813C86.4735 128.591 86.6309 128.302 86.7092 127.944C86.7791 127.589 86.7666 127.171 86.6717 126.69C86.5784 126.218 86.4276 125.832 86.2193 125.532C86.011 125.231 85.7554 125.023 85.4523 124.908C85.1492 124.793 84.8122 124.772 84.4412 124.845C84.1546 124.902 83.9151 124.997 83.7226 125.132C83.5319 125.274 83.3865 125.448 83.2866 125.651C83.18 125.865 83.1272 126.108 83.1282 126.379L81.8191 126.204C81.8622 125.801 81.9819 125.432 82.1782 125.095C82.3677 124.769 82.6321 124.489 82.9713 124.255C83.3123 124.03 83.723 123.87 84.2036 123.775C84.8274 123.652 85.4054 123.673 85.9376 123.84C86.4697 124.006 86.919 124.307 87.2854 124.743C87.645 125.189 87.8923 125.753 88.0272 126.436C88.1622 127.119 88.1473 127.73 87.9826 128.271C87.8111 128.822 87.5151 129.274 87.0946 129.629C86.6657 129.985 86.1478 130.223 85.5408 130.343ZM76.6684 124.66C77.3123 124.633 77.8846 124.742 78.3853 124.987C78.886 125.233 79.2843 125.599 79.5802 126.085C79.8679 126.58 80.0265 127.175 80.056 127.871C80.0856 128.566 79.9779 129.169 79.7329 129.678C79.4797 130.196 79.1184 130.599 78.6489 130.885C78.1794 131.172 77.6399 131.328 77.0303 131.354C76.4036 131.381 75.8658 131.274 75.417 131.035C74.9681 130.796 74.6183 130.459 74.3676 130.022C74.1168 129.585 73.9793 129.084 73.9552 128.517C73.9487 128.363 73.9468 128.217 73.9495 128.079C73.9523 127.941 73.96 127.82 73.9728 127.717L79.1499 127.496L79.1948 128.553L74.623 128.747L75.2968 128.512C75.3216 129.096 75.4865 129.536 75.7916 129.833C76.097 130.138 76.503 130.28 77.0095 130.258C77.3787 130.242 77.697 130.143 77.9645 129.959C78.2319 129.776 78.4313 129.51 78.5627 129.16C78.6944 128.819 78.7498 128.404 78.729 127.914C78.7086 127.434 78.614 127.029 78.4452 126.701C78.2764 126.372 78.0467 126.129 77.7561 125.969C77.4655 125.809 77.127 125.738 76.7407 125.754C76.3114 125.772 75.9671 125.869 75.7079 126.043C75.4487 126.217 75.248 126.454 75.1059 126.752L73.9893 126.284C74.1307 125.968 74.3296 125.689 74.5859 125.446C74.8339 125.211 75.1357 125.027 75.4912 124.891C75.8467 124.756 76.2391 124.679 76.6684 124.66ZM69.2673 124.459C69.9083 124.526 70.4806 124.712 70.9843 125.016C71.488 125.319 71.8698 125.714 72.1297 126.199L71.0946 126.92C70.9435 126.549 70.7041 126.239 70.3762 125.988C70.0389 125.745 69.6224 125.598 69.1268 125.546C68.7337 125.504 68.4145 125.54 68.1694 125.652C67.9242 125.764 67.7886 125.944 67.7624 126.192C67.7453 126.355 67.786 126.502 67.8845 126.633C67.9735 126.772 68.164 126.891 68.4559 126.991L69.7721 127.415C70.4414 127.624 70.9055 127.893 71.1645 128.223C71.4227 128.561 71.5269 128.966 71.4774 129.436C71.4404 129.786 71.3036 130.1 71.067 130.377C70.8303 130.655 70.506 130.863 70.094 131.001C69.6725 131.146 69.184 131.19 68.6285 131.131C67.9876 131.064 67.4528 130.891 67.0242 130.612C66.5947 130.342 66.2824 129.985 66.0872 129.541L67.1196 128.846C67.246 129.205 67.4587 129.483 67.7577 129.678C68.0559 129.883 68.3759 130.003 68.7178 130.039C68.9912 130.068 69.2299 130.058 69.4336 130.011C69.6374 129.963 69.7969 129.885 69.912 129.776C70.0272 129.667 70.0933 129.532 70.1105 129.369C70.1285 129.198 70.0802 129.042 69.9655 128.9C69.8508 128.759 69.6304 128.636 69.3043 128.532L67.8754 128.071C67.2727 127.886 66.8628 127.636 66.6456 127.319C66.419 127.01 66.3273 126.65 66.3705 126.24C66.4138 125.83 66.5589 125.478 66.8059 125.184C67.052 124.899 67.3849 124.692 67.8046 124.564C68.2242 124.435 68.7118 124.4 69.2673 124.459ZM57.6504 124.823C58.1306 124.985 58.4758 125.266 58.6858 125.663C58.8851 126.066 58.9061 126.5 58.749 126.964C58.5892 127.436 58.3105 127.764 57.9129 127.947C57.5044 128.135 57.06 128.148 56.5798 127.985C56.0914 127.82 55.7462 127.54 55.5443 127.145C55.3396 126.758 55.3171 126.328 55.477 125.856C55.634 125.392 55.9141 125.061 56.3172 124.861C56.7176 124.67 57.162 124.658 57.6504 124.823ZM49.2802 118.158L46.3421 123.204C46.2556 123.353 46.167 123.505 46.0762 123.661C45.9736 123.82 45.8668 123.987 45.7556 124.161C46.1508 124.062 46.5636 124.019 46.9941 124.031C47.4129 124.047 47.8147 124.116 48.1996 124.241L47.8192 125.407C47.6503 125.338 47.4381 125.284 47.1826 125.245C46.9271 125.206 46.6512 125.184 46.3549 125.181C46.0586 125.177 45.7765 125.192 45.5087 125.225C45.2366 125.265 45.0074 125.326 44.8213 125.406L43.8188 124.823L48.0994 117.471L49.2802 118.158ZM43.885 114.303C44.4824 114.766 44.8745 115.277 45.0612 115.835C45.2412 116.388 45.2535 116.996 45.0982 117.659L43.6689 117.398C43.82 116.993 43.8753 116.607 43.835 116.238C43.7826 115.871 43.5528 115.53 43.1454 115.213C42.8603 114.992 42.5798 114.856 42.3039 114.805C42.0159 114.756 41.7439 114.784 41.4878 114.89C41.2263 115.002 40.9903 115.194 40.7795 115.466C40.5582 115.751 40.4247 116.028 40.3791 116.297C40.3334 116.566 40.3687 116.822 40.485 117.065C40.596 117.314 40.7941 117.549 41.0793 117.771C41.2761 117.923 41.4752 118.045 41.6766 118.136C41.8779 118.227 42.0807 118.281 42.285 118.298C42.484 118.322 42.6871 118.306 42.8943 118.249L43.656 119.118L40.372 122.508L36.4617 119.473L37.1888 118.537L40.2335 120.9L41.9479 119.195L42.0552 119.099L42.0348 119.083C41.7469 119.132 41.4439 119.109 41.1258 119.014C40.8008 118.914 40.4687 118.733 40.1292 118.469C39.6947 118.132 39.3925 117.75 39.2225 117.325C39.0472 116.906 38.9951 116.468 39.0662 116.012C39.1373 115.556 39.3362 115.118 39.6629 114.697C39.9474 114.33 40.2614 114.052 40.6049 113.862C40.9483 113.671 41.3085 113.565 41.6853 113.542C42.0621 113.519 42.4394 113.572 42.8171 113.702C43.1828 113.834 43.5388 114.034 43.885 114.303ZM32.0415 113.575L36.8136 109.129L37.6308 110.006L32.8586 114.452L32.0415 113.575ZM32.2546 109.871L33.0939 109.089L37.417 113.729L36.5777 114.511L32.2546 109.871ZM21.3726 100.242L27.437 100.268L30.265 98.6441L30.9519 99.8402L28.1238 101.464L25.0827 106.703L24.3189 105.373L25.9424 102.687L26.7041 101.477L25.2748 101.525L22.1429 101.584L21.3726 100.242ZM27.7344 92.8221C27.9692 93.4222 28.0518 93.999 27.9822 94.5522C27.9126 95.1054 27.6958 95.6008 27.3318 96.0385C26.9568 96.4713 26.4451 96.8145 25.7969 97.0681C25.1487 97.3218 24.544 97.4153 23.9828 97.3488C23.4104 97.2775 22.9125 97.0663 22.4891 96.7152C22.0657 96.3641 21.7428 95.9045 21.5205 95.3363C21.2919 94.7521 21.2179 94.209 21.2983 93.7069C21.3787 93.2048 21.5847 92.7644 21.9163 92.3855C22.2478 92.0066 22.6777 91.7138 23.2059 91.5072C23.35 91.4508 23.4876 91.4016 23.6187 91.3595C23.7499 91.3174 23.8666 91.2856 23.9689 91.264L25.857 96.0896L24.8726 96.4747L23.2054 92.2133L23.6463 92.7744C23.1022 92.9873 22.7392 93.2861 22.5576 93.6709C22.368 94.0589 22.3655 94.4889 22.5502 94.9611C22.6849 95.3052 22.8823 95.574 23.1426 95.7675C23.4028 95.9609 23.7196 96.063 24.0929 96.0738C24.4583 96.0878 24.869 96.0055 25.3252 95.827C25.7733 95.6517 26.1252 95.431 26.381 95.1648C26.6367 94.8986 26.793 94.6022 26.8497 94.2755C26.9064 93.9488 26.8643 93.6054 26.7234 93.2453C26.5669 92.8451 26.3641 92.5508 26.1149 92.3622C25.8658 92.1736 25.5771 92.0605 25.2486 92.0229L25.3296 90.8147C25.674 90.846 26.0028 90.9435 26.3159 91.107C26.6179 91.2657 26.8907 91.4912 27.1342 91.7834C27.3778 92.0757 27.5778 92.4219 27.7344 92.8221ZM21.1088 85.4253C20.6893 85.518 20.3922 85.7069 20.2176 85.992C20.0328 86.2705 19.9849 86.6111 20.074 87.0138C20.1575 87.3914 20.317 87.695 20.5526 87.9245C20.7881 88.1541 21.117 88.2881 21.5392 88.3268L21.3114 89.5653C20.7644 89.5191 20.2846 89.2995 19.8721 88.9067C19.4577 88.5055 19.1689 87.9357 19.0056 87.1973C18.8943 86.6938 18.8799 86.2306 18.9623 85.8075C19.0364 85.3863 19.2129 85.0304 19.4919 84.7399C19.7691 84.441 20.1635 84.2349 20.6754 84.1218L23.482 83.5011C23.7925 83.4325 23.9134 83.2429 23.8447 82.9325C23.8113 82.7814 23.7579 82.6392 23.6844 82.5059L24.6325 82.3754C24.7674 82.548 24.8674 82.7811 24.9323 83.0748C24.9917 83.3433 24.9994 83.5968 24.9553 83.8354C24.901 84.0674 24.7913 84.2677 24.6261 84.4362C24.4507 84.5982 24.2162 84.7117 23.9225 84.7767L23.8344 84.7961L23.7606 84.522C24.1045 84.5252 24.4115 84.6201 24.6817 84.8068C24.9434 84.9954 25.1631 85.2328 25.3408 85.5191C25.5102 85.8073 25.6301 86.1108 25.7006 86.4297C25.7878 86.824 25.8037 87.1946 25.7484 87.5412C25.6912 87.8795 25.5571 88.1688 25.3462 88.409C25.1251 88.6428 24.8257 88.8014 24.4481 88.8849C23.9783 88.9888 23.5589 88.9231 23.19 88.6878C22.8193 88.4442 22.5173 88.0533 22.2839 87.5153L21.2657 85.1794L22.2124 84.9832L22.9698 86.6771C23.1149 87.0147 23.2698 87.2576 23.4346 87.406C23.5995 87.5544 23.8035 87.6017 24.0469 87.5479C24.2818 87.4959 24.4511 87.3661 24.5548 87.1583C24.6482 86.944 24.6615 86.6859 24.5947 86.3838C24.5483 86.174 24.4786 85.9782 24.3856 85.7964C24.2908 85.6061 24.1711 85.4434 24.0268 85.3081C23.8741 85.1746 23.7004 85.0854 23.5056 85.0405C23.3006 84.989 23.0722 84.9911 22.8205 85.0467L21.1088 85.4253ZM24.4232 80.6004L18.0021 81.1546L17.9012 79.986L19.046 79.7578C18.6117 79.6228 18.2731 79.3976 18.0302 79.0821C17.7781 78.7589 17.6306 78.349 17.5877 77.8524C17.5766 77.724 17.5784 77.5945 17.593 77.4638C17.599 77.3339 17.6198 77.2243 17.6552 77.135L18.879 77.2234C18.8529 77.3206 18.8364 77.4298 18.8296 77.5511C18.8135 77.6647 18.814 77.8199 18.831 78.0168C18.8539 78.2822 18.9492 78.537 19.1169 78.7813C19.2761 79.0263 19.5043 79.2223 19.8016 79.3691C20.0982 79.5074 20.4648 79.5577 20.9014 79.52L24.3046 79.2263L24.4232 80.6004ZM24.2993 72.6808C24.2759 73.3248 24.13 73.9086 23.8617 74.432C23.5933 74.9554 23.2259 75.3634 22.7595 75.656L21.9697 74.6728C22.3287 74.4967 22.6219 74.2365 22.8494 73.8922C23.0686 73.539 23.1872 73.1133 23.2053 72.6152C23.2197 72.2202 23.1623 71.9043 23.0334 71.6674C22.9044 71.4305 22.7154 71.3076 22.4663 71.2986C22.3031 71.2926 22.1594 71.3433 22.0351 71.4506C21.9026 71.549 21.7965 71.7472 21.7169 72.0452L21.3844 73.3875C21.222 74.0695 20.9853 74.5511 20.6741 74.8322C20.3543 75.1129 19.9583 75.2447 19.486 75.2276C19.1339 75.2148 18.8113 75.0999 18.5182 74.8829C18.2251 74.6658 17.9956 74.3565 17.8296 73.955C17.6553 73.5445 17.5783 73.0601 17.5986 72.5019C17.622 71.8579 17.7579 71.3125 18.0063 70.8657C18.2461 70.4187 18.5807 70.0826 19.0103 69.8574L19.7743 70.8396C19.4249 70.9903 19.1628 71.2216 18.9881 71.5334C18.8048 71.8449 18.7069 72.1724 18.6944 72.5159C18.6845 72.7907 18.7102 73.0282 18.7718 73.2282C18.8333 73.4282 18.9223 73.5819 19.0388 73.6893C19.1553 73.7967 19.2951 73.8534 19.4583 73.8593C19.63 73.8656 19.7826 73.8066 19.9161 73.6825C20.0496 73.5583 20.1568 73.33 20.2377 72.9976L20.6002 71.5404C20.7428 70.9264 20.9647 70.5002 21.2657 70.2618C21.5585 70.0144 21.9109 69.8982 22.3231 69.9132C22.7353 69.9282 23.0964 70.0488 23.4064 70.275C23.7077 70.5009 23.937 70.8188 24.0941 71.2287C24.2512 71.6385 24.3196 72.1226 24.2993 72.6808ZM19.7473 58.9407C19.9204 58.3377 20.2013 57.8417 20.5901 57.4526C20.9789 57.0635 21.4537 56.8109 22.0145 56.6947C22.5694 56.5679 23.1814 56.6004 23.8505 56.7925C24.5195 56.9845 25.0598 57.2826 25.4713 57.6867C25.8769 58.0803 26.1413 58.5451 26.2646 59.0811C26.388 59.6171 26.3631 60.1866 26.1901 60.7896C26.017 61.3926 25.7361 61.8886 25.3473 62.2777C24.9585 62.6668 24.4866 62.9247 23.9317 63.0515C23.3685 63.176 22.7524 63.1422 22.0833 62.9502C21.4143 62.7582 20.8781 62.4613 20.4749 62.0595C20.0634 61.6553 19.796 61.1852 19.6727 60.6492C19.5494 60.1132 19.5743 59.5436 19.7473 58.9407ZM20.7881 59.2393C20.6814 59.611 20.6769 59.9539 20.7745 60.268C20.8662 60.5715 21.053 60.8397 21.3348 61.0725C21.6166 61.3054 21.993 61.4894 22.4638 61.6245C22.9263 61.7573 23.343 61.8008 23.7137 61.7552C24.0761 61.7073 24.3808 61.5801 24.6277 61.3739C24.8688 61.1569 25.0426 60.8626 25.1493 60.4909C25.256 60.1192 25.2634 59.7817 25.1717 59.4782C25.0718 59.1724 24.8809 58.903 24.599 58.6701C24.3089 58.4349 23.9326 58.2509 23.47 58.1182C22.9992 57.9831 22.5826 57.9395 22.2202 57.9875C21.8577 58.0354 21.5572 58.1637 21.3185 58.3724C21.0715 58.5787 20.8947 58.8677 20.7881 59.2393ZM20.0776 49.511C20.1839 49.2668 20.3075 49.0582 20.4484 48.8852C20.5849 48.7009 20.7187 48.5764 20.85 48.5117L21.6572 49.1442C21.5643 49.2069 21.482 49.2882 21.4104 49.3882C21.3308 49.4848 21.2602 49.604 21.1985 49.7459C21.0578 50.0689 21.0212 50.3576 21.0886 50.6118C21.1594 50.8582 21.3643 51.0551 21.7031 51.2026L22.5658 51.5782L22.9004 51.6816L28.3844 54.0687L27.8339 55.3333L21.0735 52.3906C20.7741 52.2603 20.525 52.1004 20.3264 51.9108C20.1312 51.7134 19.9942 51.4897 19.9155 51.2399C19.8289 50.9867 19.8011 50.7168 19.8321 50.4304C19.8586 50.1327 19.9404 49.8262 20.0776 49.511ZM23.2929 49.6172L24.2857 50.0494L22.4336 54.3042L21.4409 53.872L23.2929 49.6172ZM32.221 47.0519L25.384 41.9892L29.0505 37.0375L30.0036 37.7432L27.1578 41.5865L29.126 43.0439L31.3505 40.0398L32.2828 40.7301L30.0583 43.7343L32.0887 45.2377L35.042 41.2494L35.995 41.9551L32.221 47.0519ZM33.5345 35.1267L36.764 35.8214L36.9751 35.6684L41.3979 36.4378L40.2299 37.5848L36.891 36.8891L36.6073 37.0232L32.3481 36.2918L33.5345 35.1267ZM36.8546 31.8664L37.4724 36.1013L37.2611 36.2908L37.8939 39.8788L36.7718 40.9806L36.1569 36.4357L36.3681 36.2645L35.7234 32.9772L36.8546 31.8664ZM44.3385 37.532L39.0278 30.0786L40.0251 29.368L41.1563 30.7778L40.8821 30.7041C40.7716 30.3713 40.7291 30.0376 40.7544 29.703C40.7798 29.3684 40.8796 29.0493 41.0537 28.7458C41.2349 28.4374 41.483 28.1709 41.7979 27.9465C42.2248 27.6424 42.6905 27.4741 43.195 27.4417C43.6995 27.4093 44.1979 27.5238 44.6901 27.7851C45.1773 28.0394 45.6253 28.4535 46.0342 29.0274C46.4431 29.6013 46.6897 30.1695 46.7739 30.732C46.8602 31.2825 46.8022 31.7934 46.5998 32.2647C46.4045 32.7309 46.0899 33.1187 45.6559 33.4278C45.208 33.747 44.7443 33.9033 44.2649 33.8967C43.7804 33.8832 43.342 33.7418 42.9497 33.4726L42.9485 33.2044L45.4618 36.7317L44.3385 37.532ZM44.7637 32.6866C45.2187 32.3624 45.4574 31.9497 45.4799 31.4482C45.5095 30.9418 45.3223 30.4051 44.9184 29.8382C44.5145 29.2713 44.0719 28.9167 43.5906 28.7743C43.1042 28.6249 42.6371 28.7097 42.1892 29.0289C41.8953 29.2383 41.6912 29.4998 41.5769 29.8133C41.4647 30.1149 41.4428 30.447 41.5113 30.8097C41.5819 31.1604 41.7518 31.5248 42.021 31.9027C42.2853 32.2736 42.5742 32.5531 42.8876 32.7413C43.2011 32.9295 43.5187 33.0198 43.8403 33.0121C44.162 33.0045 44.4698 32.896 44.7637 32.6866ZM52.3461 29.4336C51.7676 29.7179 51.1999 29.8485 50.6428 29.8255C50.0857 29.8025 49.5738 29.628 49.1072 29.302C48.6445 28.9645 48.2596 28.4834 47.9525 27.8587C47.6455 27.234 47.5016 26.6393 47.5208 26.0745C47.544 25.4982 47.7127 24.9843 48.0271 24.533C48.3414 24.0816 48.7724 23.7214 49.32 23.4523C49.883 23.1755 50.418 23.0562 50.925 23.0943C51.432 23.1323 51.8882 23.3007 52.2936 23.5993C52.6989 23.898 53.0267 24.3019 53.2768 24.8109C53.3451 24.9497 53.4057 25.0827 53.4586 25.2099C53.5115 25.3371 53.553 25.4507 53.5831 25.5508L48.9327 27.8366L48.4664 26.888L52.5731 24.8695L52.051 25.3559C51.7932 24.8315 51.465 24.4949 51.0664 24.3462C50.6639 24.1897 50.2352 24.2233 49.7801 24.4469C49.4485 24.6099 49.1972 24.8292 49.0262 25.1047C48.8553 25.3803 48.78 25.7045 48.8006 26.0774C48.8173 26.4426 48.9337 26.845 49.1497 27.2846C49.362 27.7165 49.6115 28.0487 49.8981 28.2813C50.1848 28.5138 50.4933 28.6447 50.8236 28.6738C51.1539 28.703 51.4926 28.6322 51.8396 28.4617C52.2252 28.2721 52.5015 28.0454 52.6686 27.7813C52.8357 27.5173 52.9242 27.22 52.9341 26.8896L54.1448 26.869C54.1425 27.2149 54.0729 27.5507 53.9362 27.8764C53.8034 28.1907 53.6016 28.4814 53.3307 28.7485C53.0599 29.0157 52.7317 29.2441 52.3461 29.4336ZM56.8255 27.2476L54.7812 21.1354L55.8936 20.7634L56.3838 21.8227C56.4133 21.3688 56.5528 20.9869 56.8025 20.6769C57.0577 20.3559 57.4215 20.1164 57.8942 19.9584C58.0165 19.9175 58.1428 19.8888 58.2732 19.8724C58.4009 19.8478 58.5123 19.8422 58.6075 19.8557L58.8084 21.0661C58.7079 21.0635 58.5978 21.0732 58.4783 21.095C58.3641 21.106 58.2134 21.1428 58.0259 21.2055C57.7733 21.29 57.5479 21.4424 57.3497 21.6627C57.1489 21.8749 57.0119 22.1427 56.9389 22.4662C56.874 22.7869 56.911 23.1551 57.05 23.5707L58.1335 26.8102L56.8255 27.2476ZM61.2713 18.0406C60.9782 18.108 60.7357 18.0887 60.5439 17.9829C60.3585 17.8668 60.235 17.6747 60.1735 17.4067C60.1119 17.1387 60.1402 16.9162 60.2582 16.7392C60.3846 16.5603 60.5944 16.4371 60.8875 16.3698C61.1723 16.3044 61.4064 16.3255 61.5899 16.4333C61.7817 16.5391 61.9084 16.726 61.97 16.994C62.0315 17.2621 62.0001 17.4897 61.8756 17.677C61.7575 17.854 61.5561 17.9752 61.2713 18.0406ZM62.1796 18.943L63.6224 25.2244L62.2782 25.5332L60.8354 19.2517L62.1796 18.943ZM68.9532 24.5805C68.3128 24.6534 67.7342 24.5853 67.2174 24.3761C66.7006 24.1669 66.2773 23.8302 65.9477 23.3662C65.6256 22.8926 65.4251 22.31 65.3463 21.6184C65.2675 20.9268 65.3322 20.3184 65.5405 19.793C65.7563 19.2581 66.0882 18.8311 66.5361 18.5119C66.9841 18.1927 67.5112 17.9986 68.1174 17.9295C68.7407 17.8585 69.2846 17.9262 69.7493 18.1328C70.2139 18.3393 70.5868 18.6514 70.8679 19.0691C71.149 19.4868 71.3217 19.9774 71.3859 20.5409C71.4034 20.6946 71.4157 20.8403 71.4227 20.9778C71.4298 21.1154 71.4306 21.2364 71.4252 21.3408L66.2767 21.9275L66.157 20.8774L70.7036 20.3592L70.0481 20.6415C69.982 20.0609 69.7862 19.6335 69.4609 19.3592C69.1346 19.0764 68.7196 18.9636 68.2158 19.021C67.8487 19.0629 67.5383 19.1848 67.2845 19.3867C67.0307 19.5886 66.8508 19.8685 66.7445 20.2266C66.6373 20.5761 66.6115 20.9942 66.6669 21.4809C66.7214 21.959 66.8445 22.3558 67.0361 22.6713C67.2277 22.9868 67.4742 23.2138 67.7754 23.3525C68.0766 23.4911 68.4193 23.5386 68.8035 23.4948C69.2304 23.4461 69.567 23.3256 69.8132 23.1332C70.0594 22.9408 70.2428 22.6907 70.3634 22.3829L71.5103 22.7712C71.3917 23.096 71.2132 23.3888 70.9747 23.6495C70.7439 23.9007 70.456 24.1065 70.111 24.2669C69.766 24.4273 69.3801 24.5318 68.9532 24.5805Z" fill="white"/>
<path d="M66.6 84L64.5 81.9L78.9 67.5H66V64.5H84V82.5H81V69.6L66.6 84Z" fill="#F36249"/>
</svg>
