<svg width="167" height="167" viewBox="0 0 167 167" fill="none" xmlns="http://www.w3.org/2000/svg">
<circle cx="83.4998" cy="83.4998" r="76.7752" fill="#F36249"/>
<circle cx="83.5" cy="83.5" r="43.5" fill="white"/>
<path d="M97.6929 21.4755L96.2046 30.5948L94.2979 30.2837L95.7861 21.1643L97.6929 21.4755ZM91.7653 20.5081L90.277 29.6275L88.3703 29.3163L89.8585 20.197L91.7653 20.5081ZM96.1698 25.0711L95.9196 26.6048L89.9505 25.6307L90.2008 24.097L96.1698 25.0711ZM105.486 23.7662C106.344 24.0808 107.019 24.5318 107.51 25.119C108 25.7063 108.29 26.394 108.379 27.182C108.477 27.9733 108.356 28.8334 108.015 29.7623C107.675 30.6913 107.212 31.4262 106.626 31.967C106.049 32.511 105.384 32.8487 104.63 32.9801C103.876 33.1114 103.069 33.0198 102.211 32.7051C101.352 32.3905 100.673 31.9379 100.173 31.3475C99.6828 30.7602 99.3886 30.0709 99.2908 29.2797C99.2018 28.4916 99.3274 27.6331 99.6678 26.7042C100.008 25.7752 100.467 25.0387 101.044 24.4947C101.63 23.9538 102.299 23.6178 103.053 23.4864C103.816 23.3583 104.627 23.4515 105.486 23.7662ZM104.941 25.2516C104.451 25.0718 103.993 25.0332 103.567 25.1359C103.142 25.2385 102.755 25.4796 102.408 25.8591C102.072 26.2331 101.785 26.7443 101.548 27.3928C101.313 28.0326 101.202 28.6081 101.213 29.1192C101.234 29.6336 101.373 30.0673 101.631 30.4204C101.89 30.7735 102.264 31.0399 102.755 31.2197C103.237 31.3963 103.69 31.4333 104.116 31.3306C104.541 31.228 104.923 30.9853 105.262 30.6025C105.61 30.223 105.901 29.7134 106.135 29.0736C106.373 28.4251 106.48 27.8481 106.457 27.3424C106.445 26.8313 106.31 26.3992 106.052 26.0461C105.793 25.693 105.423 25.4282 104.941 25.2516ZM109.432 35.8841L112.154 26.6539L113.886 27.7642L111.302 35.1705L116.975 29.7431L118.531 30.74L115.994 38.1765L121.631 32.7265L123.293 33.7914L116.045 40.1212L114.218 38.9505L115.852 34.012L116.665 31.939L116.642 31.9239L115.098 33.5287L111.306 37.085L109.432 35.8841ZM123.112 46.5052L128.615 38.6111L129.908 40.2127L125.112 46.4203L132.211 43.0674L133.371 44.5056L128.611 50.7568L135.683 47.3712L136.923 48.9075L128.044 52.6177L126.681 50.9288L129.795 46.7616L131.222 45.0524L131.204 45.0306L129.232 46.0643L124.51 48.2376L123.112 46.5052ZM130.435 55.9743L138.662 51.7674L141.817 57.9375L140.434 58.645L138.158 54.195L136.114 55.2404L137.905 58.743L136.584 59.4187L134.793 55.916L132.699 56.9869L135.063 61.6113L133.68 62.3189L130.435 55.9743ZM137.388 75.3998L136.926 73.452L138.941 72.1819L138.122 68.7358L135.751 68.5076L135.295 66.587L145.064 67.7342L145.598 69.9816L137.388 75.3998ZM139.612 68.828L140.23 71.4296L143.842 69.1901L139.612 68.828ZM146.948 80.2974C147.007 81.341 146.801 82.1753 146.332 82.8002C145.863 83.425 145.204 83.7615 144.356 83.8095C143.452 83.8607 142.741 83.6018 142.223 83.0328C141.714 82.4634 141.43 81.6614 141.371 80.6271L141.248 80.4377L141.136 78.4529L137.6 78.6531L137.492 76.7522L146.717 76.2299L146.948 80.2974ZM142.714 80.3127C142.744 80.8532 142.874 81.2478 143.103 81.4966C143.342 81.7542 143.69 81.87 144.146 81.8442C144.603 81.8183 144.931 81.6642 145.13 81.3819C145.339 81.1083 145.428 80.7013 145.397 80.1608L145.287 78.2179L142.604 78.3698L142.714 80.3127ZM142.372 81.4679L137.943 84.7194L137.82 82.5529L141.72 79.8501L142.372 81.4679ZM137.831 86.2351L147.018 87.2298L146.272 94.1196L144.727 93.9523L145.265 88.9833L142.982 88.7361L142.559 92.6473L141.083 92.4875L141.507 88.5764L139.168 88.3232L138.609 93.487L137.064 93.3197L137.831 86.2351ZM134.992 100.457L144.561 101.477L143.779 103.381L136.03 102.169L142.387 106.774L141.686 108.484L133.915 107.324L140.288 111.891L139.539 113.717L132.011 107.723L132.834 105.715L137.986 106.437L140.171 106.864L140.182 106.838L138.326 105.608L134.147 102.516L134.992 100.457ZM135.682 119.903C135.158 120.653 134.55 121.19 133.857 121.514C133.164 121.839 132.425 121.943 131.64 121.828C130.85 121.72 130.049 121.383 129.238 120.817C128.427 120.251 127.835 119.615 127.462 118.911C127.083 118.214 126.927 117.484 126.992 116.722C127.058 115.959 127.352 115.203 127.876 114.453C128.4 113.703 129.011 113.162 129.709 112.83C130.402 112.506 131.144 112.398 131.934 112.505C132.718 112.621 133.516 112.961 134.327 113.528C135.139 114.094 135.733 114.726 136.112 115.423C136.485 116.127 136.639 116.861 136.574 117.623C136.503 118.393 136.205 119.153 135.682 119.903ZM134.385 118.997C134.684 118.569 134.838 118.136 134.848 117.698C134.857 117.261 134.723 116.826 134.444 116.393C134.169 115.972 133.748 115.565 133.181 115.169C132.623 114.779 132.095 114.524 131.598 114.405C131.095 114.293 130.64 114.317 130.233 114.477C129.826 114.636 129.472 114.93 129.173 115.359C128.879 115.78 128.728 116.209 128.718 116.646C128.709 117.084 128.846 117.515 129.129 117.941C129.407 118.374 129.826 118.785 130.384 119.175C130.951 119.571 131.481 119.822 131.976 119.928C132.473 120.048 132.925 120.028 133.333 119.868C133.74 119.708 134.091 119.418 134.385 118.997ZM127.785 129.048C127.043 129.784 126.282 130.183 125.503 130.245C124.723 130.307 124.035 130.036 123.437 129.433C122.8 128.79 122.523 128.085 122.606 127.32C122.696 126.562 123.109 125.818 123.845 125.089L123.905 124.871L125.318 123.473L122.825 120.956L124.178 119.616L130.68 126.181L127.785 129.048ZM124.969 125.886C124.585 126.267 124.375 126.626 124.34 126.962C124.306 127.312 124.449 127.649 124.771 127.974C125.093 128.299 125.425 128.443 125.769 128.405C126.112 128.38 126.476 128.177 126.861 127.796L128.243 126.427L126.352 124.517L124.969 125.886ZM123.878 126.396L118.508 125.231L120.05 123.704L124.658 124.835L123.878 126.396ZM116.001 138.273L116.744 131.918L116.958 131.957L117.367 128.489L118.629 129.796L117.842 136.998L116.001 138.273ZM120.962 134.838L115.703 127.241L117.291 126.141L122.55 133.739L120.962 134.838ZM117.223 133.544L110.649 130.739L112.468 129.48L117.829 131.813L117.223 133.544ZM104.244 133.611L109.752 141.502L107.803 142.162L103.633 135.518L104.328 143.337L102.578 143.93L98.3551 137.303L99.0898 145.11L97.2199 145.742L96.8047 136.128L98.8602 135.433L101.696 139.794L102.807 141.724L102.833 141.715L102.544 139.507L102.136 134.325L104.244 133.611ZM85.5302 138.044L87.5153 137.784L88.571 139.919L92.0831 139.46L92.5544 137.126L94.5118 136.87L92.3641 146.469L90.0736 146.768L85.5302 138.044ZM91.8379 140.933L89.1865 141.279L91.0419 145.103L91.8379 140.933ZM77.8428 146.965L77.8763 145.411L80.9695 145.478L81.1353 137.793L83.0668 137.835L82.9011 145.519L86.0084 145.586L85.9749 147.14L77.8428 146.965ZM68.6009 138.52C68.8871 137.967 69.2557 137.529 69.7069 137.206C70.158 136.884 70.6586 136.675 71.2088 136.581C71.7589 136.486 72.3411 136.498 72.9554 136.615C73.8538 136.787 74.5972 137.123 75.1855 137.625C75.7647 138.125 76.1665 138.758 76.391 139.523C76.6064 140.286 76.6213 141.154 76.4358 142.125C76.2503 143.097 75.9169 143.898 75.4355 144.528C74.9449 145.157 74.3383 145.597 73.6156 145.849C72.8838 146.098 72.0778 146.139 71.1977 145.971C70.5743 145.852 70.0271 145.658 69.5562 145.387C69.0834 145.126 68.7061 144.788 68.4243 144.373C68.1332 143.956 67.956 143.466 67.8924 142.903L69.7505 142.502C69.8014 143.082 69.9654 143.517 70.2425 143.808C70.5178 144.108 70.9076 144.305 71.4119 144.402C71.9069 144.496 72.3652 144.46 72.7865 144.294C73.1988 144.125 73.5503 143.826 73.8413 143.397C74.1305 142.978 74.3398 142.428 74.4693 141.75C74.5971 141.081 74.6139 140.495 74.5198 139.992C74.4166 139.488 74.2043 139.082 73.8831 138.773C73.5619 138.465 73.1354 138.26 72.6037 138.158C72.1086 138.064 71.657 138.115 71.2487 138.313C70.8312 138.509 70.4975 138.863 70.2476 139.376L68.6009 138.52ZM56.7877 141.236L60.136 132.624L61.9367 133.324L58.5884 141.936L56.7877 141.236ZM62.3855 143.413L65.7338 134.801L67.5345 135.501L64.1862 144.113L62.3855 143.413ZM59.0238 138.035L59.5869 136.586L65.2238 138.778L64.6607 140.226L59.0238 138.035ZM48.1165 124.964L49.7452 126.128L49.0607 128.41L51.9421 130.47L53.8793 129.084L55.4852 130.232L47.3667 135.786L45.4876 134.443L48.1165 124.964ZM50.7586 131.379L48.5833 129.824L47.3317 133.885L50.7586 131.379ZM34.0301 121.089L37.285 124.864L39.0662 123.328L36.497 120.349L37.6739 119.334L40.243 122.313L43.1056 119.844L44.3673 121.308L37.3698 127.342L32.8533 122.104L34.0301 121.089ZM27.0418 112.877L31.8355 109.982C32.9141 109.331 33.8988 109.129 34.7894 109.376C35.6721 109.628 36.4464 110.305 37.1122 111.408C37.778 112.51 38.0169 113.511 37.829 114.409C37.6331 115.313 36.9958 116.09 35.9173 116.741L31.1235 119.636L30.1248 117.982L34.8466 115.131C35.5098 114.73 35.9167 114.294 36.0674 113.821C36.2133 113.341 36.1101 112.809 35.7579 112.226C35.4057 111.642 34.9854 111.307 34.497 111.221C34.0085 111.134 33.4327 111.291 32.7696 111.691L28.0478 114.543L27.0418 112.877ZM31.8401 104.884L30.0636 100.348L31.5107 99.7812L33.9916 106.117L25.3877 109.486L24.6832 107.687L31.8401 104.884ZM29.1626 96.6986L28.092 91.9457L29.608 91.6042L31.1032 98.2419L22.0891 100.272L21.6645 98.3877L29.1626 96.6986ZM20.0077 78.4701L29.2223 81.8991L29.2054 84.153L19.9405 87.4579L19.9558 85.4139L25.8501 83.5119L27.6741 82.9935L25.872 82.4621L19.9928 80.4581L20.0077 78.4701ZM20.514 74.0074L29.6702 75.2491L29.4105 77.1636L20.2544 75.9219L20.514 74.0074ZM22.1637 67.0365C22.5426 65.6404 23.2232 64.6646 24.2057 64.1091C25.1791 63.5513 26.3819 63.4667 27.8141 63.8553C29.2373 64.2415 30.2323 64.9226 30.7992 65.8984C31.3661 66.8743 31.4601 68.0603 31.0812 69.4565L30.1462 72.9019L21.2287 70.4819L22.1637 67.0365ZM29.5693 69.1477C29.799 68.301 29.7192 67.5975 29.3296 67.0373C28.9335 66.4656 28.2536 66.049 27.2898 65.7874C26.326 65.5259 25.5332 65.5429 24.9114 65.8383C24.2831 66.1224 23.8541 66.6877 23.6243 67.5344L23.221 69.0207L29.166 70.634L29.5693 69.1477ZM32.9751 63.2787L24.6161 59.3412L27.5692 53.0719L28.9751 53.7341L26.8452 58.2556L28.9223 59.234L30.5988 55.6751L31.9413 56.3075L30.2648 59.8664L32.3926 60.8687L34.606 56.1699L36.0118 56.8321L32.9751 63.2787ZM31.5146 46.8204C32.0423 46.0732 32.6535 45.5394 33.3483 45.2188C34.0432 44.8983 34.7826 44.7977 35.5666 44.9172C36.356 45.029 37.1548 45.3703 37.9629 45.941C38.771 46.5117 39.3598 47.1503 39.7293 47.8568C40.1041 48.5557 40.2567 49.2862 40.187 50.0482C40.1173 50.8103 39.8187 51.5649 39.291 52.312C38.7634 53.0591 38.1495 53.5968 37.4493 53.925C36.7544 54.2455 36.0123 54.3499 35.2229 54.2381C34.4389 54.1186 33.6428 53.7735 32.8347 53.2028C32.0266 52.6321 31.4351 51.9973 31.0602 51.2984C30.6908 50.5919 30.5409 49.8576 30.6106 49.0956C30.6857 48.3259 30.987 47.5675 31.5146 46.8204ZM32.8069 47.7329C32.5054 48.1599 32.3488 48.592 32.337 49.0293C32.3253 49.4666 32.4573 49.9026 32.733 50.3373C33.0065 50.759 33.4254 51.1691 33.9895 51.5675C34.5461 51.9605 35.0726 52.2181 35.5691 52.3402C36.071 52.4546 36.526 52.4332 36.9342 52.2759C37.3424 52.1185 37.6973 51.8264 37.9988 51.3994C38.2949 50.9801 38.4488 50.5518 38.4606 50.1145C38.4723 49.6772 38.3376 49.245 38.0565 48.8179C37.7807 48.3832 37.3646 47.9694 36.8081 47.5763C36.2439 47.1779 35.7147 46.9242 35.2204 46.8151C34.7239 46.693 34.2716 46.7106 33.8634 46.868C33.4552 47.0253 33.103 47.3136 32.8069 47.7329ZM46.2447 31.926L52.1176 39.0595L50.626 40.2875L44.7532 33.154L46.2447 31.926ZM41.6079 35.7434L47.4808 42.8769L45.9893 44.1049L40.1164 36.9714L41.6079 35.7434ZM47.9428 35.4424L48.9305 36.6421L44.2613 40.4862L43.2736 39.2864L47.9428 35.4424ZM54.0888 37.7125L49.5703 29.6527L55.6152 26.2638L56.3751 27.6194L52.0155 30.0634L53.1383 32.0662L56.5698 30.1424L57.2955 31.4369L53.864 33.3606L55.0141 35.4122L59.5447 32.8723L60.3046 34.2278L54.0888 37.7125ZM62.6065 23.4947C63.5905 23.1418 64.4487 23.1017 65.1811 23.3745C65.9135 23.6473 66.423 24.1834 66.7097 24.9829C67.0154 25.8351 66.9689 26.5904 66.5705 27.2489C66.1689 27.8986 65.4805 28.3983 64.5054 28.748L64.3587 28.9196L62.4874 29.5907L63.683 32.9248L61.8908 33.5675L58.7716 24.8699L62.6065 23.4947ZM63.8229 27.5501C64.3325 27.3674 64.674 27.1308 64.8475 26.8406C65.0267 26.5383 65.0391 26.172 64.8847 25.7415C64.7303 25.311 64.4895 25.0404 64.1623 24.9297C63.8407 24.8071 63.4251 24.8371 62.9155 25.0199L61.0837 25.6768L61.9911 28.207L63.8229 27.5501ZM65.0274 27.5495L69.4024 30.8737L67.3598 31.6062L63.6614 28.6343L65.0274 27.5495ZM70.8885 30.559L69.2991 21.4567L76.1258 20.2647L76.3931 21.7955L71.4696 22.6553L71.8645 24.917L75.7399 24.2403L75.9952 25.7022L72.1198 26.3789L72.5244 28.6959L77.641 27.8024L77.9083 29.3333L70.8885 30.559Z" fill="white"/>
<path d="M75.6 93L73.5 90.9L87.9 76.5H75V73.5H93V91.5H90V78.6L75.6 93Z" fill="#F36249"/>
</svg>
