<svg width="32" height="32" viewBox="0 0 32 32" fill="none" xmlns="http://www.w3.org/2000/svg">
<path d="M12.25 8.75V6.25M12.25 6.25H19.75M12.25 6.25H9.75C8.36931 6.25 7.25 5.13069 7.25 3.75C7.25 2.36931 8.36931 1.25 9.75 1.25C11.1307 1.25 12.25 2.36931 12.25 3.75V6.25ZM19.75 6.25C19.75 7.63069 20.8693 8.75 22.25 8.75H27.25V3.75H22.25C20.8693 3.75 19.75 4.86931 19.75 6.25ZM19.75 21.25V28.25C19.75 29.625 18.625 30.75 17.25 30.75H7.25C5.875 30.75 4.75 29.625 4.75 28.25V21.25C4.75 20.4737 5.06831 20.1009 5.17494 19.85L7.45 15.2749C7.66819 15.0239 8.07606 13.75 9.75 13.75H14.75C16.424 13.75 16.8325 15.0247 17.0499 15.2749L19.325 19.85C19.4315 20.1004 19.75 20.4787 19.75 21.25Z" stroke="white" stroke-width="2.5" stroke-miterlimit="10" stroke-linecap="round" stroke-linejoin="round"/>
<path d="M14.75 25.75H12.25C10.8693 25.75 9.75 24.6307 9.75 23.25V20.75H12.25C13.6307 20.75 14.75 21.8693 14.75 23.25V25.75Z" stroke="white" stroke-width="2.5" stroke-miterlimit="10" stroke-linecap="round" stroke-linejoin="round"/>
</svg>
