<svg width="32" height="32" viewBox="0 0 32 32" fill="none" xmlns="http://www.w3.org/2000/svg">
<path d="M10.4181 13.4143L14.7523 15.9166C15.1317 16.1357 15.5623 16.2507 16.0005 16.25C16.4387 16.2507 16.8692 16.1357 17.2487 15.9166L21.5829 13.4143C21.9623 13.1952 22.2772 12.8798 22.4957 12.5C22.7154 12.1209 22.831 11.6905 22.831 11.2523V6.24769C22.831 5.80952 22.7154 5.37912 22.4957 5C22.2772 4.62021 21.9623 4.30483 21.5829 4.08575L17.2487 1.58344C16.8814 1.37131 16.4551 1.25 16.0005 1.25C15.5459 1.25 15.1196 1.37131 14.7523 1.58337L10.4181 4.08569C10.0387 4.30477 9.72378 4.62014 9.5053 4.99994C9.2856 5.37905 9.16991 5.80945 9.16992 6.24762V11.2523C9.16993 11.6905 9.28562 12.1209 9.5053 12.5C9.72378 12.8798 10.0387 13.1952 10.4181 13.4143Z" stroke="white" stroke-width="2.5" stroke-miterlimit="10" stroke-linecap="round" stroke-linejoin="round"/>
<path d="M14.1689 8.08008L14.7518 8.41658C15.1313 8.6357 15.5618 8.75072 16 8.75002C16.4382 8.75072 16.8687 8.6357 17.2482 8.41658L17.8311 8.08008M28.5 30.75V23.5262C28.5 21.993 27.2571 20.75 25.7238 20.75C25.0934 20.75 24.4818 20.9646 23.9896 21.3584L18.5 25.75M3.5 30.75V23.5262C3.5 21.993 4.74294 20.75 6.27619 20.75C6.90658 20.75 7.5182 20.9646 8.01044 21.3584L13.5 25.75" stroke="white" stroke-width="2.5" stroke-miterlimit="10" stroke-linecap="round" stroke-linejoin="round"/>
<path d="M16 28.25C17.3807 28.25 18.5 27.1307 18.5 25.75C18.5 24.3693 17.3807 23.25 16 23.25C14.6193 23.25 13.5 24.3693 13.5 25.75C13.5 27.1307 14.6193 28.25 16 28.25Z" stroke="white" stroke-width="2.5" stroke-miterlimit="10" stroke-linecap="round" stroke-linejoin="round"/>
<path d="M16 20.75V23.25M16 11.25V8.75M8.5 30.75V28.25C8.5 26.8693 9.61931 25.75 11 25.75H13.5M23.5 30.75V28.25C23.5 26.8693 22.3807 25.75 21 25.75H18.5" stroke="white" stroke-width="2.5" stroke-miterlimit="10" stroke-linecap="round" stroke-linejoin="round"/>
</svg>
