<svg width="32" height="32" viewBox="0 0 32 32" fill="none" xmlns="http://www.w3.org/2000/svg">
<g clip-path="url(#clip0_2415_2775)">
<path d="M25.75 1.25001V3.75001C25.75 5.13069 26.8693 6.25 28.25 6.25H30.75" stroke="white" stroke-width="2.49999" stroke-miterlimit="10" stroke-linecap="round" stroke-linejoin="round"/>
<path d="M26.4822 5.51779L13.75 18.25" stroke="white" stroke-width="2.49999" stroke-miterlimit="10" stroke-linecap="round" stroke-linejoin="round"/>
<path d="M25.3864 13.6839C25.9437 15.099 26.2499 16.6395 26.2499 18.25C26.2499 25.1425 20.6423 30.75 13.75 30.75C6.85754 30.75 1.25 25.1425 1.25 18.25C1.25 11.3577 6.85754 5.75008 13.75 5.75008C15.3605 5.75008 16.901 6.05633 18.3161 6.61357" stroke="white" stroke-width="2.49999" stroke-miterlimit="10" stroke-linecap="round" stroke-linejoin="round"/>
<path d="M21.2385 17.8318C21.2461 17.9702 21.25 18.1096 21.25 18.25C21.25 22.3921 17.8922 25.75 13.75 25.75C9.60787 25.75 6.25 22.3921 6.25 18.25C6.25 14.1078 9.60787 10.75 13.75 10.75C13.8904 10.75 14.0298 10.7539 14.1682 10.7615" stroke="white" stroke-width="2.49999" stroke-miterlimit="10" stroke-linecap="round" stroke-linejoin="round"/>
</g>
<defs>
<clipPath id="clip0_2415_2775">
<rect width="32" height="32" fill="white"/>
</clipPath>
</defs>
</svg>
