<svg width="32" height="32" viewBox="0 0 32 32" fill="none" xmlns="http://www.w3.org/2000/svg">
<g clip-path="url(#clip0_2415_2785)">
<path d="M11.5625 1.25006C5.8538 1.25006 1.19556 5.94505 1.2505 11.6638L1.25 21.875L1.42094 21.7187C2.86618 20.2734 5.07818 19.8926 6.90542 20.8083C8.28848 21.5014 9.85341 21.8757 11.5165 21.875C17.193 21.8776 21.8199 17.3401 21.8744 11.6638C21.9294 5.94505 17.3633 1.25006 11.5625 1.25006Z" stroke="white" stroke-width="2.49999" stroke-miterlimit="10" stroke-linecap="round" stroke-linejoin="round"/>
<path d="M26.5625 12.1251C29.1243 14.0269 30.7824 17.1134 30.7494 20.5388L30.7499 30.75L30.579 30.5937C29.1338 29.1484 26.9218 28.7676 25.0945 29.6833C23.7115 30.3764 22.1465 30.7507 20.4835 30.75C17.0767 30.7516 14.0767 29.1588 12.1875 26.625" stroke="white" stroke-width="2.49999" stroke-miterlimit="10" stroke-linecap="round" stroke-linejoin="round"/>
<path d="M18 11.625C18 12.4879 17.3005 13.1875 16.4375 13.1875C15.5745 13.1875 14.875 12.4879 14.875 11.625C14.875 10.7621 15.5745 10.0625 16.4375 10.0625C17.3005 10.0625 18 10.7621 18 11.625Z" fill="white"/>
<path d="M13.0625 11.625C13.0625 12.4879 12.363 13.1875 11.5 13.1875C10.637 13.1875 9.9375 12.4879 9.9375 11.625C9.9375 10.7621 10.637 10.0625 11.5 10.0625C12.363 10.0625 13.0625 10.7621 13.0625 11.625Z" fill="white"/>
<path d="M8.12499 11.625C8.12499 12.4879 7.42549 13.1875 6.5625 13.1875C5.6995 13.1875 5 12.4879 5 11.625C5 10.7621 5.6995 10.0625 6.5625 10.0625C7.42549 10.0625 8.12499 10.7621 8.12499 11.625Z" fill="white"/>
</g>
<defs>
<clipPath id="clip0_2415_2785">
<rect width="32" height="32" fill="white"/>
</clipPath>
</defs>
</svg>
