<svg width="38" height="38" viewBox="0 0 38 38" fill="none" xmlns="http://www.w3.org/2000/svg">
<path d="M0 19C0 8.50659 8.50659 0 19 0C29.4934 0 38 8.50659 38 19C38 29.4934 29.4934 38 19 38C8.50659 38 0 29.4934 0 19Z" fill="#FDEFEC"/>
<path d="M30.0205 18.1514C29.9926 17.9058 29.8369 17.6926 29.6104 17.5897C28.9359 17.2831 27.9527 16.8089 27.3085 16.4958C27.644 15.8667 28.1586 14.9096 28.5227 14.268C28.645 14.0526 28.6446 13.7894 28.5217 13.5744C28.3988 13.3594 28.1713 13.224 27.9222 13.2175L24.423 13.1271C24.1068 13.119 23.775 13.1106 23.4356 13.1169C23.3368 12.7947 23.2262 12.4842 23.1205 12.1882L21.9526 8.91396C21.8695 8.68096 21.6694 8.50818 21.4253 8.45864C21.1812 8.4094 20.9288 8.49015 20.7601 8.672C20.2578 9.21382 19.4995 9.99528 19.0002 10.5063C18.501 9.99528 17.7427 9.21402 17.2403 8.672C17.0716 8.49015 16.8196 8.4094 16.5751 8.45864C16.3311 8.50818 16.1309 8.68106 16.0478 8.91396L14.8799 12.1882C14.7744 12.4842 14.6637 12.7947 14.5648 13.117C14.2255 13.1107 13.8937 13.119 13.5775 13.1271L10.0783 13.2175C9.82929 13.2239 9.60188 13.3594 9.47889 13.5744C9.356 13.7894 9.3556 14.0526 9.47788 14.268C9.84188 14.9095 10.3566 15.8666 10.6921 16.4958C10.048 16.8089 9.06476 17.283 8.39014 17.5897C8.16364 17.6926 8.00807 17.9059 7.98007 18.1514C7.95216 18.397 8.05597 18.6393 8.25365 18.7897L11.031 20.9037C11.2819 21.0947 11.5455 21.2952 11.8237 21.488C11.7128 21.8063 11.6183 22.1221 11.5284 22.423L10.5338 25.7531C10.4629 25.9901 10.5225 26.2466 10.6905 26.429C10.8587 26.6115 11.1108 26.6936 11.355 26.6444C12.0823 26.4991 13.1587 26.3091 13.8654 26.1869C13.9666 26.8916 14.1172 27.9661 14.2027 28.6974C14.2314 28.943 14.3877 29.1557 14.6145 29.2579C14.7083 29.3001 14.8085 29.321 14.9083 29.321C15.0498 29.321 15.1905 29.2791 15.3108 29.197L18.1952 27.2292C18.4559 27.0514 18.7294 26.8645 19.0002 26.6615C19.2711 26.8646 19.5446 27.0514 19.8051 27.2292L22.6896 29.197C22.81 29.2791 22.9506 29.321 23.0921 29.321C23.1919 29.321 23.2921 29.3001 23.386 29.2579C23.6128 29.1556 23.769 28.9429 23.7978 28.6974C23.8832 27.9661 24.0338 26.8916 24.1351 26.1869C24.8418 26.3091 25.9182 26.4991 26.6454 26.6444C26.89 26.6933 27.1419 26.6116 27.3099 26.429C27.4781 26.2466 27.5375 25.9901 27.4667 25.7531L26.472 22.423C26.3821 22.122 26.2876 21.8062 26.1767 21.488C26.455 21.2952 26.7185 21.0948 26.9695 20.9038L29.7469 18.7897C29.9447 18.6393 30.0484 18.397 30.0205 18.1514ZM16.2193 12.6587L16.9983 10.4748C17.7131 11.2191 18.4497 11.9663 18.4926 12.0099C18.6263 12.1454 18.8093 12.2219 19.0003 12.2219C19.1913 12.2219 19.3745 12.1454 19.508 12.0099C19.5509 11.9663 20.2875 11.2191 21.0024 10.4748L21.7813 12.6587C21.8537 12.8614 21.9265 13.0663 21.9947 13.2718C21.8847 13.2964 21.7751 13.3245 21.6661 13.3571C20.5496 13.6908 19.6158 14.4889 19.0003 15.5069C18.3849 14.4889 17.4511 13.6908 16.3345 13.3571C16.2255 13.3245 16.1158 13.2965 16.0059 13.2718C16.0741 13.0663 16.147 12.8615 16.2193 12.6587ZM22.3318 14.8914C22.3585 16.1151 21.5791 17.2964 20.4497 17.9572C20.2277 17.9895 20.0074 18.0356 19.7901 18.0957C19.7804 17.8721 19.7565 17.6499 19.7189 17.4304C20.0032 16.1605 20.8947 15.0599 22.0758 14.7069C22.1548 14.6833 22.2354 14.6636 22.3168 14.6454C22.3247 14.7277 22.3301 14.8097 22.3318 14.8914ZM19.1585 24.5822C19.1087 24.6472 19.0552 24.71 19.0003 24.7721C18.9454 24.7101 18.8919 24.6472 18.8421 24.5823C18.0957 23.6078 18.0263 22.1976 18.5484 21.0045C18.7091 20.8487 18.86 20.6825 19.0003 20.5071C19.1408 20.6825 19.2917 20.8488 19.4523 21.0046C19.9744 22.1977 19.9049 23.6079 19.1585 24.5822ZM15.6837 14.6453C15.7651 14.6634 15.8458 14.6831 15.9247 14.7068C17.1059 15.0598 17.9973 16.1604 18.2817 17.4303C18.2441 17.6498 18.2202 17.872 18.2105 18.0955C17.9933 18.0355 17.7729 17.9893 17.5508 17.957C16.4216 17.2962 15.6422 16.1149 15.6689 14.8913C15.6706 14.8097 15.676 14.7277 15.6837 14.6453ZM17.1067 19.3135C17.3054 19.4168 17.511 19.5081 17.7223 19.5863C17.5977 19.7729 17.4853 19.9668 17.3856 20.1665C16.4033 21.028 15.0303 21.3982 13.8658 20.9947C13.788 20.9678 13.7111 20.9373 13.6346 20.9046C13.6771 20.8334 13.721 20.7634 13.768 20.6962C14.4714 19.6906 15.8017 19.1894 17.1067 19.3135ZM20.2783 19.5863C20.4895 19.5082 20.6951 19.4169 20.8938 19.3136C22.1989 19.1895 23.5293 19.6906 24.2327 20.6961C24.2797 20.7634 24.3235 20.8333 24.3662 20.9045C24.2896 20.9373 24.2127 20.9678 24.135 20.9947C22.9703 21.3979 21.5973 21.0277 20.615 20.1663C20.5153 19.9666 20.4029 19.7728 20.2783 19.5863ZM11.8958 19.7852L10.0433 18.3752C10.9775 17.9306 11.9215 17.4665 11.9765 17.4395C12.1476 17.3552 12.2774 17.2062 12.3365 17.0258C12.3956 16.8455 12.3789 16.6492 12.2903 16.4812C12.2618 16.4273 11.7732 15.5013 11.2807 14.5967L13.6147 14.5363H13.6146C13.8314 14.5307 14.0501 14.5256 14.2682 14.5248C14.258 14.636 14.251 14.7481 14.2485 14.8609C14.2234 16.0177 14.6997 17.1455 15.4852 18.0409C14.3194 18.3071 13.2659 18.9418 12.601 19.8923C12.536 19.985 12.4753 20.0799 12.4176 20.1759C12.2416 20.0482 12.0679 19.9162 11.8958 19.7852ZM15.4667 27.38C15.3292 26.3609 15.176 25.3267 15.1671 25.2665C15.1393 25.0789 15.0364 24.9103 14.8819 24.7989C14.7597 24.7108 14.6134 24.6642 14.4644 24.6642C14.4248 24.6642 14.3851 24.6675 14.3456 24.6742C14.2851 24.6845 13.2464 24.8595 12.2273 25.0446L12.8908 22.8235C12.9524 22.6172 13.0151 22.4093 13.0816 22.2031C13.1852 22.2472 13.2904 22.2884 13.3978 22.3256C13.8571 22.4847 14.3384 22.5599 14.8237 22.5599C15.5015 22.5598 16.1863 22.4126 16.8278 22.1418C16.7229 23.3241 17.0056 24.5142 17.7112 25.4352C17.78 25.525 17.8523 25.6113 17.9265 25.6953C17.7494 25.8219 17.5694 25.9454 17.3906 26.0674L15.4667 27.38ZM25.11 22.8235L25.7734 25.0446C24.7543 24.8595 23.7157 24.6845 23.6552 24.6742C23.4667 24.6421 23.2734 24.6874 23.1189 24.7989C22.9643 24.9103 22.8614 25.0788 22.8336 25.2665C22.8247 25.3268 22.6715 26.3609 22.5341 27.38L20.6103 26.0675C20.4315 25.9455 20.2513 25.8221 20.0743 25.6954C20.1485 25.6113 20.2208 25.525 20.2896 25.4352C20.9951 24.5142 21.2779 23.3242 21.173 22.1419C21.8145 22.4126 22.4993 22.5599 23.177 22.5599C23.6622 22.5599 24.1437 22.4846 24.603 22.3256C24.7104 22.2884 24.8156 22.2471 24.9191 22.2031C24.9857 22.4093 25.0484 22.6172 25.11 22.8235ZM26.1049 19.7852C26.1049 19.7853 26.1049 19.7853 26.1049 19.7852C25.9328 19.9162 25.759 20.0482 25.5831 20.176C25.5254 20.0799 25.4647 19.9851 25.3997 19.8924C24.7348 18.9418 23.6813 18.3072 22.5154 18.041C23.3009 17.1456 23.7774 16.0177 23.7522 14.8609C23.7498 14.748 23.7428 14.636 23.7325 14.5247C23.9506 14.5255 24.1693 14.5307 24.386 14.5363L26.72 14.5967C26.2276 15.5012 25.7388 16.4273 25.7104 16.4812C25.6218 16.6492 25.6052 16.8455 25.6643 17.0258C25.7232 17.2062 25.8531 17.3553 26.0243 17.4395C26.0793 17.4665 27.0231 17.9306 27.9574 18.3752L26.1049 19.7852Z" fill="#F36249"/>
</svg>
