<?xml version="1.0" encoding="UTF-8"?>
<svg xmlns="http://www.w3.org/2000/svg" xmlns:xlink="http://www.w3.org/1999/xlink" viewBox="87.6179 43.2837 85.9463 47.6886" width="260" height="260">
<defs>
<linearGradient id="SVGID_37_" gradientUnits="userSpaceOnUse" x1="150.7968" y1="77.4892" x2="175.9876" y2="77.4892" gradientTransform="matrix(0.9991 0.0428 -0.0428 0.9991 0.828 -3.2776)">
			<stop offset="0" style="stop-color:#C4A04F"/>
			<stop offset="0.3966" style="stop-color:#C9A94F"/>
			<stop offset="1" style="stop-color:#D4BE4F"/>
		</linearGradient>
<linearGradient id="SVGID_38_" gradientUnits="userSpaceOnUse" x1="87.6659" y1="67.1111" x2="172.4067" y2="67.1111">
			<stop offset="0" style="stop-color:#C4A04F"/>
			<stop offset="0.3966" style="stop-color:#C9A94F"/>
			<stop offset="1" style="stop-color:#D4BE4F"/>
		</linearGradient>
</defs>
<path fill="url(#SVGID_37_)" d="M173.5,77.85c-1.74-0.47-2.36-0.96-3.04-1.5c0,0-4.3,3.91-10.17,4.93c-4.71,0.81-7.77-0.14-9.5-1.06    c-0.18-0.09-0.34-0.19-0.49-0.28c-0.08-0.06-0.17-0.12-0.25-0.16c-0.02-0.01-0.04-0.03-0.06-0.04c-0.04-0.03-0.08-0.04-0.12-0.04    c-0.64-0.25-1.21,0.02-1.21,0.02c-0.95,0.4-0.32,1.18,0.19,0.78c0.23-0.18,0.45-0.23,0.64-0.24c0.17,0,0.33,0.09,0.43,0.23l0,0    c-0.24,0.37-0.32,0.83-0.24,1.09c0.08-0.28,0.2-0.55,0.45-0.81c0.06,0.05,0.04,0.03,0.11,0.08c-0.56,1.05-0.04,2.21-0.03,2.12    c0,0-0.1-0.64,0.06-1.13c0.08-0.25,0.19-0.44,0.28-0.57c0.03,0.04,0.07,0.07,0.1,0.11c-0.76,1.4-0.05,2.47,0.14,2.62    c0,0-0.17-0.96,0.03-1.55c0.09-0.26,0.2-0.46,0.3-0.62c0.1,0.09,0.21,0.18,0.33,0.27c-0.07,0.48,0.02,0.97,0.2,1.22    c-0.02-0.31,0.01-0.63,0.13-0.97c0.07,0.05,0.14,0.1,0.21,0.15c-0.08,1.35,0.88,2.39,0.86,2.28c0,0-0.38-0.73-0.39-1.39    c0-0.21,0.02-0.4,0.05-0.57c0.06,0.03,0.13,0.07,0.19,0.1c-0.2,1.84,1,2.76,1.28,2.86c0,0-0.6-1.09-0.6-1.89    c0-0.24,0.02-0.45,0.06-0.63c0.23,0.09,0.48,0.18,0.73,0.26c0.07,0.24,0.18,0.45,0.3,0.57c-0.04-0.16-0.06-0.33-0.06-0.5    c0.12,0.03,0.24,0.06,0.36,0.09c0.29,1.09,1.15,1.76,1.12,1.67c0,0-0.49-0.67-0.59-1.31c-0.01-0.09-0.02-0.17-0.03-0.25    c0.07,0.01,0.15,0.03,0.22,0.04c0.2,1.64,1.4,2.3,1.68,2.35c0,0-0.76-0.99-0.88-1.78c-0.03-0.17-0.04-0.33-0.04-0.47    c0.18,0.02,0.36,0.03,0.54,0.04c0.08,0.18,0.19,0.34,0.3,0.43c-0.04-0.14-0.08-0.28-0.09-0.43c0.12,0,0.24,0.01,0.36,0.01    c0.38,1.05,1.28,1.64,1.25,1.55c0,0-0.54-0.62-0.7-1.26c-0.03-0.1-0.04-0.2-0.06-0.29c0.07,0,0.14-0.01,0.22-0.01    c0.31,1.68,1.59,2.25,1.88,2.28c0,0-0.84-0.92-1.03-1.7c-0.06-0.23-0.08-0.44-0.09-0.63c0.17-0.01,0.34-0.03,0.52-0.05    c0.26,0.47,0.64,0.83,0.95,0.96c-0.22-0.29-0.4-0.62-0.51-1.02c0.11-0.02,0.21-0.03,0.32-0.05c0.85,1.44,2.53,1.84,2.44,1.74    c0,0-0.9-0.5-1.35-1.17c-0.17-0.25-0.29-0.49-0.37-0.7c0.08-0.02,0.17-0.03,0.25-0.05c1.04,2.14,2.97,2.29,3.34,2.19    c0,0-1.37-0.72-1.92-1.55c-0.21-0.32-0.36-0.62-0.45-0.88c0.18-0.05,0.36-0.1,0.54-0.16c0.41,0.51,0.94,0.86,1.34,0.95    c-0.33-0.3-0.61-0.66-0.82-1.12c0.24-0.08,0.47-0.17,0.7-0.27c1.35,1.51,3.63,1.52,3.5,1.42c0,0-1.41-0.24-2.09-0.95    c-0.28-0.29-0.48-0.57-0.62-0.82c0.14-0.07,0.28-0.14,0.41-0.21c1.6,2.1,3.48,1.37,3.48,1.37s-0.9-0.12-1.73-0.99    c-0.33-0.35-0.56-0.68-0.73-0.98c0.13-0.09,0.26-0.17,0.39-0.26c0.54,0.53,1.25,0.85,1.72,0.85c-0.47-0.28-0.89-0.65-1.22-1.22    c0.08-0.06,0.16-0.12,0.23-0.19c1.61,1.38,3.82,1.07,3.67,0.99c0,0-1.23-0.16-2.04-0.71c-0.44-0.3-0.75-0.63-0.95-0.88    c0.06-0.06,0.13-0.12,0.19-0.19c0.89,0.65,2.24,0.94,3.66,0.52c-0.8-0.1-2.19-0.66-2.83-1.46c0.04-0.05,0.03-0.04,0.07-0.08    c0.91,0.57,1.83,0.36,2.35,0.22c-0.56-0.16-1.29-0.4-1.83-0.93c0.02-0.04,0.02-0.03,0.05-0.08c2.33,0.78,2.77,0.23,2.77,0.23    c-0.91-0.21-1.73-0.5-2.33-0.96c0.01-0.02,0.02-0.03,0.03-0.05C170.46,77.64,171.99,78.22,173.5,77.85z"/>
<path fill="url(#SVGID_38_)" d="M132.45,87.27c0,1.1,0.36,1.93,0.97,2.54c0.73,0.73,1.75,1.1,3.02,1.1c1.25,0,2.38-0.32,3.44-0.94    c0.36-0.21,0.71-0.46,1.05-0.73c1.31-1.1,2.32-2.41,3.1-4c0.77-1.59,1.14-3.06,1.14-4.45c0-1.5-0.16-2.88-0.44-4.14    c2.25-1.43,8.13-4.65,11.61-5.38c5.79-1.2,10.21-1.28,14.12-0.6c2.47,0.43,2.62-2.2,0.3-2.61c-3.23-0.57-11.63-0.02-17.51,2.4    c-1.88,0.77-7.34,3.86-8.79,5.11c-0.32-1.24-0.68-2.44-1.08-3.6c-0.41-1.14-0.78-2.28-1.06-3.39c-0.29-1.1-0.37-2.21-0.45-3.39    c-0.02-0.36-0.03-0.04-0.02-0.36c5.17-1.63,8.31-5.73,7.09-7.64c-0.07-0.11-0.16-0.21-0.26-0.29c-0.62-0.49-1.53-0.74-2.47-0.74    c-1.39,0-2.66,0.55-3.8,1.41c-1.18,0.86-2.08,2-2.73,3.34c-0.56,1.08-0.87,2.22-0.98,3.41c-1.35,1.53-2.68,3.08-4.04,4.63    c-3.43,3.96-6.48,7.42-9.22,10.36c-2.69,2.94-4.49,4.4-5.3,4.4c-0.57,0-0.86-0.45-0.86-1.31c0-2.98,3.92-12.89,11.79-29.69    c4.77-0.04,8.44-0.94,11.01-2.69c0.16-0.12,0.24-0.24,0.24-0.41c0-0.24-0.16-0.41-0.41-0.45c-0.12,0-0.24,0.04-0.37,0.08    c-2.61,1.67-6,2.49-10.07,2.53c1.35-2.9,2.04-4.45,2.04-4.65c0-0.29-0.2-0.45-0.61-0.57c-0.29-0.08-0.57-0.16-0.86-0.16    c-0.9,0-1.47,0.29-1.75,0.86c-0.29,0.77-0.98,2.28-2.12,4.53c-2.2-0.04-4.49-0.16-6.77-0.33c-2.32-0.16-4.53-0.29-6.73-0.37    c1.55-3.26,2.57-5.59,3.06-6.97l0.04-0.12c0-0.45-0.49-0.69-1.43-0.69c-0.94,0-1.51,0.29-1.75,0.86s-1.35,2.9-3.26,6.97    c-3.92,0.04-7.18,0.86-9.79,2.49c-0.12,0.12-0.2,0.24-0.2,0.41c0,0.08,0.04,0.16,0.12,0.29c0.08,0.12,0.2,0.16,0.33,0.16    c0.08,0,0.16-0.04,0.24-0.08c2.32-1.47,5.3-2.24,8.89-2.32c-1.54,3.26-2.92,6.27-4.14,9.04c-5.13,6.56-9.14,11.35-12.03,14.4    c-1.87,1.99-3.17,2.97-3.9,2.97c-0.49,0-0.73-0.37-0.73-1.1c0-1.18,0.58-3.3,1.73-6.33c0.42-1.12-0.49-2.28-1.68-2.13    c-0.01,0-0.02,0-0.04,0c-0.6,0.08-1.11,0.5-1.3,1.08c-0.76,2.32-1.15,4.26-1.15,5.8c0,0.73,0.08,1.34,0.24,1.91    c0.37,1.14,1.26,1.71,2.64,1.71c1.1,0,2.64-1.02,4.71-3.09c2.03-2.07,4.23-4.51,6.5-7.35c1.21-1.47,2.37-2.9,3.47-4.3    c-0.06,0.15-0.13,0.31-0.19,0.45l-1.28,3.17c-0.4,1.02-0.76,1.99-1.1,2.91c-1.71,4.73-2.57,8.28-2.57,10.65    c0,2.16,0.73,3.22,2.2,3.22c1.18,0,2.61-0.73,4.28-2.16c1.71-1.43,3.51-3.26,5.47-5.47c1.92-2.2,3.87-4.53,5.83-6.93    c1.22-1.47,2.45-2.9,3.59-4.24c-3.1,7.26-4.65,12.44-4.65,15.5c0,0.65,0.04,1.18,0.16,1.67c0.29,1.1,1.02,1.63,2.16,1.63    c1.14,0,2.57-0.73,4.24-2.2c1.71-1.43,3.51-3.26,5.47-5.47c1.96-2.2,4.06-4.16,6.02-6.57c1.36-1.64,2.58-2.86,3.83-4.31    c0.05,1.23,0.2,1.79,0.51,2.97c0.37,1.43,0.82,2.77,1.31,4.12c0.45,1.35,0.86,2.69,1.18,4c-2.37,1.59-4.36,3.02-5.95,4.36    c-1.67,1.43-2.57,2.41-3.18,4.32C132.57,86.3,132.42,86.67,132.45,87.27z M142.45,60.78c0.49-1.18,0.99-1.81,1.72-2.51    c1.3-1.03,2.32-1.06,2.86-0.96c0.28,0.05,0.52,0.27,0.56,0.56c0.13,0.84-0.28,2.8-5.73,5.16    C141.94,62.22,142.45,60.78,142.45,60.78z M117.92,68.84c-3.43,4-6.53,7.46-9.26,10.44c-2.73,2.98-4.53,4.45-5.38,4.45    c-0.53,0-0.77-0.41-0.77-1.22c0-3.02,3.92-13.17,11.75-30.47c2.37,0.04,4.73,0.16,7.1,0.33c2.16,0.16,4.28,0.29,6.36,0.37    c-0.86,1.84-2.49,5.34-4.94,10.56L117.92,68.84z M141.91,78.61c0.12,0.73,0.2,1.45,0.2,2.18c0,1.35-0.24,2.69-0.73,4.12    c-0.49,1.43-1.14,2.61-2,3.59c-0.86,0.98-1.84,1.47-2.94,1.47c-1.1,0-1.92-0.24-2.37-0.78c-0.49-0.53-0.69-1.1-0.69-1.75    c0-0.24,0.04-0.53,0.08-0.82v-0.04c0.29-1.18,1.26-2.49,2.9-3.92c1.2-1,2.66-2.09,4.37-3.28L141.91,78.61z"/>
</svg>