<svg width="17" height="17" viewBox="0 0 17 17" fill="none" xmlns="http://www.w3.org/2000/svg">
<path d="M5.73534 4.20872C5.14466 3.53766 4.91547 2.61658 5.36401 1.81035C5.81762 0.995026 7.12337 0.558755 7.9903 0.913059C9.2127 1.41268 8.70896 3.29959 8.23207 4.15447C8.47649 4.25748 8.72091 4.3606 8.96533 4.46361C9.26919 3.73755 9.59229 2.96824 10.1634 2.4078C10.6315 1.94847 11.3754 1.63637 12.028 1.86333C12.7143 2.10204 12.9121 2.88828 12.7281 3.53227C12.5162 4.27408 11.8508 4.77148 11.2002 5.11617C11.3351 5.34715 11.4702 5.57803 11.6052 5.80902C12.3377 5.40162 13.1297 4.9388 13.9916 4.92061C14.6732 4.90633 15.4468 5.18681 15.6734 5.89098C15.8888 6.56025 15.5731 7.32015 15.0312 7.73569C14.4052 8.21585 13.588 8.29634 12.8288 8.19999C12.8644 8.4627 12.8999 8.72542 12.9354 8.98802C14.0672 8.81563 15.3618 9.62524 15.4559 10.8224C15.5054 11.4535 15.1629 11.9523 14.5348 12.0807C13.8325 12.2244 13.1332 11.8985 12.5101 11.6153C12.0385 11.4009 11.6845 12.0035 12.1051 12.3081C12.7104 12.7465 13.3483 13.2482 13.271 14.0762C13.205 14.7837 12.8069 15.6426 12.1218 15.9393C11.4682 16.2223 10.6705 16.0246 10.1344 15.5883C9.5301 15.0967 9.20837 14.3573 9.03788 13.6156C8.94978 13.2324 8.35328 13.2339 8.26412 13.6156C8.06942 14.4491 7.63304 15.2437 6.91047 15.7319C6.16992 16.2323 5.1582 16.3748 4.35007 15.9477C3.64209 15.5735 3.16785 14.781 3.17779 13.9798C3.18858 13.1124 3.73833 12.3591 4.50395 11.9898C4.93429 11.7823 4.61712 11.1709 4.19481 11.2564C2.91476 11.516 0.860747 11.4302 0.803635 9.71102C0.757312 8.31834 2.23693 7.61068 3.44431 7.99185C3.94182 8.1489 4.13759 7.39112 3.65764 7.21809C2.71836 6.87954 1.69871 5.8527 2.31054 4.79243C2.6015 4.28815 3.19831 4.19667 3.73241 4.22427C4.10586 4.24352 4.96465 4.28181 5.03022 4.75975C5.10013 5.2691 5.87336 5.05229 5.80398 4.54642C5.68923 3.70995 4.66439 3.51788 3.97831 3.44258C3.15749 3.35237 2.25724 3.51027 1.73657 4.21073C1.26508 4.84499 1.23039 5.73065 1.56121 6.43534C1.92546 7.21132 2.65945 7.70893 3.44431 7.99185C3.51539 7.73389 3.58657 7.47594 3.65764 7.21798C1.95719 6.68103 -0.0566339 7.80687 0.00121822 9.7108C0.0268127 10.5534 0.449335 11.3631 1.20533 11.769C2.15994 12.2816 3.37747 12.2389 4.40813 12.03C4.30511 11.7855 4.202 11.5411 4.09898 11.2966C3.11539 11.7711 2.44423 12.7705 2.3795 13.8619C2.31541 14.9423 2.92301 16.0272 3.84304 16.582C4.84345 17.1852 6.16432 17.1085 7.15552 16.5257C8.13996 15.9469 8.78193 14.9247 9.03798 13.8286C8.78003 13.8286 8.52218 13.8286 8.26423 13.8286C8.49299 14.824 8.9905 15.7776 9.84633 16.3701C10.6419 16.9211 11.7701 17.0511 12.6324 16.5788C13.5143 16.0958 14.0428 14.9683 14.0808 13.991C14.1236 12.897 13.3205 12.2018 12.5102 11.615C12.3752 11.8459 12.2402 12.0768 12.1052 12.3078C12.9649 12.6985 13.9089 13.1003 14.8662 12.8248C15.727 12.5772 16.2703 11.8284 16.2627 10.9364C16.2472 9.12054 14.398 7.95864 12.7222 8.21395C12.2336 8.28841 12.4255 8.9508 12.8288 9.00198C13.8207 9.12784 14.8816 8.92636 15.6544 8.26006C16.3655 7.64685 16.7292 6.58838 16.4471 5.67724C16.1628 4.75911 15.3034 4.24098 14.3855 4.13786C13.2352 4.00873 12.1723 4.57498 11.2001 5.11564C10.7476 5.36725 11.1493 6.04994 11.6051 5.80849C12.4708 5.34979 13.304 4.62945 13.5304 3.63338C13.7405 2.70848 13.4235 1.65223 12.5335 1.20793C11.71 0.796827 10.6752 1.00613 9.95495 1.53441C9.05565 2.19416 8.60827 3.25369 8.19135 4.24976C8.0142 4.67292 8.70737 4.94853 8.92461 4.5589C9.73369 3.10848 9.99514 0.415342 7.83621 0.0433751C6.62777 -0.164765 5.17639 0.384564 4.615 1.51093C4.05552 2.6335 4.36022 3.85823 5.16761 4.77561C5.50975 5.1645 6.07547 4.59529 5.73534 4.20872Z" fill="#F36249"/>
<path d="M9.84948 3.70178C7.12356 2.98186 4.13926 4.27681 3.24599 7.01934C1.59324 12.0933 6.93467 16.1097 11.3413 13.0333C14.7732 10.6374 14.3194 4.88241 9.84948 3.70178Z" fill="#F36249"/>
</svg>
