<svg version="1.2" xmlns="http://www.w3.org/2000/svg" viewBox="0 0 96 96" width="96" height="96">
	<style>
		.s0 { fill: #fdefec } 
		.s1 { fill: #f36249 } 
	</style>
	<path fill-rule="evenodd" class="s0" d="m48 96c-26.54 0-48-21.46-48-48 0-26.54 21.46-48 48-48 26.54 0 48 21.46 48 48 0 26.54-21.46 48-48 48z"/>
	<path class="s1" d="m75.84 45.86c-0.07-0.62-0.46-1.16-1.03-1.42-1.71-0.78-4.19-1.98-5.82-2.77 0.85-1.59 2.15-4 3.07-5.62 0.31-0.55 0.31-1.21-0.01-1.76-0.31-0.54-0.88-0.88-1.51-0.9l-8.84-0.23q-1.2-0.04-2.49-0.02-0.39-1.23-0.8-2.35l-2.95-8.27c-0.21-0.59-0.72-1.03-1.33-1.15-0.62-0.13-1.26 0.08-1.68 0.54-1.27 1.37-3.19 3.34-4.45 4.63-1.26-1.29-3.18-3.26-4.45-4.63-0.42-0.46-1.06-0.67-1.68-0.54-0.61 0.12-1.12 0.56-1.33 1.15l-2.95 8.27q-0.41 1.12-0.79 2.35-1.3-0.02-2.5 0.02l-8.84 0.23c-0.63 0.02-1.2 0.36-1.51 0.9-0.31 0.55-0.31 1.21-0.01 1.76 0.92 1.62 2.22 4.03 3.07 5.62-1.63 0.79-4.11 1.99-5.81 2.77-0.58 0.26-0.97 0.8-1.04 1.42-0.07 0.62 0.19 1.23 0.69 1.61l7.02 5.34q0.95 0.73 2 1.48-0.41 1.21-0.75 2.36l-2.51 8.41c-0.18 0.6-0.03 1.25 0.4 1.71 0.42 0.46 1.06 0.67 1.68 0.54 1.83-0.36 4.55-0.84 6.34-1.15 0.25 1.78 0.63 4.49 0.85 6.34 0.07 0.62 0.47 1.16 1.04 1.41q0.36 0.16 0.74 0.16 0.55 0 1.02-0.31l7.29-4.97q0.99-0.67 2.03-1.43 1.04 0.76 2.03 1.43l7.29 4.97q0.47 0.31 1.02 0.31 0.38 0 0.74-0.16c0.57-0.25 0.97-0.79 1.04-1.41 0.22-1.85 0.6-4.56 0.85-6.34 1.79 0.31 4.51 0.79 6.34 1.15 0.62 0.13 1.26-0.08 1.68-0.54 0.43-0.46 0.58-1.11 0.4-1.71l-2.51-8.41q-0.34-1.15-0.75-2.36 1.05-0.75 2-1.48l7.02-5.34c0.5-0.38 0.76-0.99 0.69-1.61zm-34.86-13.88l1.96-5.52c1.81 1.88 3.67 3.77 3.78 3.88 0.34 0.34 0.8 0.54 1.28 0.54 0.48 0 0.95-0.2 1.28-0.54 0.11-0.11 1.97-2 3.78-3.88l1.97 5.52q0.27 0.77 0.54 1.55-0.42 0.09-0.83 0.21c-2.83 0.85-5.18 2.86-6.74 5.44-1.55-2.58-3.91-4.59-6.73-5.44q-0.42-0.12-0.83-0.21 0.26-0.78 0.54-1.55zm15.44 5.64c0.06 3.09-1.9 6.08-4.76 7.75q-0.84 0.12-1.66 0.35-0.04-0.85-0.18-1.69c0.71-3.2 2.97-5.98 5.95-6.88q0.3-0.08 0.61-0.15 0.03 0.31 0.04 0.62zm-8.02 24.48q-0.19 0.25-0.4 0.48-0.21-0.23-0.4-0.48c-1.88-2.46-2.06-6.02-0.74-9.04q0.61-0.59 1.14-1.25 0.53 0.66 1.14 1.25c1.32 3.02 1.15 6.58-0.74 9.04zm-8.78-25.1q0.31 0.07 0.61 0.15c2.98 0.9 5.24 3.68 5.96 6.88q-0.15 0.84-0.18 1.68-0.83-0.22-1.67-0.34c-2.85-1.67-4.82-4.66-4.76-7.75q0.01-0.31 0.04-0.62zm3.6 11.79q0.75 0.39 1.55 0.69-0.47 0.71-0.85 1.47c-2.48 2.17-5.95 3.11-8.89 2.09q-0.3-0.1-0.58-0.23 0.16-0.27 0.33-0.52c1.78-2.55 5.14-3.81 8.44-3.5zm8.01 0.69q0.8-0.3 1.55-0.69c3.3-0.31 6.66 0.95 8.44 3.49q0.18 0.26 0.34 0.53-0.29 0.13-0.59 0.23c-2.94 1.02-6.41 0.08-8.89-2.09q-0.38-0.76-0.85-1.47zm-21.18 0.5l-4.68-3.56c2.36-1.12 4.75-2.29 4.89-2.36 0.43-0.22 0.76-0.59 0.91-1.05 0.15-0.45 0.1-0.95-0.12-1.37-0.07-0.14-1.31-2.48-2.55-4.76l5.9-0.16h-0.01q0.83-0.02 1.66-0.03-0.04 0.43-0.05 0.85c-0.07 2.93 1.14 5.77 3.12 8.04-2.94 0.67-5.61 2.27-7.29 4.67q-0.24 0.36-0.46 0.72-0.67-0.49-1.32-0.99zm9.02 19.19c-0.34-2.57-0.73-5.19-0.75-5.34-0.07-0.47-0.33-0.9-0.72-1.18q-0.48-0.34-1.06-0.34-0.15 0-0.3 0.02c-0.15 0.03-2.78 0.47-5.35 0.94l1.68-5.61q0.23-0.78 0.48-1.57 0.39 0.17 0.8 0.31 1.75 0.6 3.6 0.59c1.71 0 3.44-0.37 5.06-1.05-0.26 2.98 0.45 5.99 2.23 8.32q0.27 0.34 0.55 0.65-0.68 0.48-1.36 0.94zm24.37-11.51l1.67 5.61c-2.57-0.46-5.2-0.91-5.35-0.93-0.48-0.08-0.96 0.03-1.35 0.31-0.39 0.29-0.65 0.71-0.72 1.19-0.03 0.15-0.41 2.76-0.76 5.33l-4.86-3.31q-0.68-0.46-1.36-0.94 0.29-0.32 0.55-0.66c1.78-2.33 2.5-5.33 2.23-8.32 1.62 0.69 3.35 1.06 5.06 1.06q1.85 0 3.61-0.59 0.4-0.15 0.79-0.31 0.25 0.78 0.49 1.56zm2.51-7.67q0 0 0 0-0.65 0.5-1.32 0.98-0.22-0.36-0.46-0.71c-1.68-2.4-4.34-4.01-7.29-4.68 1.99-2.26 3.19-5.11 3.13-8.03q-0.01-0.43-0.05-0.85 0.82 0 1.65 0.03l5.89 0.15c-1.24 2.28-2.48 4.62-2.55 4.76-0.22 0.43-0.26 0.92-0.11 1.38 0.15 0.45 0.47 0.83 0.91 1.04 0.13 0.07 2.52 1.24 4.88 2.37z"/>
</svg>