<?xml version='1.0' encoding='utf-8'?>
<!-- Generator: Adobe Illustrator 25.0.0, SVG Export Plug-In . SVG Version: 6.00 Build 0)  -->
<svg xmlns="http://www.w3.org/2000/svg" xmlns:xlink="http://www.w3.org/1999/xlink" version="1.1" id="Capa_1" viewBox="77.2972 15.6136 106.7656 106.7656" xml:space="preserve" width="260" height="260">
<style type="text/css">
	.st0{clip-path:url(#SVGID_2_);fill:url(#SVGID_3_);}
	.st1{clip-path:url(#SVGID_5_);fill:url(#SVGID_6_);}
	.st2{clip-path:url(#SVGID_8_);fill:url(#SVGID_9_);}
	.st3{clip-path:url(#SVGID_11_);fill:url(#SVGID_12_);}
	.st4{clip-path:url(#SVGID_14_);fill:url(#SVGID_15_);}
	.st5{clip-path:url(#SVGID_17_);fill:url(#SVGID_18_);}
	.st6{clip-path:url(#SVGID_20_);fill:url(#SVGID_21_);}
	.st7{clip-path:url(#SVGID_23_);fill:url(#SVGID_24_);}
	.st8{clip-path:url(#SVGID_26_);fill:url(#SVGID_27_);}
	.st9{clip-path:url(#SVGID_29_);fill:url(#SVGID_30_);}
	.st10{clip-path:url(#SVGID_32_);fill:url(#SVGID_33_);}
	.st11{clip-path:url(#SVGID_35_);fill:url(#SVGID_36_);}
	.st12{fill:url(#SVGID_37_);}
	.st13{fill:url(#SVGID_38_);}
	.st14{fill:url(#SVGID_39_);}
	.st15{clip-path:url(#SVGID_41_);fill:url(#SVGID_42_);}
	.st16{clip-path:url(#SVGID_44_);fill:url(#SVGID_45_);}
	.st17{clip-path:url(#SVGID_47_);fill:url(#SVGID_48_);}
	.st18{clip-path:url(#SVGID_50_);fill:url(#SVGID_51_);}
	.st19{clip-path:url(#SVGID_53_);fill:url(#SVGID_54_);}
	.st20{clip-path:url(#SVGID_56_);fill:url(#SVGID_57_);}
	.st21{clip-path:url(#SVGID_59_);fill:url(#SVGID_60_);}
	.st22{clip-path:url(#SVGID_62_);fill:url(#SVGID_63_);}
	.st23{clip-path:url(#SVGID_65_);fill:url(#SVGID_66_);}
	.st24{clip-path:url(#SVGID_68_);fill:url(#SVGID_69_);}
	.st25{clip-path:url(#SVGID_71_);fill:url(#SVGID_72_);}
	.st26{clip-path:url(#SVGID_74_);fill:url(#SVGID_75_);}
	.st27{fill:url(#SVGID_76_);}
	.st28{fill:url(#SVGID_77_);}
	.st29{fill:url(#SVGID_78_);}
	.st30{clip-path:url(#SVGID_80_);fill:url(#SVGID_81_);}
	.st31{fill:url(#SVGID_82_);}
	.st32{fill:url(#SVGID_83_);}
</style>
<g>
	<g>
		<g>
			<defs>
				<path id="SVGID_1_" d="M88.99,131.98h2.81c0.61,0,1.1,0.15,1.46,0.46c0.36,0.31,0.54,0.73,0.54,1.25c0,0.54-0.18,0.96-0.53,1.26      c-0.35,0.3-0.84,0.46-1.47,0.46h-2.81V131.98z M88.99,128.22h2.79c0.54,0,0.97,0.15,1.29,0.44c0.32,0.3,0.48,0.7,0.48,1.2      c0,0.51-0.16,0.9-0.47,1.19c-0.31,0.29-0.74,0.43-1.3,0.43h-2.79V128.22z M88.52,127.73v8.17h3.26c0.78,0,1.39-0.19,1.83-0.58      c0.44-0.39,0.66-0.92,0.66-1.6c0-0.47-0.12-0.89-0.37-1.24c-0.25-0.35-0.6-0.6-1.04-0.76c0.35-0.13,0.63-0.37,0.83-0.71      c0.21-0.34,0.31-0.73,0.31-1.17c0-0.64-0.2-1.15-0.61-1.54c-0.41-0.38-0.94-0.58-1.61-0.58H88.52z"/>
			</defs>
			<clipPath id="SVGID_2_">
				<use xlink:href="#SVGID_1_" style="overflow:visible;"/>
			</clipPath>
			
				<linearGradient id="SVGID_3_" gradientUnits="userSpaceOnUse" x1="-145.8102" y1="363.3299" x2="-145.4992" y2="363.3299" gradientTransform="matrix(18.4932 0 0 -18.4932 2785.0164 6850.9468)">
				<stop offset="0" style="stop-color:#C4A04F"/>
				<stop offset="0.3966" style="stop-color:#C9A94F"/>
				<stop offset="1" style="stop-color:#D4BE4F"/>
			</linearGradient>
			<rect x="88.52" y="127.73" class="st0" width="5.75" height="8.17"/>
		</g>
		<g>
			<defs>
				<polygon id="SVGID_4_" points="95.95,127.73 95.95,135.9 101.22,135.9 101.22,135.41 96.42,135.41 96.42,132.01 100.86,132.01       100.86,131.52 96.42,131.52 96.42,128.22 101.08,128.22 101.08,127.73     "/>
			</defs>
			<clipPath id="SVGID_5_">
				<use xlink:href="#SVGID_4_" style="overflow:visible;"/>
			</clipPath>
			
				<linearGradient id="SVGID_6_" gradientUnits="userSpaceOnUse" x1="-146.3078" y1="363.7251" x2="-145.9968" y2="363.7251" gradientTransform="matrix(16.9464 0 0 -16.9464 2575.3384 6295.6465)">
				<stop offset="0" style="stop-color:#C4A04F"/>
				<stop offset="0.3966" style="stop-color:#C9A94F"/>
				<stop offset="1" style="stop-color:#D4BE4F"/>
			</linearGradient>
			<rect x="95.95" y="127.73" class="st1" width="5.27" height="8.17"/>
		</g>
		<g>
			<defs>
				<path id="SVGID_7_" d="M105.78,128.28l2.08,5.07h-4.17L105.78,128.28z M105.51,127.73l-3.36,8.17h0.51l0.84-2.06h4.55l0.84,2.06      h0.51l-3.36-8.17H105.51z"/>
			</defs>
			<clipPath id="SVGID_8_">
				<use xlink:href="#SVGID_7_" style="overflow:visible;"/>
			</clipPath>
			
				<linearGradient id="SVGID_9_" gradientUnits="userSpaceOnUse" x1="-148.1857" y1="362.4259" x2="-147.8747" y2="362.4259" gradientTransform="matrix(23.373 0 0 -23.373 3565.6914 8602.79)">
				<stop offset="0" style="stop-color:#C4A04F"/>
				<stop offset="0.3966" style="stop-color:#C9A94F"/>
				<stop offset="1" style="stop-color:#D4BE4F"/>
			</linearGradient>
			<rect x="102.15" y="127.73" class="st2" width="7.27" height="8.17"/>
		</g>
		<g>
			<defs>
				<path id="SVGID_10_" d="M115.79,127.73v5.04c0,0.54-0.1,1.03-0.31,1.44c-0.21,0.42-0.5,0.74-0.87,0.97      c-0.37,0.23-0.79,0.35-1.27,0.35c-0.48,0-0.9-0.12-1.27-0.35c-0.37-0.23-0.66-0.56-0.87-0.97c-0.21-0.42-0.31-0.9-0.31-1.44      v-5.04h-0.47v5.04c0,0.64,0.12,1.2,0.37,1.7c0.25,0.49,0.59,0.88,1.03,1.15c0.44,0.27,0.95,0.41,1.52,0.41      c0.57,0,1.08-0.14,1.52-0.41c0.44-0.27,0.79-0.66,1.03-1.15c0.25-0.49,0.37-1.06,0.37-1.7v-5.04H115.79z"/>
			</defs>
			<clipPath id="SVGID_11_">
				<use xlink:href="#SVGID_10_" style="overflow:visible;"/>
			</clipPath>
			
				<linearGradient id="SVGID_12_" gradientUnits="userSpaceOnUse" x1="-148.4718" y1="363.274" x2="-148.1608" y2="363.274" gradientTransform="matrix(18.7681 0 0 -18.7681 2896.957 6949.8428)">
				<stop offset="0" style="stop-color:#C4A04F"/>
				<stop offset="0.3966" style="stop-color:#C9A94F"/>
				<stop offset="1" style="stop-color:#D4BE4F"/>
			</linearGradient>
			<rect x="110.42" y="127.73" class="st3" width="5.84" height="8.3"/>
		</g>
		<g>
			<defs>
				<polygon id="SVGID_13_" points="117.41,127.73 117.41,128.23 120.17,128.23 120.17,135.9 120.63,135.9 120.63,128.23       123.39,128.23 123.39,127.73     "/>
			</defs>
			<clipPath id="SVGID_14_">
				<use xlink:href="#SVGID_13_" style="overflow:visible;"/>
			</clipPath>
			
				<linearGradient id="SVGID_15_" gradientUnits="userSpaceOnUse" x1="-149.3368" y1="363.1672" x2="-149.0258" y2="363.1672" gradientTransform="matrix(19.2153 0 0 -19.2153 2986.9658 7110.1821)">
				<stop offset="0" style="stop-color:#C4A04F"/>
				<stop offset="0.3966" style="stop-color:#C9A94F"/>
				<stop offset="1" style="stop-color:#D4BE4F"/>
			</linearGradient>
			<rect x="117.41" y="127.73" class="st4" width="5.98" height="8.17"/>
		</g>
		<g>
			<defs>
				<polygon id="SVGID_16_" points="129.66,127.73 127.05,132.14 124.43,127.73 123.87,127.73 126.81,132.64 126.81,135.9       127.28,135.9 127.28,132.64 130.23,127.73     "/>
			</defs>
			<clipPath id="SVGID_17_">
				<use xlink:href="#SVGID_16_" style="overflow:visible;"/>
			</clipPath>
			
				<linearGradient id="SVGID_18_" gradientUnits="userSpaceOnUse" x1="-150.1367" y1="362.9153" x2="-149.8258" y2="362.9153" gradientTransform="matrix(20.4517 0 0 -20.4517 3194.4211 7554.0449)">
				<stop offset="0" style="stop-color:#C4A04F"/>
				<stop offset="0.3966" style="stop-color:#C9A94F"/>
				<stop offset="1" style="stop-color:#D4BE4F"/>
			</linearGradient>
			<rect x="123.87" y="127.73" class="st5" width="6.36" height="8.17"/>
		</g>
		<g>
			<defs>
				<path id="SVGID_19_" d="M135.09,127.85c-0.42,0.17-0.75,0.42-0.98,0.75c-0.23,0.32-0.35,0.69-0.35,1.12      c0,0.42,0.09,0.77,0.27,1.05c0.18,0.28,0.47,0.52,0.86,0.71c0.4,0.19,0.94,0.37,1.62,0.51c0.67,0.14,1.19,0.29,1.54,0.44      c0.36,0.16,0.62,0.34,0.77,0.56c0.15,0.22,0.23,0.49,0.23,0.83c0,0.53-0.22,0.95-0.66,1.26c-0.44,0.31-1.04,0.46-1.79,0.46      c-0.55,0-1.08-0.13-1.58-0.39c-0.51-0.26-0.88-0.59-1.12-0.99l-0.32,0.35c0.31,0.46,0.73,0.83,1.28,1.1      c0.55,0.28,1.13,0.41,1.74,0.41c0.9,0,1.61-0.2,2.13-0.6s0.79-0.94,0.79-1.62c0-0.43-0.09-0.78-0.27-1.06      c-0.18-0.28-0.48-0.52-0.9-0.71c-0.42-0.19-1-0.37-1.75-0.54c-0.61-0.13-1.08-0.27-1.42-0.43c-0.34-0.15-0.59-0.33-0.74-0.55      c-0.15-0.21-0.22-0.48-0.22-0.81c0-0.5,0.21-0.9,0.64-1.2c0.42-0.3,0.99-0.45,1.69-0.45c0.48,0,0.93,0.09,1.34,0.27      c0.41,0.18,0.75,0.44,1.02,0.78l0.3-0.36c-0.31-0.38-0.7-0.67-1.15-0.87c-0.46-0.2-0.96-0.3-1.5-0.3      C136,127.59,135.51,127.68,135.09,127.85"/>
			</defs>
			<clipPath id="SVGID_20_">
				<use xlink:href="#SVGID_19_" style="overflow:visible;"/>
			</clipPath>
			
				<linearGradient id="SVGID_21_" gradientUnits="userSpaceOnUse" x1="-151.2014" y1="363.1891" x2="-150.8904" y2="363.1891" gradientTransform="matrix(19.1114 0 0 -19.1114 3023.2473 7072.8604)">
				<stop offset="0" style="stop-color:#C4A04F"/>
				<stop offset="0.3966" style="stop-color:#C9A94F"/>
				<stop offset="1" style="stop-color:#D4BE4F"/>
			</linearGradient>
			<rect x="133.58" y="127.59" class="st6" width="5.94" height="8.44"/>
		</g>
		<g>
			<defs>
				<polygon id="SVGID_22_" points="140.14,127.73 140.14,128.23 142.9,128.23 142.9,135.9 143.36,135.9 143.36,128.23       146.12,128.23 146.12,127.73     "/>
			</defs>
			<clipPath id="SVGID_23_">
				<use xlink:href="#SVGID_22_" style="overflow:visible;"/>
			</clipPath>
			
				<linearGradient id="SVGID_24_" gradientUnits="userSpaceOnUse" x1="-151.9571" y1="363.1672" x2="-151.6461" y2="363.1672" gradientTransform="matrix(19.2153 0 0 -19.2153 3060.043 7110.1821)">
				<stop offset="0" style="stop-color:#C4A04F"/>
				<stop offset="0.3966" style="stop-color:#C9A94F"/>
				<stop offset="1" style="stop-color:#D4BE4F"/>
			</linearGradient>
			<rect x="140.14" y="127.73" class="st7" width="5.98" height="8.17"/>
		</g>
		<g>
			<defs>
				<path id="SVGID_25_" d="M152.64,127.73v5.04c0,0.54-0.1,1.03-0.31,1.44c-0.21,0.42-0.5,0.74-0.87,0.97      c-0.37,0.23-0.79,0.35-1.27,0.35c-0.48,0-0.9-0.12-1.27-0.35c-0.37-0.23-0.66-0.56-0.87-0.97c-0.21-0.42-0.31-0.9-0.31-1.44      v-5.04h-0.47v5.04c0,0.64,0.12,1.2,0.37,1.7c0.25,0.49,0.59,0.88,1.03,1.15c0.44,0.27,0.95,0.41,1.52,0.41s1.08-0.14,1.52-0.41      c0.44-0.27,0.79-0.66,1.03-1.15c0.25-0.49,0.37-1.06,0.37-1.7v-5.04H152.64z"/>
			</defs>
			<clipPath id="SVGID_26_">
				<use xlink:href="#SVGID_25_" style="overflow:visible;"/>
			</clipPath>
			
				<linearGradient id="SVGID_27_" gradientUnits="userSpaceOnUse" x1="-152.8216" y1="363.274" x2="-152.5106" y2="363.274" gradientTransform="matrix(18.7681 0 0 -18.7681 3015.4412 6949.8428)">
				<stop offset="0" style="stop-color:#C4A04F"/>
				<stop offset="0.3966" style="stop-color:#C9A94F"/>
				<stop offset="1" style="stop-color:#D4BE4F"/>
			</linearGradient>
			<rect x="147.27" y="127.73" class="st8" width="5.84" height="8.3"/>
		</g>
		<g>
			<defs>
				<path id="SVGID_28_" d="M155.65,128.23h2.03c0.64,0,1.21,0.15,1.72,0.45c0.51,0.3,0.9,0.73,1.19,1.27      c0.28,0.54,0.43,1.16,0.43,1.86c0,0.69-0.14,1.31-0.42,1.86c-0.28,0.54-0.68,0.97-1.18,1.27c-0.51,0.3-1.08,0.45-1.73,0.45      h-2.03V128.23z M155.18,127.73v8.17h2.5c0.74,0,1.4-0.17,1.98-0.52c0.58-0.35,1.03-0.83,1.35-1.45      c0.32-0.62,0.48-1.32,0.48-2.12c0-0.79-0.16-1.5-0.48-2.12c-0.32-0.62-0.77-1.1-1.35-1.45c-0.58-0.35-1.24-0.52-1.98-0.52      H155.18z"/>
			</defs>
			<clipPath id="SVGID_29_">
				<use xlink:href="#SVGID_28_" style="overflow:visible;"/>
			</clipPath>
			
				<linearGradient id="SVGID_30_" gradientUnits="userSpaceOnUse" x1="-153.5499" y1="362.9482" x2="-153.2389" y2="362.9482" gradientTransform="matrix(20.2807 0 0 -20.2807 3269.2808 7492.6602)">
				<stop offset="0" style="stop-color:#C4A04F"/>
				<stop offset="0.3966" style="stop-color:#C9A94F"/>
				<stop offset="1" style="stop-color:#D4BE4F"/>
			</linearGradient>
			<rect x="155.18" y="127.73" class="st9" width="6.31" height="8.17"/>
		</g>
		<g>
			<defs>
				<rect id="SVGID_31_" x="163.16" y="127.73" width="0.47" height="8.17"/>
			</defs>
			<clipPath id="SVGID_32_">
				<use xlink:href="#SVGID_31_" style="overflow:visible;"/>
			</clipPath>
			
				<linearGradient id="SVGID_33_" gradientUnits="userSpaceOnUse" x1="-196.8683" y1="411.9375" x2="-196.5572" y2="411.9375" gradientTransform="matrix(1.5126 0 0 -1.5126 460.9391 754.9115)">
				<stop offset="0" style="stop-color:#C4A04F"/>
				<stop offset="0.3966" style="stop-color:#C9A94F"/>
				<stop offset="1" style="stop-color:#D4BE4F"/>
			</linearGradient>
			<rect x="163.16" y="127.73" class="st10" width="0.47" height="8.17"/>
		</g>
		<g>
			<defs>
				<path id="SVGID_34_" d="M167.36,135.08c-0.5-0.32-0.89-0.76-1.18-1.33c-0.28-0.57-0.42-1.21-0.42-1.94      c0-0.72,0.14-1.37,0.42-1.94c0.28-0.57,0.67-1.01,1.18-1.33c0.5-0.32,1.07-0.47,1.71-0.47c0.63,0,1.2,0.16,1.71,0.47      c0.5,0.32,0.89,0.76,1.18,1.33c0.28,0.57,0.42,1.21,0.42,1.94c0,0.72-0.14,1.37-0.42,1.94c-0.28,0.57-0.67,1.01-1.18,1.33      c-0.5,0.32-1.07,0.47-1.71,0.47C168.43,135.55,167.86,135.39,167.36,135.08 M167.12,128.12c-0.57,0.36-1.02,0.86-1.34,1.5      c-0.32,0.64-0.48,1.37-0.48,2.19c0,0.82,0.16,1.55,0.48,2.19c0.32,0.64,0.77,1.14,1.34,1.5c0.57,0.36,1.22,0.54,1.95,0.54      c0.73,0,1.38-0.18,1.95-0.54c0.57-0.36,1.02-0.86,1.34-1.5c0.32-0.64,0.48-1.37,0.48-2.19c0-0.82-0.16-1.55-0.48-2.19      c-0.32-0.64-0.77-1.14-1.34-1.5c-0.57-0.36-1.22-0.54-1.95-0.54C168.34,127.59,167.69,127.77,167.12,128.12"/>
			</defs>
			<clipPath id="SVGID_35_">
				<use xlink:href="#SVGID_34_" style="overflow:visible;"/>
			</clipPath>
			
				<linearGradient id="SVGID_36_" gradientUnits="userSpaceOnUse" x1="-154.054" y1="362.2994" x2="-153.743" y2="362.2994" gradientTransform="matrix(24.2687 0 0 -24.2687 3903.9854 8924.3545)">
				<stop offset="0" style="stop-color:#C4A04F"/>
				<stop offset="0.3966" style="stop-color:#C9A94F"/>
				<stop offset="1" style="stop-color:#D4BE4F"/>
			</linearGradient>
			<rect x="165.29" y="127.59" class="st11" width="7.55" height="8.45"/>
		</g>
	</g>
	<g>
		
			<linearGradient id="SVGID_37_" gradientUnits="userSpaceOnUse" x1="150.7968" y1="77.4892" x2="175.9876" y2="77.4892" gradientTransform="matrix(0.9991 0.0428 -0.0428 0.9991 0.828 -3.2776)">
			<stop offset="0" style="stop-color:#C4A04F"/>
			<stop offset="0.3966" style="stop-color:#C9A94F"/>
			<stop offset="1" style="stop-color:#D4BE4F"/>
		</linearGradient>
		<path class="st12" d="M173.5,77.85c-1.74-0.47-2.36-0.96-3.04-1.5c0,0-4.3,3.91-10.17,4.93c-4.71,0.81-7.77-0.14-9.5-1.06    c-0.18-0.09-0.34-0.19-0.49-0.28c-0.08-0.06-0.17-0.12-0.25-0.16c-0.02-0.01-0.04-0.03-0.06-0.04c-0.04-0.03-0.08-0.04-0.12-0.04    c-0.64-0.25-1.21,0.02-1.21,0.02c-0.95,0.4-0.32,1.18,0.19,0.78c0.23-0.18,0.45-0.23,0.64-0.24c0.17,0,0.33,0.09,0.43,0.23l0,0    c-0.24,0.37-0.32,0.83-0.24,1.09c0.08-0.28,0.2-0.55,0.45-0.81c0.06,0.05,0.04,0.03,0.11,0.08c-0.56,1.05-0.04,2.21-0.03,2.12    c0,0-0.1-0.64,0.06-1.13c0.08-0.25,0.19-0.44,0.28-0.57c0.03,0.04,0.07,0.07,0.1,0.11c-0.76,1.4-0.05,2.47,0.14,2.62    c0,0-0.17-0.96,0.03-1.55c0.09-0.26,0.2-0.46,0.3-0.62c0.1,0.09,0.21,0.18,0.33,0.27c-0.07,0.48,0.02,0.97,0.2,1.22    c-0.02-0.31,0.01-0.63,0.13-0.97c0.07,0.05,0.14,0.1,0.21,0.15c-0.08,1.35,0.88,2.39,0.86,2.28c0,0-0.38-0.73-0.39-1.39    c0-0.21,0.02-0.4,0.05-0.57c0.06,0.03,0.13,0.07,0.19,0.1c-0.2,1.84,1,2.76,1.28,2.86c0,0-0.6-1.09-0.6-1.89    c0-0.24,0.02-0.45,0.06-0.63c0.23,0.09,0.48,0.18,0.73,0.26c0.07,0.24,0.18,0.45,0.3,0.57c-0.04-0.16-0.06-0.33-0.06-0.5    c0.12,0.03,0.24,0.06,0.36,0.09c0.29,1.09,1.15,1.76,1.12,1.67c0,0-0.49-0.67-0.59-1.31c-0.01-0.09-0.02-0.17-0.03-0.25    c0.07,0.01,0.15,0.03,0.22,0.04c0.2,1.64,1.4,2.3,1.68,2.35c0,0-0.76-0.99-0.88-1.78c-0.03-0.17-0.04-0.33-0.04-0.47    c0.18,0.02,0.36,0.03,0.54,0.04c0.08,0.18,0.19,0.34,0.3,0.43c-0.04-0.14-0.08-0.28-0.09-0.43c0.12,0,0.24,0.01,0.36,0.01    c0.38,1.05,1.28,1.64,1.25,1.55c0,0-0.54-0.62-0.7-1.26c-0.03-0.1-0.04-0.2-0.06-0.29c0.07,0,0.14-0.01,0.22-0.01    c0.31,1.68,1.59,2.25,1.88,2.28c0,0-0.84-0.92-1.03-1.7c-0.06-0.23-0.08-0.44-0.09-0.63c0.17-0.01,0.34-0.03,0.52-0.05    c0.26,0.47,0.64,0.83,0.95,0.96c-0.22-0.29-0.4-0.62-0.51-1.02c0.11-0.02,0.21-0.03,0.32-0.05c0.85,1.44,2.53,1.84,2.44,1.74    c0,0-0.9-0.5-1.35-1.17c-0.17-0.25-0.29-0.49-0.37-0.7c0.08-0.02,0.17-0.03,0.25-0.05c1.04,2.14,2.97,2.29,3.34,2.19    c0,0-1.37-0.72-1.92-1.55c-0.21-0.32-0.36-0.62-0.45-0.88c0.18-0.05,0.36-0.1,0.54-0.16c0.41,0.51,0.94,0.86,1.34,0.95    c-0.33-0.3-0.61-0.66-0.82-1.12c0.24-0.08,0.47-0.17,0.7-0.27c1.35,1.51,3.63,1.52,3.5,1.42c0,0-1.41-0.24-2.09-0.95    c-0.28-0.29-0.48-0.57-0.62-0.82c0.14-0.07,0.28-0.14,0.41-0.21c1.6,2.1,3.48,1.37,3.48,1.37s-0.9-0.12-1.73-0.99    c-0.33-0.35-0.56-0.68-0.73-0.98c0.13-0.09,0.26-0.17,0.39-0.26c0.54,0.53,1.25,0.85,1.72,0.85c-0.47-0.28-0.89-0.65-1.22-1.22    c0.08-0.06,0.16-0.12,0.23-0.19c1.61,1.38,3.82,1.07,3.67,0.99c0,0-1.23-0.16-2.04-0.71c-0.44-0.3-0.75-0.63-0.95-0.88    c0.06-0.06,0.13-0.12,0.19-0.19c0.89,0.65,2.24,0.94,3.66,0.52c-0.8-0.1-2.19-0.66-2.83-1.46c0.04-0.05,0.03-0.04,0.07-0.08    c0.91,0.57,1.83,0.36,2.35,0.22c-0.56-0.16-1.29-0.4-1.83-0.93c0.02-0.04,0.02-0.03,0.05-0.08c2.33,0.78,2.77,0.23,2.77,0.23    c-0.91-0.21-1.73-0.5-2.33-0.96c0.01-0.02,0.02-0.03,0.03-0.05C170.46,77.64,171.99,78.22,173.5,77.85z"/>
		<linearGradient id="SVGID_38_" gradientUnits="userSpaceOnUse" x1="87.6659" y1="67.1111" x2="172.4067" y2="67.1111">
			<stop offset="0" style="stop-color:#C4A04F"/>
			<stop offset="0.3966" style="stop-color:#C9A94F"/>
			<stop offset="1" style="stop-color:#D4BE4F"/>
		</linearGradient>
		<path class="st13" d="M132.45,87.27c0,1.1,0.36,1.93,0.97,2.54c0.73,0.73,1.75,1.1,3.02,1.1c1.25,0,2.38-0.32,3.44-0.94    c0.36-0.21,0.71-0.46,1.05-0.73c1.31-1.1,2.32-2.41,3.1-4c0.77-1.59,1.14-3.06,1.14-4.45c0-1.5-0.16-2.88-0.44-4.14    c2.25-1.43,8.13-4.65,11.61-5.38c5.79-1.2,10.21-1.28,14.12-0.6c2.47,0.43,2.62-2.2,0.3-2.61c-3.23-0.57-11.63-0.02-17.51,2.4    c-1.88,0.77-7.34,3.86-8.79,5.11c-0.32-1.24-0.68-2.44-1.08-3.6c-0.41-1.14-0.78-2.28-1.06-3.39c-0.29-1.1-0.37-2.21-0.45-3.39    c-0.02-0.36-0.03-0.04-0.02-0.36c5.17-1.63,8.31-5.73,7.09-7.64c-0.07-0.11-0.16-0.21-0.26-0.29c-0.62-0.49-1.53-0.74-2.47-0.74    c-1.39,0-2.66,0.55-3.8,1.41c-1.18,0.86-2.08,2-2.73,3.34c-0.56,1.08-0.87,2.22-0.98,3.41c-1.35,1.53-2.68,3.08-4.04,4.63    c-3.43,3.96-6.48,7.42-9.22,10.36c-2.69,2.94-4.49,4.4-5.3,4.4c-0.57,0-0.86-0.45-0.86-1.31c0-2.98,3.92-12.89,11.79-29.69    c4.77-0.04,8.44-0.94,11.01-2.69c0.16-0.12,0.24-0.24,0.24-0.41c0-0.24-0.16-0.41-0.41-0.45c-0.12,0-0.24,0.04-0.37,0.08    c-2.61,1.67-6,2.49-10.07,2.53c1.35-2.9,2.04-4.45,2.04-4.65c0-0.29-0.2-0.45-0.61-0.57c-0.29-0.08-0.57-0.16-0.86-0.16    c-0.9,0-1.47,0.29-1.75,0.86c-0.29,0.77-0.98,2.28-2.12,4.53c-2.2-0.04-4.49-0.16-6.77-0.33c-2.32-0.16-4.53-0.29-6.73-0.37    c1.55-3.26,2.57-5.59,3.06-6.97l0.04-0.12c0-0.45-0.49-0.69-1.43-0.69c-0.94,0-1.51,0.29-1.75,0.86s-1.35,2.9-3.26,6.97    c-3.92,0.04-7.18,0.86-9.79,2.49c-0.12,0.12-0.2,0.24-0.2,0.41c0,0.08,0.04,0.16,0.12,0.29c0.08,0.12,0.2,0.16,0.33,0.16    c0.08,0,0.16-0.04,0.24-0.08c2.32-1.47,5.3-2.24,8.89-2.32c-1.54,3.26-2.92,6.27-4.14,9.04c-5.13,6.56-9.14,11.35-12.03,14.4    c-1.87,1.99-3.17,2.97-3.9,2.97c-0.49,0-0.73-0.37-0.73-1.1c0-1.18,0.58-3.3,1.73-6.33c0.42-1.12-0.49-2.28-1.68-2.13    c-0.01,0-0.02,0-0.04,0c-0.6,0.08-1.11,0.5-1.3,1.08c-0.76,2.32-1.15,4.26-1.15,5.8c0,0.73,0.08,1.34,0.24,1.91    c0.37,1.14,1.26,1.71,2.64,1.71c1.1,0,2.64-1.02,4.71-3.09c2.03-2.07,4.23-4.51,6.5-7.35c1.21-1.47,2.37-2.9,3.47-4.3    c-0.06,0.15-0.13,0.31-0.19,0.45l-1.28,3.17c-0.4,1.02-0.76,1.99-1.1,2.91c-1.71,4.73-2.57,8.28-2.57,10.65    c0,2.16,0.73,3.22,2.2,3.22c1.18,0,2.61-0.73,4.28-2.16c1.71-1.43,3.51-3.26,5.47-5.47c1.92-2.2,3.87-4.53,5.83-6.93    c1.22-1.47,2.45-2.9,3.59-4.24c-3.1,7.26-4.65,12.44-4.65,15.5c0,0.65,0.04,1.18,0.16,1.67c0.29,1.1,1.02,1.63,2.16,1.63    c1.14,0,2.57-0.73,4.24-2.2c1.71-1.43,3.51-3.26,5.47-5.47c1.96-2.2,4.06-4.16,6.02-6.57c1.36-1.64,2.58-2.86,3.83-4.31    c0.05,1.23,0.2,1.79,0.51,2.97c0.37,1.43,0.82,2.77,1.31,4.12c0.45,1.35,0.86,2.69,1.18,4c-2.37,1.59-4.36,3.02-5.95,4.36    c-1.67,1.43-2.57,2.41-3.18,4.32C132.57,86.3,132.42,86.67,132.45,87.27z M142.45,60.78c0.49-1.18,0.99-1.81,1.72-2.51    c1.3-1.03,2.32-1.06,2.86-0.96c0.28,0.05,0.52,0.27,0.56,0.56c0.13,0.84-0.28,2.8-5.73,5.16    C141.94,62.22,142.45,60.78,142.45,60.78z M117.92,68.84c-3.43,4-6.53,7.46-9.26,10.44c-2.73,2.98-4.53,4.45-5.38,4.45    c-0.53,0-0.77-0.41-0.77-1.22c0-3.02,3.92-13.17,11.75-30.47c2.37,0.04,4.73,0.16,7.1,0.33c2.16,0.16,4.28,0.29,6.36,0.37    c-0.86,1.84-2.49,5.34-4.94,10.56L117.92,68.84z M141.91,78.61c0.12,0.73,0.2,1.45,0.2,2.18c0,1.35-0.24,2.69-0.73,4.12    c-0.49,1.43-1.14,2.61-2,3.59c-0.86,0.98-1.84,1.47-2.94,1.47c-1.1,0-1.92-0.24-2.37-0.78c-0.49-0.53-0.69-1.1-0.69-1.75    c0-0.24,0.04-0.53,0.08-0.82v-0.04c0.29-1.18,1.26-2.49,2.9-3.92c1.2-1,2.66-2.09,4.37-3.28L141.91,78.61z"/>
		<linearGradient id="SVGID_39_" gradientUnits="userSpaceOnUse" x1="78.6193" y1="69.0207" x2="182.7407" y2="69.0207">
			<stop offset="0" style="stop-color:#C4A04F"/>
			<stop offset="0.3966" style="stop-color:#C9A94F"/>
			<stop offset="1" style="stop-color:#D4BE4F"/>
		</linearGradient>
		<path class="st14" d="M130.68,16.96c-28.75,0-52.06,23.31-52.06,52.06s23.31,52.06,52.06,52.06c28.75,0,52.06-23.31,52.06-52.06    S159.43,16.96,130.68,16.96z M130.68,118.84c-27.52,0-49.82-22.31-49.82-49.82s22.31-49.82,49.82-49.82s49.82,22.31,49.82,49.82    S158.2,118.84,130.68,118.84z"/>
	</g>
</g>
<g>
	<g>
		<g>
			<defs>
				<path id="SVGID_40_" d="M363.21,131.98h2.81c0.61,0,1.1,0.15,1.46,0.46c0.36,0.31,0.54,0.73,0.54,1.25      c0,0.54-0.18,0.96-0.53,1.26c-0.35,0.3-0.84,0.46-1.47,0.46h-2.81V131.98z M363.21,128.22H366c0.54,0,0.97,0.15,1.29,0.44      c0.32,0.3,0.48,0.7,0.48,1.2c0,0.51-0.16,0.9-0.47,1.19c-0.31,0.29-0.74,0.43-1.3,0.43h-2.79V128.22z M362.74,127.73v8.17H366      c0.78,0,1.39-0.19,1.83-0.58c0.44-0.39,0.66-0.92,0.66-1.6c0-0.47-0.12-0.89-0.37-1.24c-0.25-0.35-0.6-0.6-1.04-0.76      c0.35-0.13,0.63-0.37,0.83-0.71c0.21-0.34,0.31-0.73,0.31-1.17c0-0.64-0.2-1.15-0.61-1.54c-0.41-0.38-0.94-0.58-1.61-0.58      H362.74z"/>
			</defs>
			<clipPath id="SVGID_41_">
				<use xlink:href="#SVGID_40_" style="overflow:visible;"/>
			</clipPath>
			
				<linearGradient id="SVGID_42_" gradientUnits="userSpaceOnUse" x1="-130.9822" y1="363.3299" x2="-130.6712" y2="363.3299" gradientTransform="matrix(18.4932 0 0 -18.4932 2785.0164 6850.9468)">
				<stop offset="0" style="stop-color:#C4A04F"/>
				<stop offset="0.3966" style="stop-color:#C9A94F"/>
				<stop offset="1" style="stop-color:#D4BE4F"/>
			</linearGradient>
			<rect x="362.74" y="127.73" class="st15" width="5.75" height="8.17"/>
		</g>
		<g>
			<defs>
				<polygon id="SVGID_43_" points="370.17,127.73 370.17,135.9 375.44,135.9 375.44,135.41 370.64,135.41 370.64,132.01       375.07,132.01 375.07,131.52 370.64,131.52 370.64,128.22 375.3,128.22 375.3,127.73     "/>
			</defs>
			<clipPath id="SVGID_44_">
				<use xlink:href="#SVGID_43_" style="overflow:visible;"/>
			</clipPath>
			
				<linearGradient id="SVGID_45_" gradientUnits="userSpaceOnUse" x1="-130.1263" y1="363.7251" x2="-129.8153" y2="363.7251" gradientTransform="matrix(16.9464 0 0 -16.9464 2575.3384 6295.6465)">
				<stop offset="0" style="stop-color:#C4A04F"/>
				<stop offset="0.3966" style="stop-color:#C9A94F"/>
				<stop offset="1" style="stop-color:#D4BE4F"/>
			</linearGradient>
			<rect x="370.17" y="127.73" class="st16" width="5.27" height="8.17"/>
		</g>
		<g>
			<defs>
				<path id="SVGID_46_" d="M380,128.28l2.08,5.07h-4.17L380,128.28z M379.72,127.73l-3.36,8.17h0.51l0.84-2.06h4.55l0.84,2.06h0.51      l-3.36-8.17H379.72z"/>
			</defs>
			<clipPath id="SVGID_47_">
				<use xlink:href="#SVGID_46_" style="overflow:visible;"/>
			</clipPath>
			
				<linearGradient id="SVGID_48_" gradientUnits="userSpaceOnUse" x1="-136.4535" y1="362.4259" x2="-136.1425" y2="362.4259" gradientTransform="matrix(23.373 0 0 -23.373 3565.6914 8602.79)">
				<stop offset="0" style="stop-color:#C4A04F"/>
				<stop offset="0.3966" style="stop-color:#C9A94F"/>
				<stop offset="1" style="stop-color:#D4BE4F"/>
			</linearGradient>
			<rect x="376.37" y="127.73" class="st17" width="7.27" height="8.17"/>
		</g>
		<g>
			<defs>
				<path id="SVGID_49_" d="M390.01,127.73v5.04c0,0.54-0.1,1.03-0.31,1.44c-0.21,0.42-0.5,0.74-0.87,0.97      c-0.37,0.23-0.79,0.35-1.27,0.35c-0.48,0-0.9-0.12-1.27-0.35c-0.37-0.23-0.66-0.56-0.87-0.97c-0.21-0.42-0.31-0.9-0.31-1.44      v-5.04h-0.47v5.04c0,0.64,0.12,1.2,0.37,1.7c0.25,0.49,0.59,0.88,1.03,1.15c0.44,0.27,0.95,0.41,1.52,0.41      c0.57,0,1.08-0.14,1.52-0.41c0.44-0.27,0.79-0.66,1.03-1.15c0.25-0.49,0.37-1.06,0.37-1.7v-5.04H390.01z"/>
			</defs>
			<clipPath id="SVGID_50_">
				<use xlink:href="#SVGID_49_" style="overflow:visible;"/>
			</clipPath>
			
				<linearGradient id="SVGID_51_" gradientUnits="userSpaceOnUse" x1="-133.861" y1="363.274" x2="-133.55" y2="363.274" gradientTransform="matrix(18.7681 0 0 -18.7681 2896.957 6949.8428)">
				<stop offset="0" style="stop-color:#C4A04F"/>
				<stop offset="0.3966" style="stop-color:#C9A94F"/>
				<stop offset="1" style="stop-color:#D4BE4F"/>
			</linearGradient>
			<rect x="384.64" y="127.73" class="st18" width="5.84" height="8.3"/>
		</g>
		<g>
			<defs>
				<polygon id="SVGID_52_" points="391.63,127.73 391.63,128.23 394.39,128.23 394.39,135.9 394.85,135.9 394.85,128.23       397.61,128.23 397.61,127.73     "/>
			</defs>
			<clipPath id="SVGID_53_">
				<use xlink:href="#SVGID_52_" style="overflow:visible;"/>
			</clipPath>
			
				<linearGradient id="SVGID_54_" gradientUnits="userSpaceOnUse" x1="-135.066" y1="363.1672" x2="-134.755" y2="363.1672" gradientTransform="matrix(19.2153 0 0 -19.2153 2986.9658 7110.1821)">
				<stop offset="0" style="stop-color:#C4A04F"/>
				<stop offset="0.3966" style="stop-color:#C9A94F"/>
				<stop offset="1" style="stop-color:#D4BE4F"/>
			</linearGradient>
			<rect x="391.63" y="127.73" class="st19" width="5.98" height="8.17"/>
		</g>
		<g>
			<defs>
				<polygon id="SVGID_55_" points="403.88,127.73 401.26,132.14 398.64,127.73 398.09,127.73 401.03,132.64 401.03,135.9       401.5,135.9 401.5,132.64 404.45,127.73     "/>
			</defs>
			<clipPath id="SVGID_56_">
				<use xlink:href="#SVGID_55_" style="overflow:visible;"/>
			</clipPath>
			
				<linearGradient id="SVGID_57_" gradientUnits="userSpaceOnUse" x1="-136.7287" y1="362.9153" x2="-136.4177" y2="362.9153" gradientTransform="matrix(20.4517 0 0 -20.4517 3194.4211 7554.0449)">
				<stop offset="0" style="stop-color:#C4A04F"/>
				<stop offset="0.3966" style="stop-color:#C9A94F"/>
				<stop offset="1" style="stop-color:#D4BE4F"/>
			</linearGradient>
			<rect x="398.09" y="127.73" class="st20" width="6.36" height="8.17"/>
		</g>
		<g>
			<defs>
				<path id="SVGID_58_" d="M409.31,127.85c-0.42,0.17-0.75,0.42-0.98,0.75c-0.23,0.32-0.35,0.69-0.35,1.12      c0,0.42,0.09,0.77,0.27,1.05c0.18,0.28,0.47,0.52,0.86,0.71c0.4,0.19,0.94,0.37,1.62,0.51c0.67,0.14,1.19,0.29,1.54,0.44      c0.36,0.16,0.62,0.34,0.77,0.56c0.15,0.22,0.23,0.49,0.23,0.83c0,0.53-0.22,0.95-0.66,1.26c-0.44,0.31-1.04,0.46-1.79,0.46      c-0.55,0-1.08-0.13-1.58-0.39c-0.51-0.26-0.88-0.59-1.12-0.99l-0.32,0.35c0.31,0.46,0.73,0.83,1.28,1.1      c0.55,0.28,1.13,0.41,1.74,0.41c0.9,0,1.61-0.2,2.13-0.6c0.52-0.4,0.79-0.94,0.79-1.62c0-0.43-0.09-0.78-0.27-1.06      c-0.18-0.28-0.48-0.52-0.9-0.71c-0.42-0.19-1-0.37-1.75-0.54c-0.61-0.13-1.08-0.27-1.42-0.43c-0.34-0.15-0.59-0.33-0.74-0.55      c-0.15-0.21-0.22-0.48-0.22-0.81c0-0.5,0.21-0.9,0.64-1.2c0.42-0.3,0.99-0.45,1.69-0.45c0.48,0,0.93,0.09,1.34,0.27      c0.41,0.18,0.75,0.44,1.02,0.78l0.3-0.36c-0.31-0.38-0.7-0.67-1.15-0.87c-0.46-0.2-0.96-0.3-1.5-0.3      C410.22,127.59,409.73,127.68,409.31,127.85"/>
			</defs>
			<clipPath id="SVGID_59_">
				<use xlink:href="#SVGID_58_" style="overflow:visible;"/>
			</clipPath>
			
				<linearGradient id="SVGID_60_" gradientUnits="userSpaceOnUse" x1="-136.853" y1="363.1891" x2="-136.542" y2="363.1891" gradientTransform="matrix(19.1114 0 0 -19.1114 3023.2473 7072.8604)">
				<stop offset="0" style="stop-color:#C4A04F"/>
				<stop offset="0.3966" style="stop-color:#C9A94F"/>
				<stop offset="1" style="stop-color:#D4BE4F"/>
			</linearGradient>
			<rect x="407.79" y="127.59" class="st21" width="5.94" height="8.44"/>
		</g>
		<g>
			<defs>
				<polygon id="SVGID_61_" points="414.36,127.73 414.36,128.23 417.12,128.23 417.12,135.9 417.58,135.9 417.58,128.23       420.33,128.23 420.33,127.73     "/>
			</defs>
			<clipPath id="SVGID_62_">
				<use xlink:href="#SVGID_61_" style="overflow:visible;"/>
			</clipPath>
			
				<linearGradient id="SVGID_63_" gradientUnits="userSpaceOnUse" x1="-137.6863" y1="363.1672" x2="-137.3753" y2="363.1672" gradientTransform="matrix(19.2153 0 0 -19.2153 3060.043 7110.1821)">
				<stop offset="0" style="stop-color:#C4A04F"/>
				<stop offset="0.3966" style="stop-color:#C9A94F"/>
				<stop offset="1" style="stop-color:#D4BE4F"/>
			</linearGradient>
			<rect x="414.36" y="127.73" class="st22" width="5.98" height="8.17"/>
		</g>
		<g>
			<defs>
				<path id="SVGID_64_" d="M426.85,127.73v5.04c0,0.54-0.1,1.03-0.31,1.44c-0.21,0.42-0.5,0.74-0.87,0.97      c-0.37,0.23-0.79,0.35-1.27,0.35c-0.48,0-0.9-0.12-1.27-0.35c-0.37-0.23-0.66-0.56-0.87-0.97c-0.21-0.42-0.31-0.9-0.31-1.44      v-5.04h-0.47v5.04c0,0.64,0.12,1.2,0.37,1.7c0.25,0.49,0.59,0.88,1.03,1.15c0.44,0.27,0.95,0.41,1.52,0.41      c0.57,0,1.08-0.14,1.52-0.41c0.44-0.27,0.79-0.66,1.03-1.15c0.25-0.49,0.37-1.06,0.37-1.7v-5.04H426.85z"/>
			</defs>
			<clipPath id="SVGID_65_">
				<use xlink:href="#SVGID_64_" style="overflow:visible;"/>
			</clipPath>
			
				<linearGradient id="SVGID_66_" gradientUnits="userSpaceOnUse" x1="-138.2107" y1="363.274" x2="-137.8997" y2="363.274" gradientTransform="matrix(18.7681 0 0 -18.7681 3015.4412 6949.8428)">
				<stop offset="0" style="stop-color:#C4A04F"/>
				<stop offset="0.3966" style="stop-color:#C9A94F"/>
				<stop offset="1" style="stop-color:#D4BE4F"/>
			</linearGradient>
			<rect x="421.49" y="127.73" class="st23" width="5.84" height="8.3"/>
		</g>
		<g>
			<defs>
				<path id="SVGID_67_" d="M429.87,128.23h2.03c0.64,0,1.21,0.15,1.72,0.45c0.51,0.3,0.9,0.73,1.19,1.27      c0.28,0.54,0.43,1.16,0.43,1.86c0,0.69-0.14,1.31-0.42,1.86c-0.28,0.54-0.68,0.97-1.18,1.27c-0.51,0.3-1.08,0.45-1.73,0.45      h-2.03V128.23z M429.4,127.73v8.17h2.5c0.74,0,1.4-0.17,1.98-0.52c0.58-0.35,1.03-0.83,1.35-1.45c0.32-0.62,0.48-1.32,0.48-2.12      c0-0.79-0.16-1.5-0.48-2.12c-0.32-0.62-0.77-1.1-1.35-1.45c-0.58-0.35-1.24-0.52-1.98-0.52H429.4z"/>
			</defs>
			<clipPath id="SVGID_68_">
				<use xlink:href="#SVGID_67_" style="overflow:visible;"/>
			</clipPath>
			
				<linearGradient id="SVGID_69_" gradientUnits="userSpaceOnUse" x1="-140.0288" y1="362.9482" x2="-139.7178" y2="362.9482" gradientTransform="matrix(20.2807 0 0 -20.2807 3269.2808 7492.6602)">
				<stop offset="0" style="stop-color:#C4A04F"/>
				<stop offset="0.3966" style="stop-color:#C9A94F"/>
				<stop offset="1" style="stop-color:#D4BE4F"/>
			</linearGradient>
			<rect x="429.4" y="127.73" class="st24" width="6.31" height="8.17"/>
		</g>
		<g>
			<defs>
				<rect id="SVGID_70_" x="437.37" y="127.73" width="0.47" height="8.17"/>
			</defs>
			<clipPath id="SVGID_71_">
				<use xlink:href="#SVGID_70_" style="overflow:visible;"/>
			</clipPath>
			
				<linearGradient id="SVGID_72_" gradientUnits="userSpaceOnUse" x1="-15.5797" y1="411.9375" x2="-15.2686" y2="411.9375" gradientTransform="matrix(1.5126 0 0 -1.5126 460.9391 754.9115)">
				<stop offset="0" style="stop-color:#C4A04F"/>
				<stop offset="0.3966" style="stop-color:#C9A94F"/>
				<stop offset="1" style="stop-color:#D4BE4F"/>
			</linearGradient>
			<rect x="437.37" y="127.73" class="st25" width="0.47" height="8.17"/>
		</g>
		<g>
			<defs>
				<path id="SVGID_73_" d="M441.58,135.08c-0.5-0.32-0.89-0.76-1.18-1.33c-0.28-0.57-0.42-1.21-0.42-1.94      c0-0.72,0.14-1.37,0.42-1.94c0.28-0.57,0.67-1.01,1.18-1.33c0.5-0.32,1.07-0.47,1.71-0.47c0.63,0,1.2,0.16,1.71,0.47      c0.5,0.32,0.89,0.76,1.18,1.33c0.28,0.57,0.42,1.21,0.42,1.94c0,0.72-0.14,1.37-0.42,1.94c-0.28,0.57-0.67,1.01-1.18,1.33      c-0.5,0.32-1.07,0.47-1.71,0.47C442.65,135.55,442.08,135.39,441.58,135.08 M441.33,128.12c-0.57,0.36-1.02,0.86-1.34,1.5      c-0.32,0.64-0.48,1.37-0.48,2.19c0,0.82,0.16,1.55,0.48,2.19c0.32,0.64,0.77,1.14,1.34,1.5c0.57,0.36,1.22,0.54,1.95,0.54      s1.38-0.18,1.95-0.54c0.57-0.36,1.02-0.86,1.34-1.5c0.32-0.64,0.48-1.37,0.48-2.19c0-0.82-0.16-1.55-0.48-2.19      c-0.32-0.64-0.77-1.14-1.34-1.5c-0.57-0.36-1.22-0.54-1.95-0.54S441.91,127.77,441.33,128.12"/>
			</defs>
			<clipPath id="SVGID_74_">
				<use xlink:href="#SVGID_73_" style="overflow:visible;"/>
			</clipPath>
			
				<linearGradient id="SVGID_75_" gradientUnits="userSpaceOnUse" x1="-142.7548" y1="362.2994" x2="-142.4438" y2="362.2994" gradientTransform="matrix(24.2687 0 0 -24.2687 3903.9854 8924.3545)">
				<stop offset="0" style="stop-color:#C4A04F"/>
				<stop offset="0.3966" style="stop-color:#C9A94F"/>
				<stop offset="1" style="stop-color:#D4BE4F"/>
			</linearGradient>
			<rect x="439.51" y="127.59" class="st26" width="7.55" height="8.45"/>
		</g>
	</g>
	<g>
		
			<linearGradient id="SVGID_76_" gradientUnits="userSpaceOnUse" x1="424.7631" y1="65.7526" x2="449.9538" y2="65.7526" gradientTransform="matrix(0.9991 0.0428 -0.0428 0.9991 0.828 -3.2776)">
			<stop offset="0" style="stop-color:#C4A04F"/>
			<stop offset="0.3966" style="stop-color:#C9A94F"/>
			<stop offset="1" style="stop-color:#D4BE4F"/>
		</linearGradient>
		<path class="st27" d="M447.72,77.85c-1.74-0.47-2.36-0.96-3.04-1.5c0,0-4.3,3.91-10.17,4.93c-4.71,0.81-7.77-0.14-9.5-1.06    c-0.18-0.09-0.34-0.19-0.49-0.28c-0.08-0.06-0.17-0.12-0.25-0.16c-0.02-0.01-0.04-0.03-0.06-0.04c-0.04-0.03-0.08-0.04-0.12-0.04    c-0.64-0.25-1.21,0.02-1.21,0.02c-0.95,0.4-0.32,1.18,0.19,0.78c0.23-0.18,0.45-0.23,0.64-0.24c0.17,0,0.33,0.09,0.43,0.23l0,0    c-0.24,0.37-0.32,0.83-0.24,1.09c0.08-0.28,0.2-0.55,0.45-0.81c0.06,0.05,0.04,0.03,0.11,0.08c-0.56,1.05-0.04,2.21-0.03,2.12    c0,0-0.1-0.64,0.06-1.13c0.08-0.25,0.19-0.44,0.28-0.57c0.03,0.04,0.07,0.07,0.1,0.11c-0.76,1.4-0.05,2.47,0.14,2.62    c0,0-0.17-0.96,0.03-1.55c0.09-0.26,0.2-0.46,0.3-0.62c0.1,0.09,0.21,0.18,0.33,0.27c-0.07,0.48,0.02,0.97,0.2,1.22    c-0.02-0.31,0.01-0.63,0.13-0.97c0.07,0.05,0.14,0.1,0.21,0.15c-0.08,1.35,0.88,2.39,0.86,2.28c0,0-0.38-0.73-0.39-1.39    c0-0.21,0.02-0.4,0.05-0.57c0.06,0.03,0.13,0.07,0.19,0.1c-0.2,1.84,1,2.76,1.28,2.86c0,0-0.6-1.09-0.6-1.89    c0-0.24,0.02-0.45,0.06-0.63c0.23,0.09,0.48,0.18,0.73,0.26c0.07,0.24,0.18,0.45,0.3,0.57c-0.04-0.16-0.06-0.33-0.06-0.5    c0.12,0.03,0.24,0.06,0.36,0.09c0.29,1.09,1.15,1.76,1.12,1.67c0,0-0.49-0.67-0.59-1.31c-0.01-0.09-0.02-0.17-0.03-0.25    c0.07,0.01,0.15,0.03,0.22,0.04c0.2,1.64,1.4,2.3,1.68,2.35c0,0-0.76-0.99-0.88-1.78c-0.03-0.17-0.04-0.33-0.04-0.47    c0.18,0.02,0.36,0.03,0.54,0.04c0.08,0.18,0.19,0.34,0.3,0.43c-0.04-0.14-0.08-0.28-0.09-0.43c0.12,0,0.24,0.01,0.36,0.01    c0.38,1.05,1.28,1.64,1.25,1.55c0,0-0.54-0.62-0.7-1.26c-0.03-0.1-0.04-0.2-0.06-0.29c0.07,0,0.14-0.01,0.22-0.01    c0.31,1.68,1.59,2.25,1.88,2.28c0,0-0.84-0.92-1.03-1.7c-0.06-0.23-0.08-0.44-0.09-0.63c0.17-0.01,0.34-0.03,0.52-0.05    c0.26,0.47,0.64,0.83,0.95,0.96c-0.22-0.29-0.4-0.62-0.51-1.02c0.11-0.02,0.21-0.03,0.32-0.05c0.85,1.44,2.53,1.84,2.44,1.74    c0,0-0.9-0.5-1.35-1.17c-0.17-0.25-0.29-0.49-0.37-0.7c0.08-0.02,0.17-0.03,0.25-0.05c1.04,2.14,2.97,2.29,3.34,2.19    c0,0-1.37-0.72-1.92-1.55c-0.21-0.32-0.36-0.62-0.45-0.88c0.18-0.05,0.36-0.1,0.54-0.16c0.41,0.51,0.94,0.86,1.34,0.95    c-0.33-0.3-0.61-0.66-0.82-1.12c0.24-0.08,0.47-0.17,0.7-0.27c1.35,1.51,3.63,1.52,3.5,1.42c0,0-1.41-0.24-2.09-0.95    c-0.28-0.29-0.48-0.57-0.62-0.82c0.14-0.07,0.28-0.14,0.41-0.21c1.6,2.1,3.48,1.37,3.48,1.37s-0.9-0.12-1.73-0.99    c-0.33-0.35-0.56-0.68-0.73-0.98c0.13-0.09,0.26-0.17,0.39-0.26c0.54,0.53,1.25,0.85,1.72,0.85c-0.47-0.28-0.89-0.65-1.22-1.22    c0.08-0.06,0.16-0.12,0.23-0.19c1.61,1.38,3.82,1.07,3.67,0.99c0,0-1.23-0.16-2.04-0.71c-0.44-0.3-0.75-0.63-0.95-0.88    c0.06-0.06,0.13-0.12,0.19-0.19c0.89,0.65,2.24,0.94,3.66,0.52c-0.8-0.1-2.19-0.66-2.83-1.46c0.04-0.05,0.03-0.04,0.07-0.08    c0.91,0.57,1.83,0.36,2.35,0.22c-0.56-0.16-1.29-0.4-1.83-0.93c0.02-0.04,0.02-0.03,0.05-0.08c2.33,0.78,2.77,0.23,2.77,0.23    c-0.91-0.21-1.73-0.5-2.33-0.96c0.01-0.02,0.02-0.03,0.03-0.05C444.68,77.64,446.21,78.22,447.72,77.85z"/>
		<linearGradient id="SVGID_77_" gradientUnits="userSpaceOnUse" x1="361.8834" y1="67.1111" x2="446.6242" y2="67.1111">
			<stop offset="0" style="stop-color:#C4A04F"/>
			<stop offset="0.3966" style="stop-color:#C9A94F"/>
			<stop offset="1" style="stop-color:#D4BE4F"/>
		</linearGradient>
		<path class="st28" d="M406.67,87.27c0,1.1,0.36,1.93,0.97,2.54c0.73,0.73,1.75,1.1,3.02,1.1c1.25,0,2.38-0.32,3.44-0.94    c0.36-0.21,0.71-0.46,1.05-0.73c1.31-1.1,2.32-2.41,3.1-4c0.77-1.59,1.14-3.06,1.14-4.45c0-1.5-0.16-2.88-0.44-4.14    c2.25-1.43,8.13-4.65,11.61-5.38c5.79-1.2,10.21-1.28,14.12-0.6c2.47,0.43,2.62-2.2,0.3-2.61c-3.23-0.57-11.63-0.02-17.51,2.4    c-1.88,0.77-7.34,3.86-8.79,5.11c-0.32-1.24-0.68-2.44-1.08-3.6c-0.41-1.14-0.78-2.28-1.06-3.39c-0.29-1.1-0.37-2.21-0.45-3.39    c-0.02-0.36-0.03-0.04-0.02-0.36c5.17-1.63,8.31-5.73,7.09-7.64c-0.07-0.11-0.16-0.21-0.26-0.29c-0.62-0.49-1.53-0.74-2.47-0.74    c-1.39,0-2.66,0.55-3.8,1.41c-1.18,0.86-2.08,2-2.73,3.34c-0.56,1.08-0.87,2.22-0.98,3.41c-1.35,1.53-2.68,3.08-4.04,4.63    c-3.43,3.96-6.48,7.42-9.22,10.36c-2.69,2.94-4.49,4.4-5.3,4.4c-0.57,0-0.86-0.45-0.86-1.31c0-2.98,3.92-12.89,11.79-29.69    c4.77-0.04,8.44-0.94,11.01-2.69c0.16-0.12,0.24-0.24,0.24-0.41c0-0.24-0.16-0.41-0.41-0.45c-0.12,0-0.24,0.04-0.37,0.08    c-2.61,1.67-6,2.49-10.07,2.53c1.35-2.9,2.04-4.45,2.04-4.65c0-0.29-0.2-0.45-0.61-0.57c-0.29-0.08-0.57-0.16-0.86-0.16    c-0.9,0-1.47,0.29-1.75,0.86c-0.29,0.77-0.98,2.28-2.12,4.53c-2.2-0.04-4.49-0.16-6.77-0.33c-2.32-0.16-4.53-0.29-6.73-0.37    c1.55-3.26,2.57-5.59,3.06-6.97l0.04-0.12c0-0.45-0.49-0.69-1.43-0.69c-0.94,0-1.51,0.29-1.75,0.86c-0.24,0.57-1.35,2.9-3.26,6.97    c-3.92,0.04-7.18,0.86-9.79,2.49c-0.12,0.12-0.2,0.24-0.2,0.41c0,0.08,0.04,0.16,0.12,0.29c0.08,0.12,0.2,0.16,0.33,0.16    c0.08,0,0.16-0.04,0.24-0.08c2.32-1.47,5.3-2.24,8.89-2.32c-1.54,3.26-2.92,6.27-4.14,9.04c-5.13,6.56-9.14,11.35-12.03,14.4    c-1.87,1.99-3.17,2.97-3.9,2.97c-0.49,0-0.73-0.37-0.73-1.1c0-1.18,0.58-3.3,1.73-6.33c0.42-1.12-0.49-2.28-1.68-2.13    c-0.01,0-0.02,0-0.04,0c-0.6,0.08-1.11,0.5-1.3,1.08c-0.76,2.32-1.15,4.26-1.15,5.8c0,0.73,0.08,1.34,0.24,1.91    c0.37,1.14,1.26,1.71,2.64,1.71c1.1,0,2.64-1.02,4.71-3.09c2.03-2.07,4.23-4.51,6.5-7.35c1.21-1.47,2.37-2.9,3.47-4.3    c-0.06,0.15-0.13,0.31-0.19,0.45l-1.28,3.17c-0.4,1.02-0.76,1.99-1.1,2.91c-1.71,4.73-2.57,8.28-2.57,10.65    c0,2.16,0.73,3.22,2.2,3.22c1.18,0,2.61-0.73,4.28-2.16c1.71-1.43,3.51-3.26,5.47-5.47c1.92-2.2,3.87-4.53,5.83-6.93    c1.22-1.47,2.45-2.9,3.59-4.24c-3.1,7.26-4.65,12.44-4.65,15.5c0,0.65,0.04,1.18,0.16,1.67c0.29,1.1,1.02,1.63,2.16,1.63    c1.14,0,2.57-0.73,4.24-2.2c1.71-1.43,3.51-3.26,5.47-5.47c1.96-2.2,4.06-4.16,6.02-6.57c1.36-1.64,2.58-2.86,3.83-4.31    c0.05,1.23,0.2,1.79,0.51,2.97c0.37,1.43,0.82,2.77,1.31,4.12c0.45,1.35,0.86,2.69,1.18,4c-2.37,1.59-4.36,3.02-5.95,4.36    c-1.67,1.43-2.57,2.41-3.18,4.32C406.78,86.3,406.64,86.67,406.67,87.27z M416.67,60.78c0.49-1.18,0.99-1.81,1.72-2.51    c1.3-1.03,2.32-1.06,2.86-0.96c0.28,0.05,0.52,0.27,0.56,0.56c0.13,0.84-0.28,2.8-5.73,5.16    C416.16,62.22,416.67,60.78,416.67,60.78z M392.14,68.84c-3.43,4-6.53,7.46-9.26,10.44c-2.73,2.98-4.53,4.45-5.38,4.45    c-0.53,0-0.77-0.41-0.77-1.22c0-3.02,3.92-13.17,11.75-30.47c2.37,0.04,4.73,0.16,7.1,0.33c2.16,0.16,4.28,0.29,6.36,0.37    c-0.86,1.84-2.49,5.34-4.94,10.56L392.14,68.84z M416.13,78.61c0.12,0.73,0.2,1.45,0.2,2.18c0,1.35-0.24,2.69-0.73,4.12    c-0.49,1.43-1.14,2.61-2,3.59c-0.86,0.98-1.84,1.47-2.94,1.47c-1.1,0-1.92-0.24-2.37-0.78c-0.49-0.53-0.69-1.1-0.69-1.75    c0-0.24,0.04-0.53,0.08-0.82v-0.04c0.29-1.18,1.26-2.49,2.9-3.92c1.2-1,2.66-2.09,4.37-3.28L416.13,78.61z"/>
		<linearGradient id="SVGID_78_" gradientUnits="userSpaceOnUse" x1="352.8368" y1="69.0207" x2="456.9582" y2="69.0207">
			<stop offset="0" style="stop-color:#C4A04F"/>
			<stop offset="0.3966" style="stop-color:#C9A94F"/>
			<stop offset="1" style="stop-color:#D4BE4F"/>
		</linearGradient>
		<path class="st29" d="M404.9,16.96c-28.75,0-52.06,23.31-52.06,52.06s23.31,52.06,52.06,52.06c28.75,0,52.06-23.31,52.06-52.06    S433.65,16.96,404.9,16.96z M404.9,118.84c-27.52,0-49.82-22.31-49.82-49.82S377.38,19.2,404.9,19.2    c27.52,0,49.82,22.31,49.82,49.82S432.41,118.84,404.9,118.84z"/>
	</g>
</g>
<g>
	<g>
		<g>
			<defs>
				<path id="SVGID_79_" d="M463.66,131.81"/>
			</defs>
			<clipPath id="SVGID_80_">
				<use xlink:href="#SVGID_79_" style="overflow:visible;"/>
			</clipPath>
			
				<linearGradient id="SVGID_81_" gradientUnits="userSpaceOnUse" x1="-141.7596" y1="362.2994" x2="-141.7596" y2="362.2994" gradientTransform="matrix(24.2687 0 0 -24.2687 3903.9854 8924.3545)">
				<stop offset="0" style="stop-color:#C4A04F"/>
				<stop offset="0.3966" style="stop-color:#C9A94F"/>
				<stop offset="1" style="stop-color:#D4BE4F"/>
			</linearGradient>
			<line class="st30" x1="463.66" y1="127.59" x2="463.66" y2="136.04"/>
		</g>
	</g>
	<g>
		
			<linearGradient id="SVGID_82_" gradientUnits="userSpaceOnUse" x1="466.5423" y1="61.2176" x2="466.5423" y2="61.2176" gradientTransform="matrix(0.9991 0.0428 -0.0428 0.9991 0.828 -3.2776)">
			<stop offset="0" style="stop-color:#C4A04F"/>
			<stop offset="0.3966" style="stop-color:#C9A94F"/>
			<stop offset="1" style="stop-color:#D4BE4F"/>
		</linearGradient>
		<path class="st31" d="M464.32,77.85"/>
		<linearGradient id="SVGID_83_" gradientUnits="userSpaceOnUse" x1="421.5012" y1="42.9904" x2="473.5619" y2="42.9904">
			<stop offset="0" style="stop-color:#C4A04F"/>
			<stop offset="0.3966" style="stop-color:#C9A94F"/>
			<stop offset="1" style="stop-color:#D4BE4F"/>
		</linearGradient>
		<path class="st32" d="M473.56,69.02 M421.5,16.96 M471.32,69.02 M421.5,19.2"/>
	</g>
</g>
</svg>
