<svg width="40" height="40" viewBox="0 0 40 40" fill="none" xmlns="http://www.w3.org/2000/svg">
<g clip-path="url(#clip0_2415_2179)">
<path d="M9.375 30.625H34.5312C36.6886 30.625 38.4375 32.3739 38.4375 34.5313M38.4375 34.5313C38.4375 36.6886 36.6886 38.4375 34.5312 38.4375H9.375C5.06031 38.4375 1.5625 34.9397 1.5625 30.625M38.4375 34.5313V27.1875M1.5625 30.625V9.37504C1.5625 5.06035 5.06031 1.56254 9.375 1.56254H12.2656M1.5625 30.625C1.5625 26.3104 5.06031 22.8125 9.375 22.8125H32.1875C35.6393 22.8125 38.4375 20.0143 38.4375 16.5625V9.37504C38.4375 5.06035 34.9397 1.56254 30.625 1.56254H28.75M19.9218 14.0962C21.4923 14.7136 23.9562 15.3561 26.1634 14.5296C28.3706 13.7031 29.8072 11.6 30.5864 10.1027C31.0586 9.19527 30.6394 8.07496 29.6876 7.70074C28.3709 7.18309 26.4262 6.64785 24.5312 6.97551M16.2682 6.95309C14.4173 6.67379 12.5347 7.19559 11.2499 7.70066C10.2981 8.07488 9.87891 9.1952 10.3511 10.1026C11.1302 11.6 12.5669 13.703 14.7741 14.5295C16.7068 15.2532 18.8364 14.8507 20.3906 14.3248M24.375 7.81254C24.375 10.1641 22.913 12.2419 21.7869 13.4936C21.1044 14.2522 19.9113 14.2522 19.2288 13.4936C18.1026 12.2419 16.6406 10.1641 16.6406 7.81254C16.6406 5.46098 18.1026 3.38316 19.2288 2.13145C19.9113 1.37285 21.1044 1.37285 21.7869 2.13145C22.913 3.38316 24.375 5.46098 24.375 7.81254Z" stroke="#F36249" stroke-width="3.125" stroke-miterlimit="10" stroke-linecap="round" stroke-linejoin="round"/>
</g>
<defs>
<clipPath id="clip0_2415_2179">
<rect width="40" height="40" fill="white"/>
</clipPath>
</defs>
</svg>
