<svg width="40" height="40" viewBox="0 0 40 40" fill="none" xmlns="http://www.w3.org/2000/svg">
<path d="M10.625 10.9375C10.625 10.9375 7.5 16.875 7.5 24.6875C7.5 29.8399 8.85922 34.0003 9.78484 36.4488C10.2419 37.6577 11.4055 38.4375 12.698 38.4375H27.302C28.5944 38.4375 29.7581 37.6577 30.2151 36.4488C31.1408 34.0003 32.5 29.8399 32.5 24.6875C32.5 16.875 29.375 10.9375 29.375 10.9375M29.375 4.6875C29.375 2.96164 27.9759 1.5625 26.25 1.5625C24.5241 1.5625 23.125 2.96164 23.125 4.6875" stroke="#F36249" stroke-width="3.125" stroke-miterlimit="10" stroke-linecap="round" stroke-linejoin="round"/>
<path d="M16.875 4.6875C16.875 2.96164 15.4759 1.5625 13.75 1.5625C12.0241 1.5625 10.625 2.96164 10.625 4.6875V10.9375H29.375" stroke="#F36249" stroke-width="3.125" stroke-miterlimit="10" stroke-linecap="round" stroke-linejoin="round"/>
<path d="M16.875 4.6875C16.875 2.96164 18.2741 1.5625 20 1.5625C21.7259 1.5625 23.125 2.96164 23.125 4.6875M15.3125 30.9375H24.6875M23.125 24.6875H20C18.2741 24.6875 16.875 23.2884 16.875 21.5625V18.4375H20C21.7259 18.4375 23.125 19.8366 23.125 21.5625V24.6875Z" stroke="#F36249" stroke-width="3.125" stroke-miterlimit="10" stroke-linecap="round" stroke-linejoin="round"/>
</svg>
