<svg xmlns="http://www.w3.org/2000/svg" width="128" height="128" viewBox="0 0 128 128" fill="none">
  <g stroke="#FFFFFF" stroke-linecap="round" stroke-linejoin="round">

    <!-- Upper elegant eyelid (main shape) -->
    <path d="M20 70C34 48 50 40 64 40C78 40 94 48 108 70" stroke-width="1.6"/>

    <!-- Inner eye depth (subtle, refined) -->
    <path d="M38 72C46 78 54 82 64 82C74 82 82 78 90 72" stroke-width="1.2" opacity="0.9"/>

    <!-- Inner contour (adds luxury detail) -->
    <path d="M48 66C52 63 57 61.5 64 61.5C71 61.5 76 63 80 66" stroke-width="1" opacity="0.75"/>

    <!-- Lash extensions (left - varied, curved, natural fan) -->
    <path d="M34 60C31 54 29 49 28 44" stroke-width="1.4"/>
    <path d="M44 55C42 49 42 44 43 38" stroke-width="1.4"/>
    <path d="M55 52C54 46 55 41 58 36" stroke-width="1.4"/>

    <!-- Lash extensions (right - mirrored but not identical feel) -->
    <path d="M94 60C97 54 99 49 100 44" stroke-width="1.4"/>
    <path d="M84 55C86 49 86 44 85 38" stroke-width="1.4"/>
    <path d="M73 52C74 46 73 41 70 36" stroke-width="1.4"/>

    <!-- Outer elongated lash (signature luxury touch) -->
    <path d="M104 66C109 63 113 59 116 54" stroke-width="1.5"/>
    <path d="M24 66C19 63 15 59 12 54" stroke-width="1.5"/>

  </g>
</svg>