<svg width="40" height="40" viewBox="0 0 40 40" fill="none" xmlns="http://www.w3.org/2000/svg">
<path d="M9.06248 38.4375C5.61069 38.4375 2.8125 35.6393 2.8125 32.1875V23.4375C2.8125 21.7117 4.21164 20.3126 5.93749 20.3126H12.1875C13.9133 20.3126 15.3125 21.7117 15.3125 23.4375V32.1875C15.3125 35.6393 12.5143 38.4375 9.06248 38.4375Z" stroke="#001E2C" stroke-width="3.12499" stroke-miterlimit="10" stroke-linecap="round" stroke-linejoin="round"/>
<path d="M5.9375 14.0625V1.56254C9.38929 1.56254 12.1875 4.36073 12.1875 7.81252V14.0625" stroke="#001E2C" stroke-width="3.12499" stroke-miterlimit="10" stroke-linecap="round" stroke-linejoin="round"/>
<path d="M30.9375 20.3126V35.3125C30.9375 37.0384 29.5383 38.4375 27.8125 38.4375C26.0866 38.4375 24.6875 37.0384 24.6875 35.3125V20.3126" stroke="#001E2C" stroke-width="3.12499" stroke-miterlimit="10" stroke-linecap="round" stroke-linejoin="round"/>
<path d="M34.0625 1.56254H21.5625C19.8366 1.56254 18.4375 2.9616 18.4375 4.68753C18.4364 5.36306 18.6553 6.02059 19.061 6.56073L24.6875 14.0625H30.9375L36.5639 6.56073C36.9696 6.02059 37.1885 5.36306 37.1874 4.68753C37.1874 2.9616 35.7884 1.56254 34.0625 1.56254Z" stroke="#001E2C" stroke-width="3.12499" stroke-miterlimit="10" stroke-linecap="round" stroke-linejoin="round"/>
<path d="M27.8125 1.56252V7.8125" stroke="#001E2C" stroke-width="3.12499" stroke-miterlimit="10" stroke-linecap="round" stroke-linejoin="round"/>
</svg>
