<svg width="40" height="40" viewBox="0 0 40 40" fill="none" xmlns="http://www.w3.org/2000/svg">
<path d="M7.5 19.6875V16.5625C7.5 14.8366 8.89914 13.4375 10.625 13.4375H29.375C31.1009 13.4375 32.5 14.8366 32.5 16.5625V19.6875M7.5 19.6875C5.77414 19.6875 4.375 21.0866 4.375 22.8125C4.37475 23.0981 4.41363 23.3824 4.49055 23.6574L7.67336 35.0173C8.22617 36.9905 10.0378 38.4375 12.1875 38.4375H27.8125C29.9622 38.4375 31.7738 36.9905 32.3266 35.0173L35.5095 23.6574C35.5848 23.3887 35.625 23.1053 35.625 22.8125C35.625 21.0866 34.2259 19.6875 32.5 19.6875M7.5 19.6875H26.25M32.5 19.6875H32.7618M27.7188 7.1875C27.7802 6.88461 27.8125 6.57109 27.8125 6.25C27.8125 3.66117 25.7138 1.5625 23.125 1.5625C23.125 3.28836 21.7259 4.6875 20 4.6875H15.3125C13.8077 4.6875 12.5423 5.76555 12.2507 7.1875" stroke="#F36249" stroke-width="3.125" stroke-miterlimit="10" stroke-linecap="round" stroke-linejoin="round"/>
<path d="M20 32.1875C21.7259 32.1875 23.125 30.7884 23.125 29.0625C23.125 27.3366 21.7259 25.9375 20 25.9375C18.2741 25.9375 16.875 27.3366 16.875 29.0625C16.875 30.7884 18.2741 32.1875 20 32.1875Z" stroke="#F36249" stroke-width="3.125" stroke-miterlimit="10" stroke-linecap="round" stroke-linejoin="round"/>
</svg>
