<svg width="40" height="40" viewBox="0 0 40 40" fill="none" xmlns="http://www.w3.org/2000/svg">
<path d="M13.75 14.0625V14.5266C13.75 15.8265 13.0079 17.0955 11.7745 17.5061C9.29086 18.3329 7.5 20.6759 7.5 23.4375V32.1875C7.5 35.6393 10.2982 38.4375 13.75 38.4375H26.25C29.7018 38.4375 32.5 35.6393 32.5 32.1875V23.4375C32.5 20.6759 30.7091 18.3329 28.2255 17.5061C26.9921 17.0955 26.25 15.8265 26.25 14.5266V14.0625M26.25 7.8125H13.75C12.0241 7.8125 10.625 6.41336 10.625 4.6875C10.625 2.96164 12.0241 1.5625 13.75 1.5625H26.25C27.9759 1.5625 29.375 2.96164 29.375 4.6875C29.375 6.41336 27.9759 7.8125 26.25 7.8125Z" stroke="#F36249" stroke-width="3.125" stroke-miterlimit="10" stroke-linecap="round" stroke-linejoin="round"/>
<path d="M23.125 29.0625C23.125 30.7884 21.7259 32.1875 20 32.1875C18.2741 32.1875 16.875 30.7884 16.875 29.0625C16.875 27.3366 20 22.8125 20 22.8125C20 22.8125 23.125 27.3366 23.125 29.0625Z" stroke="#F36249" stroke-width="3.125" stroke-miterlimit="10" stroke-linecap="round" stroke-linejoin="round"/>
</svg>
