<svg width="40" height="40" viewBox="0 0 40 40" fill="none" xmlns="http://www.w3.org/2000/svg">
<path d="M15.3125 10.9375V7.8125M15.3125 7.8125H24.6875M15.3125 7.8125H12.1875C10.4616 7.8125 9.0625 6.41336 9.0625 4.6875C9.0625 2.96164 10.4616 1.5625 12.1875 1.5625C13.9134 1.5625 15.3125 2.96164 15.3125 4.6875V7.8125ZM24.6875 7.8125C24.6875 9.53836 26.0866 10.9375 27.8125 10.9375H34.0625V4.6875H27.8125C26.0866 4.6875 24.6875 6.08664 24.6875 7.8125ZM24.6875 26.5625V35.3125C24.6875 37.0312 23.2812 38.4375 21.5625 38.4375H9.0625C7.34375 38.4375 5.9375 37.0312 5.9375 35.3125V26.5625C5.9375 25.5922 6.33539 25.1261 6.46867 24.8125L9.3125 19.0937C9.58523 18.7799 10.0951 17.1875 12.1875 17.1875H18.4375C20.53 17.1875 21.0406 18.7809 21.3124 19.0937L24.1563 24.8125C24.2894 25.1255 24.6875 25.5984 24.6875 26.5625Z" stroke="#F36249" stroke-width="3.125" stroke-miterlimit="10" stroke-linecap="round" stroke-linejoin="round"/>
<path d="M18.4375 32.1875H15.3125C13.5866 32.1875 12.1875 30.7884 12.1875 29.0625V25.9375H15.3125C17.0384 25.9375 18.4375 27.3366 18.4375 29.0625V32.1875Z" stroke="#F36249" stroke-width="3.125" stroke-miterlimit="10" stroke-linecap="round" stroke-linejoin="round"/>
</svg>
