<svg width="127" height="127" viewBox="0 0 127 127" fill="none" xmlns="http://www.w3.org/2000/svg">
<circle cx="63.25" cy="63.25" r="60.375" fill="#001E2C" stroke="#F36249" stroke-width="5.75"/>
<path d="M69.7478 20.5994L70.5868 14.3132C70.6115 14.1282 70.6368 13.9385 70.6627 13.7442C70.6991 13.5419 70.7368 13.3304 70.7757 13.1096C70.4204 13.3729 70.0244 13.5884 69.5877 13.7561C69.1615 13.9158 68.7295 14.0135 68.2915 14.0492L68.1862 12.7216C68.3842 12.7198 68.6195 12.6853 68.8921 12.6181C69.1648 12.5509 69.4503 12.4572 69.7489 12.337C70.0474 12.2167 70.324 12.0842 70.5788 11.9393C70.8347 11.7851 71.0392 11.6288 71.1922 11.4703L72.4411 11.637L71.2188 20.7958L69.7478 20.5994ZM76.6753 22.3808C75.6127 22.0577 74.8945 21.4199 74.5208 20.4673C74.1587 19.5085 74.2043 18.2835 74.6578 16.7922C75.1112 15.301 75.7538 14.2623 76.5855 13.6763C77.429 13.084 78.382 12.9494 79.4446 13.2725C80.5162 13.5983 81.233 14.2406 81.5951 15.1994C81.9688 16.152 81.929 17.3739 81.4756 18.8652C81.0222 20.3564 80.3738 21.3982 79.5303 21.9905C78.6986 22.5765 77.7469 22.7066 76.6753 22.3808ZM77.0459 21.1619C77.4745 21.2922 77.8684 21.2803 78.2274 21.1261C78.5981 20.9656 78.9296 20.6616 79.2218 20.2139C79.5256 19.76 79.7902 19.1624 80.0156 18.4213C80.2409 17.6801 80.3524 17.0409 80.3499 16.5036C80.3591 15.9601 80.2529 15.523 80.0316 15.1923C79.8218 14.8554 79.5027 14.6217 79.074 14.4914C78.6454 14.3611 78.2457 14.3762 77.875 14.5366C77.516 14.6908 77.189 14.9962 76.8941 15.4529C76.6019 15.9006 76.3431 16.495 76.1178 17.2362C75.8924 17.9773 75.7752 18.6197 75.766 19.1632C75.7595 19.6977 75.8612 20.1335 76.0709 20.4704C76.2923 20.8011 76.6173 21.0316 77.0459 21.1619ZM84.7011 25.7438C83.7253 25.2133 83.1504 24.4438 82.9763 23.4354C82.8148 22.4234 83.1064 21.2327 83.851 19.8634C84.5956 18.494 85.4343 17.6062 86.3671 17.1998C87.3126 16.7896 88.2732 16.8498 89.2489 17.3804C90.2328 17.9154 90.8055 18.689 90.967 19.7011C91.1411 20.7094 90.8559 21.8982 90.1113 23.2676C89.3667 24.6369 88.5216 25.5266 87.5762 25.9368C86.6434 26.3432 85.685 26.2789 84.7011 25.7438ZM85.3097 24.6246C85.7032 24.8386 86.0914 24.9063 86.4742 24.8276C86.8696 24.7451 87.2555 24.5141 87.6319 24.1345C88.021 23.7511 88.4006 23.2191 88.7707 22.5386C89.1407 21.858 89.3787 21.2543 89.4845 20.7276C89.603 20.1971 89.5872 19.7475 89.437 19.379C89.2994 19.0068 89.0339 18.7136 88.6403 18.4996C88.2467 18.2856 87.8522 18.2198 87.4568 18.3023C87.074 18.381 86.6922 18.6142 86.3113 19.0021C85.9349 19.3817 85.5617 19.9118 85.1916 20.5923C84.8215 21.2729 84.5772 21.8784 84.4588 22.4089C84.3447 22.9313 84.3565 23.3785 84.494 23.7508C84.6442 24.1193 84.9161 24.4106 85.3097 24.6246ZM90.4592 29.3896L101.15 26.6224L102.103 27.4889L91.4225 30.2656L90.4592 29.3896ZM97.0391 22.6947C97.3913 23.015 97.6229 23.3707 97.734 23.7618C97.852 24.1593 97.8513 24.5623 97.732 24.971C97.6195 25.386 97.3875 25.7868 97.0358 26.1735C96.6905 26.5533 96.3134 26.8223 95.9047 26.9805C95.5092 27.138 95.108 27.1769 94.7011 27.0971C94.3012 27.0236 93.9252 26.8267 93.573 26.5064C93.2278 26.1925 92.9961 25.8368 92.8782 25.4393C92.7602 25.0419 92.7574 24.6357 92.8698 24.2207C92.9955 23.8051 93.231 23.4074 93.5763 23.0276C93.928 22.6409 94.3015 22.3688 94.6971 22.2113C95.0996 22.0601 95.5042 22.0243 95.911 22.1041C96.3178 22.1839 96.6939 22.3808 97.0391 22.6947ZM96.3045 23.5027C96.1318 23.3457 95.9426 23.2556 95.7366 23.2323C95.537 23.2021 95.3308 23.2417 95.1179 23.3509C94.9113 23.4532 94.7013 23.6217 94.4878 23.8565C94.2806 24.0844 94.1327 24.3094 94.0442 24.5317C93.9556 24.7539 93.9358 24.963 93.9847 25.1589C94.0337 25.3547 94.1445 25.5312 94.3171 25.6882C94.4966 25.8514 94.6862 25.9481 94.8859 25.9783C95.0855 26.0085 95.2918 25.9689 95.5046 25.8597C95.7175 25.7505 95.9275 25.582 96.1347 25.3541C96.3482 25.1193 96.4961 24.8943 96.5784 24.6789C96.6669 24.4567 96.6867 24.2476 96.6378 24.0517C96.5951 23.8489 96.484 23.6659 96.3045 23.5027ZM98.9894 30.3721C99.3416 30.6923 99.5732 31.048 99.6843 31.4392C99.8022 31.8366 99.7984 32.2431 99.6728 32.6587C99.5603 33.0737 99.3315 33.4711 98.9861 33.8509C98.6345 34.2376 98.2574 34.5065 97.855 34.6578C97.4594 34.8153 97.0582 34.8542 96.6514 34.7744C96.2515 34.7009 95.8754 34.504 95.5233 34.1838C95.178 33.8698 94.9464 33.5141 94.8284 33.1167C94.7104 32.7193 94.7077 32.3131 94.8201 31.8981C94.9394 31.4894 95.1749 31.0917 95.5266 30.705C95.8719 30.3252 96.2424 30.0565 96.6379 29.899C97.0467 29.7409 97.4544 29.7017 97.8613 29.7815C98.2681 29.8612 98.6441 30.0581 98.9894 30.3721ZM98.2453 31.1904C98.0727 31.0334 97.8865 30.9398 97.6869 30.9096C97.4872 30.8795 97.281 30.919 97.0681 31.0282C96.8616 31.1305 96.6515 31.2991 96.4381 31.5338C96.2308 31.7617 96.083 31.9868 95.9944 32.209C95.9058 32.4313 95.8829 32.6438 95.9256 32.8466C95.9745 33.0425 96.0853 33.2189 96.2579 33.3759C96.4375 33.5391 96.6271 33.6358 96.8267 33.666C97.0326 33.6893 97.242 33.6463 97.4549 33.5371C97.6677 33.4279 97.8777 33.2593 98.085 33.0314C98.2922 32.8036 98.4401 32.5785 98.5286 32.3563C98.6172 32.134 98.637 31.925 98.588 31.7291C98.5391 31.5332 98.4248 31.3536 98.2453 31.1904ZM112.718 43.384L104.489 47.586L103.801 46.2394L112.031 42.0374L112.718 43.384ZM109.955 37.9726L101.726 42.1746L101.045 40.8405L109.274 36.6385L109.955 37.9726ZM108.883 44.4934L107.736 45.0791L104.979 39.6802L106.127 39.0945L108.883 44.4934ZM113.789 53.9583L105.43 53.0856C104.853 53.0317 104.38 52.93 104.009 52.7806C103.641 52.6401 103.349 52.4401 103.132 52.1804C102.915 51.9208 102.752 51.593 102.643 51.1972C102.553 50.8733 102.515 50.5595 102.528 50.2558C102.534 49.9635 102.581 49.694 102.668 49.4474L103.885 49.489C103.788 49.6997 103.73 49.9094 103.71 50.1182C103.693 50.336 103.715 50.5574 103.777 50.7823C103.844 51.0252 103.971 51.2225 104.158 51.3742C104.339 51.5373 104.644 51.642 105.073 51.6881L105.884 51.7838L107.36 50.6066L111.893 47.0893L112.34 48.7087L108.516 51.3765L107.356 52.1181L108.869 52.1797L113.376 52.4603L113.789 53.9583ZM116.206 62.3582L115.059 62.7097C115.056 62.6819 115.054 62.654 115.051 62.6261C115.058 62.5974 115.059 62.569 115.057 62.5412C115.013 62.0953 114.882 61.7658 114.664 61.5527C114.456 61.3387 114.171 61.2494 113.808 61.2849L114.072 60.5276C114.443 60.4912 114.781 60.5379 115.084 60.6676C115.397 60.7964 115.651 60.9965 115.846 61.2681C116.043 61.549 116.159 61.8752 116.195 62.2467C116.197 62.2653 116.199 62.2839 116.201 62.3025C116.203 62.3211 116.205 62.3396 116.206 62.3582ZM108.648 60.8761C108.717 61.582 108.613 62.1455 108.335 62.5666C108.067 62.9868 107.659 63.2237 107.111 63.2774C106.628 63.3247 106.199 63.2119 105.826 62.9391C105.443 62.6671 105.132 62.2755 104.895 61.7642C104.658 61.2623 104.506 60.6722 104.44 59.9942C104.328 58.8516 104.422 57.989 104.721 57.4064C105.02 56.8238 105.435 56.5066 105.964 56.4547C106.336 56.4183 106.673 56.5165 106.978 56.7493C107.283 56.9913 107.485 57.4264 107.584 58.0544L107.353 57.9926C107.398 57.5943 107.516 57.2639 107.706 57.0015C107.906 56.7474 108.206 56.6008 108.605 56.5617C109.004 56.5226 109.358 56.6426 109.667 56.9219C109.976 57.2011 110.181 57.6171 110.282 58.1699L109.982 58.987L109.966 58.8198C109.887 58.3962 109.76 58.1038 109.584 57.9428C109.409 57.7818 109.224 57.7108 109.029 57.7299C108.797 57.7527 108.633 57.8531 108.538 58.0312C108.444 58.2186 108.412 58.4703 108.443 58.7861L108.648 60.8761ZM105.554 59.885C105.605 60.3958 105.697 60.8088 105.831 61.1239C105.956 61.4492 106.106 61.6831 106.279 61.8255C106.444 61.9782 106.62 62.0454 106.805 62.0272C107.019 62.0063 107.182 61.9012 107.295 61.712C107.409 61.532 107.444 61.2191 107.4 60.7733L107.18 58.53C107.155 58.2699 107.068 58.058 106.921 57.8942C106.764 57.7314 106.57 57.6614 106.338 57.6841C106.031 57.7141 105.808 57.9236 105.668 58.3124C105.528 58.7013 105.49 59.2254 105.554 59.885ZM114.536 58.9488C114.596 59.5619 114.55 60.1009 114.399 60.5659C114.249 61.0401 114.009 61.4153 113.679 61.6914C113.351 61.9768 112.95 62.1427 112.476 62.1891C112.002 62.2355 111.577 62.1506 111.199 61.9344C110.823 61.7274 110.514 61.406 110.275 60.9699C110.036 60.5432 109.887 60.0232 109.827 59.4102C109.732 58.4441 109.873 57.6801 110.249 57.1181C110.636 56.5644 111.182 56.253 111.888 56.1838C112.362 56.1374 112.787 56.2223 113.165 56.4386C113.542 56.6548 113.85 56.9763 114.089 57.403C114.329 57.8391 114.478 58.3543 114.536 58.9488ZM113.491 59.0512C113.449 58.6239 113.293 58.2781 113.024 58.0138C112.764 57.7579 112.435 57.6495 112.035 57.6886C111.636 57.7278 111.329 57.8985 111.115 58.2008C110.901 58.5124 110.816 58.8819 110.858 59.3092C110.9 59.7457 111.056 60.0915 111.325 60.3465C111.595 60.6108 111.929 60.7234 112.329 60.6843C112.728 60.6452 113.03 60.4702 113.234 60.1595C113.448 59.8572 113.534 59.4878 113.491 59.0512ZM115.91 65.5872C115.921 65.2607 116.008 65.0113 116.172 64.8391C116.345 64.6765 116.581 64.5999 116.88 64.6094C117.178 64.6188 117.404 64.71 117.557 64.8829C117.71 65.0652 117.782 65.3196 117.771 65.6461C117.761 65.9633 117.674 66.2033 117.51 66.3662C117.346 66.5384 117.115 66.6198 116.816 66.6104C116.518 66.6009 116.287 66.5049 116.125 66.3224C115.972 66.1494 115.9 65.9044 115.91 65.5872ZM114.711 66.2916L107.715 66.0702L107.762 64.573L114.759 64.7944L114.711 66.2916ZM106.842 71.4107C106.957 70.7202 107.201 70.1364 107.574 69.6592C107.947 69.1821 108.425 68.8407 109.008 68.6351C109.599 68.4403 110.267 68.405 111.012 68.5294C111.758 68.6537 112.374 68.9031 112.861 69.2775C113.355 69.6627 113.701 70.1368 113.901 70.6999C114.1 71.2631 114.145 71.8715 114.037 72.5251C113.924 73.1972 113.691 73.7449 113.337 74.1684C112.982 74.5919 112.545 74.888 112.025 75.0567C111.505 75.2255 110.941 75.2592 110.333 75.1579C110.167 75.1303 110.012 75.0996 109.866 75.0658C109.72 75.032 109.594 74.9967 109.486 74.9599L110.412 69.4085L111.544 69.5973L110.727 74.4997L110.628 73.7309C111.254 73.8353 111.759 73.7586 112.142 73.5009C112.535 73.2446 112.777 72.8449 112.867 72.3018C112.933 71.9059 112.899 71.5453 112.764 71.22C112.629 70.8947 112.39 70.6231 112.048 70.4052C111.715 70.1889 111.286 70.0369 110.762 69.9494C110.246 69.8635 109.795 69.8734 109.408 69.9793C109.021 70.0851 108.711 70.2746 108.476 70.5477C108.241 70.8208 108.089 71.1645 108.02 71.5788C107.943 72.0391 107.969 72.4265 108.096 72.7411C108.223 73.0556 108.43 73.3219 108.715 73.5398L107.967 74.6215C107.663 74.4005 107.411 74.1266 107.21 73.7998C107.017 73.4837 106.888 73.1215 106.823 72.7134C106.759 72.3052 106.765 71.871 106.842 71.4107ZM105.941 76.3086L112.495 78.7654L112.029 80.0108L110.29 79.4638L110.542 79.349C110.872 79.6123 111.117 79.9033 111.277 80.2223C111.442 80.5532 111.522 80.8973 111.518 81.2545C111.51 81.6205 111.439 81.9826 111.305 82.341C111.131 82.8042 110.884 83.1849 110.563 83.4832C110.247 83.7935 109.869 83.9907 109.429 84.0749C108.989 84.1591 108.493 84.098 107.943 83.8916L103.695 82.2997L104.221 80.8969L108.036 82.3268C108.683 82.5692 109.179 82.6008 109.525 82.4215C109.877 82.2544 110.128 81.9697 110.279 81.5677C110.387 81.2793 110.422 80.9734 110.384 80.6501C110.354 80.33 110.225 80.0226 109.997 79.7276C109.765 79.4415 109.4 79.205 108.902 79.0183L105.415 77.7113L105.941 76.3086ZM109.568 88.9258C109.724 88.6391 109.915 88.456 110.139 88.3764C110.367 88.3095 110.612 88.3476 110.874 88.4908C111.136 88.634 111.297 88.8173 111.355 89.0408C111.409 89.2725 111.358 89.5317 111.202 89.8184C111.05 90.0969 110.864 90.2718 110.644 90.3432C110.42 90.4228 110.176 90.391 109.914 90.2478C109.652 90.1046 109.49 89.915 109.427 89.6788C109.369 89.4553 109.415 89.2043 109.568 88.9258ZM108.18 89.0133L102.036 85.6577L102.755 84.343L108.898 87.6986L108.18 89.0133ZM104.725 94.3039C104.392 94.7543 104.041 95.0872 103.673 95.3026C103.307 95.531 102.924 95.6653 102.522 95.7055C102.121 95.7457 101.725 95.7083 101.334 95.5935L101.725 94.1235C102.142 94.2811 102.521 94.3176 102.862 94.2331C103.205 94.1616 103.504 93.9532 103.759 93.6079C104.009 93.2702 104.144 92.9229 104.164 92.5662C104.191 92.2151 104.105 91.8676 103.907 91.5236C103.703 91.1872 103.387 90.8609 102.959 90.5447C102.539 90.234 102.135 90.0343 101.748 89.9456C101.361 89.8569 101.004 89.8771 100.676 90.0064C100.349 90.1356 100.063 90.3654 99.8187 90.6956C99.6301 90.9508 99.5077 91.2028 99.4516 91.4514C99.403 91.7057 99.4131 91.9511 99.482 92.1876C99.5528 92.4373 99.688 92.6706 99.8874 92.8876L98.7087 93.7051C98.4486 93.3504 98.2741 92.9662 98.1854 92.5524C98.0985 92.1517 98.1058 91.7335 98.2073 91.2978C98.3163 90.8677 98.5289 90.4387 98.8451 90.0109C99.2555 89.4554 99.7352 89.0498 100.284 88.7939C100.833 88.538 101.414 88.4509 102.027 88.5324C102.642 88.627 103.253 88.899 103.861 89.3483C104.469 89.7976 104.905 90.2995 105.168 90.8539C105.433 91.4214 105.527 92.0013 105.449 92.5936C105.366 93.1934 105.124 93.7635 104.725 94.3039ZM90.6463 98.3127C91.1467 97.9377 91.6414 97.6952 92.1305 97.5852C92.6177 97.4883 93.0741 97.5136 93.4997 97.6612C93.9178 97.8144 94.2779 98.0927 94.5802 98.496C94.7537 98.7275 94.889 98.9702 94.986 99.2241C95.0811 99.4911 95.1305 99.7748 95.1341 100.075C95.1359 100.389 95.0713 100.723 94.9406 101.078C94.8154 101.44 94.6099 101.827 94.3242 102.24L94.03 102.757C93.86 103.153 93.7386 103.489 93.6657 103.765C93.5853 104.047 93.5629 104.297 93.5983 104.516C93.6262 104.74 93.7185 104.956 93.8752 105.165C94.06 105.412 94.2774 105.546 94.5275 105.569C94.7776 105.591 95.0259 105.51 95.2724 105.325C95.5637 105.107 95.7224 104.86 95.7486 104.584C95.773 104.32 95.7012 104.077 95.5333 103.853C95.4325 103.718 95.3159 103.602 95.1834 103.503C95.0434 103.409 94.8437 103.314 94.5843 103.217C94.3174 103.125 93.9497 103.016 93.4812 102.889C93.0183 102.769 92.3967 102.617 91.6165 102.432C90.8494 102.249 90.2166 102.105 89.7183 102C89.218 101.908 88.812 101.857 88.5003 101.846C88.1942 101.842 87.9394 101.875 87.7359 101.946C87.5305 102.03 87.3261 102.154 87.1226 102.318L86.6693 101.293C86.9083 101.114 87.1519 100.973 87.4002 100.868C87.6355 100.762 87.9342 100.701 88.2963 100.686C88.651 100.677 89.112 100.716 89.6795 100.804C90.2394 100.898 90.9552 101.044 91.8269 101.242C92.6407 101.425 93.322 101.579 93.8708 101.705C94.4177 101.843 94.8628 101.97 95.2062 102.086C95.5478 102.215 95.825 102.351 96.0377 102.495C96.2561 102.646 96.4492 102.834 96.6171 103.058C96.8242 103.334 96.9548 103.656 97.0088 104.024C97.0684 104.399 97.0179 104.775 96.8572 105.152C96.6947 105.542 96.3819 105.911 95.9189 106.258C95.5455 106.538 95.1777 106.709 94.8155 106.77C94.4534 106.832 94.1118 106.796 93.7908 106.663C93.4753 106.538 93.2029 106.322 92.9734 106.016C92.7607 105.732 92.6142 105.428 92.5341 105.103C92.4539 104.779 92.4643 104.403 92.5652 103.978C92.6587 103.558 92.867 103.058 93.1901 102.477L93.4423 102.043C93.6571 101.614 93.8028 101.248 93.8794 100.946C93.956 100.643 93.9683 100.372 93.9161 100.131C93.8695 99.8976 93.7538 99.6577 93.5691 99.4113C93.3788 99.1573 93.1502 98.9846 92.8833 98.893C92.6145 98.8146 92.3317 98.8107 92.0349 98.8816C91.7381 98.9524 91.4515 99.0914 91.1751 99.2985C90.7793 99.5952 90.4936 99.9143 90.318 100.256C90.1481 100.605 90.0359 100.992 89.9817 101.418L89.9508 101.703C89.9842 102.121 90.0868 102.546 90.2583 102.977C90.4225 103.414 90.6939 103.846 91.0727 104.274L90.1009 104.915C89.7277 104.448 89.4442 103.938 89.2502 103.383C89.0488 102.834 88.9556 102.274 88.9708 101.703L89.0101 101.289C89.0215 100.744 89.157 100.216 89.4166 99.7067C89.6762 99.1972 90.0861 98.7325 90.6463 98.3127ZM80.7161 114.088C79.7809 114.411 78.9591 114.433 78.2507 114.154C77.5336 113.878 77.038 113.343 76.764 112.549C76.481 111.728 76.5397 110.997 76.9403 110.355C77.3352 109.725 78.0002 109.249 78.9355 108.927L79.0404 108.801L81.0653 108.103L79.8599 104.609L81.2628 104.125L84.2762 112.86L80.7161 114.088ZM79.4203 109.989C78.8468 110.186 78.4629 110.447 78.2685 110.771C78.0683 111.107 78.052 111.517 78.2194 112.002C78.3837 112.479 78.6482 112.787 79.0127 112.928C79.3684 113.072 79.833 113.045 80.4065 112.847L82.4579 112.139L81.4716 109.281L79.4203 109.989ZM78.4861 109.985L74.1294 106.586L75.7572 106.024L79.5119 109.009L78.4861 109.985ZM69.6441 107.109C70.3377 107.015 70.9676 107.075 71.5337 107.29C72.0998 107.505 72.5672 107.861 72.9361 108.357C73.2969 108.864 73.5282 109.492 73.63 110.241C73.7318 110.99 73.6758 111.652 73.4619 112.228C73.2401 112.814 72.8897 113.285 72.4108 113.642C71.9318 113.999 71.364 114.222 70.7074 114.312C70.0323 114.403 69.44 114.342 68.9307 114.129C68.4213 113.916 68.0091 113.586 67.694 113.139C67.379 112.692 67.18 112.163 67.0971 111.552C67.0745 111.386 67.0577 111.228 67.0469 111.079C67.036 110.93 67.0323 110.798 67.0357 110.685L72.6125 109.927L72.767 111.065L67.8423 111.734L68.5474 111.412C68.6328 112.041 68.8554 112.5 69.2151 112.791C69.576 113.09 70.0293 113.203 70.5749 113.129C70.9726 113.075 71.3069 112.935 71.5777 112.71C71.8485 112.485 72.0374 112.176 72.1443 111.785C72.2526 111.403 72.2709 110.948 72.1992 110.421C72.1289 109.903 71.986 109.475 71.7705 109.137C71.555 108.799 71.2821 108.558 70.9518 108.415C70.6214 108.271 70.2482 108.228 69.832 108.285C69.3696 108.347 69.007 108.486 68.7442 108.701C68.4813 108.915 68.288 109.191 68.1643 109.528L66.9097 109.134C67.031 108.778 67.218 108.456 67.4707 108.167C67.7155 107.889 68.0233 107.659 68.3942 107.477C68.765 107.294 69.1816 107.172 69.6441 107.109ZM63.1771 117.898L63.2285 109.708C63.2307 109.363 63.1715 109.125 63.051 108.993C62.9305 108.862 62.7303 108.795 62.4503 108.793C62.2823 108.792 62.1422 108.801 62.0301 108.819C61.9086 108.846 61.759 108.892 61.5812 108.956L61.7563 107.837C61.9154 107.763 62.0977 107.708 62.3033 107.672C62.5089 107.627 62.7144 107.605 62.9197 107.606C63.545 107.61 64.006 107.772 64.3027 108.091C64.59 108.419 64.7315 108.92 64.7273 109.592L64.6751 117.907L63.1771 117.898ZM55.6599 111.416C55.5913 111.878 55.6677 112.253 55.8891 112.54C56.1 112.836 56.4269 113.017 56.8701 113.083C57.2855 113.144 57.6553 113.1 57.9796 112.95C58.3038 112.8 58.5674 112.519 58.7704 112.105L59.9385 112.817C59.6794 113.354 59.2705 113.756 58.712 114.022C58.1442 114.286 57.4542 114.358 56.6417 114.238C56.0878 114.155 55.6123 113.99 55.2151 113.742C54.8165 113.504 54.5239 113.187 54.3374 112.791C54.1417 112.394 54.0857 111.914 54.1694 111.351L54.6285 108.263C54.6793 107.921 54.5339 107.725 54.1923 107.674C54.0261 107.649 53.8611 107.648 53.6973 107.671L53.9327 106.659C54.1602 106.589 54.4354 106.578 54.7586 106.626C55.054 106.67 55.3142 106.76 55.5391 106.898C55.7534 107.043 55.914 107.232 56.0209 107.465C56.1173 107.705 56.1414 107.987 56.0934 108.31L56.0789 108.407L55.7722 108.376C55.9088 108.028 56.1242 107.754 56.4184 107.552C56.7112 107.36 57.0373 107.229 57.3968 107.16C57.7548 107.1 58.1092 107.096 58.46 107.148C58.8939 107.212 59.276 107.34 59.6062 107.531C59.9272 107.72 60.1687 107.968 60.3306 108.275C60.4819 108.59 60.5267 108.955 60.465 109.371C60.3881 109.888 60.1588 110.288 59.777 110.571C59.386 110.852 58.8724 111.007 58.236 111.035L55.4713 111.162L55.6395 110.125L57.6518 110.014C58.0505 109.998 58.3571 109.935 58.5715 109.825C58.786 109.716 58.9131 109.527 58.9529 109.259C58.9913 109.001 58.9253 108.779 58.7548 108.593C58.5736 108.415 58.3169 108.301 57.9845 108.252C57.7537 108.218 57.528 108.212 57.3075 108.236C57.0777 108.259 56.8662 108.317 56.6729 108.411C56.4783 108.514 56.3204 108.656 56.1993 108.836C56.0675 109.024 55.9811 109.256 55.9399 109.533L55.6599 111.416ZM49.2043 112.471L48.2964 109L48.0447 108.87L46.6249 104.205L48.3088 104.776L49.2692 108.354L49.5383 108.563L50.9147 113.051L49.2043 112.471ZM44.4177 110.848L48.2209 108.176L48.5081 108.288L51.6767 105.918L53.2943 106.466L49.1893 109.288L48.9198 109.167L46.0486 111.401L44.4177 110.848ZM40.9738 110.585C41.2668 110.729 41.4578 110.912 41.5468 111.132C41.6233 111.357 41.5956 111.604 41.4636 111.872C41.3317 112.14 41.1553 112.308 40.9345 112.376C40.7053 112.44 40.4442 112.4 40.1511 112.255C39.8664 112.115 39.6838 111.937 39.6032 111.72C39.5142 111.499 39.5357 111.255 39.6676 110.987C39.7996 110.719 39.9822 110.549 40.2155 110.477C40.4363 110.409 40.6891 110.445 40.9738 110.585ZM40.8277 109.202L43.9205 102.922L45.2643 103.584L42.1716 109.864L40.8277 109.202ZM41.9042 101.743L37.9384 107.511L36.8424 106.757L37.7928 105.202L37.8432 105.475C37.5082 105.731 37.1666 105.899 36.8186 105.976C36.4576 106.057 36.1043 106.052 35.7587 105.961C35.4054 105.866 35.0711 105.709 34.7557 105.493C34.3481 105.212 34.0383 104.88 33.8263 104.497C33.6014 104.116 33.5012 103.701 33.5257 103.254C33.5502 102.806 33.729 102.34 34.0622 101.856L36.632 98.1178L37.8664 98.9665L35.5583 102.324C35.167 102.893 35.0166 103.367 35.1069 103.746C35.1843 104.128 35.3999 104.44 35.7537 104.684C36.0075 104.858 36.2959 104.966 36.6189 105.007C36.9366 105.055 37.2662 105.004 37.6075 104.854C37.9411 104.698 38.2586 104.401 38.56 103.963L40.6698 100.894L41.9042 101.743ZM24.5639 98.303L25.2278 97.3036C25.2475 97.3234 25.2673 97.3432 25.2871 97.363C25.3003 97.3894 25.3168 97.4126 25.3366 97.4324C25.6532 97.7493 25.9632 97.9211 26.2668 97.9477C26.5638 97.9809 26.841 97.8689 27.0986 97.6117L27.3753 98.3642C27.1111 98.628 26.8206 98.806 26.5038 98.8982C26.1803 98.997 25.857 99.0034 25.5336 98.9174C25.2037 98.8248 24.9068 98.6464 24.643 98.3823C24.6298 98.3691 24.6166 98.3559 24.6034 98.3427C24.5902 98.3294 24.5771 98.3162 24.5639 98.303ZM31.3473 94.6544C30.8461 94.1525 30.5692 93.6508 30.5167 93.1492C30.4577 92.6542 30.6229 92.2121 31.0126 91.823C31.356 91.48 31.7587 91.2955 32.2206 91.2694C32.6892 91.2367 33.1775 91.3426 33.6856 91.5871C34.187 91.825 34.6784 92.185 35.1599 92.667C35.9711 93.4793 36.4459 94.2056 36.584 94.8458C36.7222 95.4861 36.6031 95.9942 36.2267 96.3701C35.9625 96.634 35.6391 96.7723 35.2563 96.7853C34.8669 96.7917 34.4348 96.5835 33.9598 96.1608L34.1777 96.062C34.3953 96.3987 34.5139 96.7287 34.5335 97.0521C34.5398 97.3755 34.4011 97.679 34.1171 97.9626C33.8331 98.2462 33.4833 98.378 33.0675 98.3579C32.6517 98.3379 32.2295 98.1462 31.8007 97.783L31.5142 96.9611L31.6329 97.08C31.9627 97.3574 32.2464 97.5028 32.484 97.5161C32.7215 97.5295 32.9097 97.4669 33.0483 97.3284C33.2134 97.1635 33.2763 96.982 33.2368 96.784C33.1907 96.5794 33.0556 96.3648 32.8313 96.1403L31.3473 94.6544ZM34.3674 93.4585C34.0047 93.0953 33.6716 92.8344 33.3681 92.6758C33.0646 92.504 32.8007 92.4181 32.5763 92.4179C32.3519 92.4046 32.1737 92.4639 32.0416 92.5958C31.8897 92.7475 31.8302 92.9322 31.8631 93.15C31.8893 93.3612 32.0608 93.6253 32.3773 93.9423L33.9701 95.5371C34.1548 95.7221 34.356 95.8311 34.5738 95.8642C34.7982 95.8908 34.9929 95.8216 35.158 95.6567C35.3759 95.439 35.4157 95.1355 35.2774 94.746C35.139 94.3566 34.8357 93.9274 34.3674 93.4585ZM28.0178 99.8792C27.5825 99.4434 27.2759 98.9977 27.098 98.5422C26.9135 98.0801 26.861 97.6379 26.9404 97.2156C27.0133 96.7867 27.2181 96.404 27.5549 96.0676C27.8917 95.7313 28.2746 95.5269 28.7037 95.4546C29.1261 95.3757 29.5682 95.4288 30.0301 95.6138C30.4854 95.7923 30.9306 96.0995 31.3659 96.5353C32.0519 97.2221 32.4276 97.9021 32.4932 98.5754C32.5456 99.2486 32.3208 99.8358 31.8189 100.337C31.4821 100.673 31.0992 100.878 30.6702 100.95C30.2411 101.022 29.799 100.969 29.3437 100.791C28.8819 100.606 28.4399 100.302 28.0178 99.8792ZM28.7607 99.1373C29.0641 99.441 29.4039 99.6095 29.78 99.6428C30.143 99.676 30.4665 99.5508 30.7504 99.2672C31.0344 98.9836 31.1633 98.657 31.1371 98.2874C31.1044 97.9112 30.9363 97.5712 30.6329 97.2674C30.3229 96.9571 29.9831 96.7885 29.6136 96.7619C29.2374 96.7287 28.9074 96.8539 28.6234 97.1375C28.3394 97.4211 28.2171 97.7477 28.2565 98.1173C28.2827 98.4869 28.4507 98.8269 28.7607 99.1373ZM26.9967 87.3208L18.8579 91.6954L15.6896 85.801L16.8241 85.1912L19.2832 89.7662L21.6262 88.5068L19.704 84.9307L20.8138 84.3341L22.736 87.9102L25.153 86.6111L22.6011 81.8635L23.7356 81.2537L26.9967 87.3208ZM23.1023 79.5913L16.404 81.6245L16.0177 80.3518L17.7308 79.7294L17.6002 79.9739C17.1782 79.9654 16.8069 79.883 16.4864 79.7267C16.1542 79.5642 15.8812 79.3398 15.6676 79.0535C15.4511 78.7583 15.2874 78.4276 15.1762 78.0615C15.0326 77.5881 14.9976 77.1354 15.0713 76.7034C15.1333 76.2652 15.3135 75.8788 15.6119 75.5444C15.9103 75.21 16.3409 74.9574 16.9035 74.7866L21.244 73.4691L21.6791 74.9026L17.7807 76.0858C17.1198 76.2864 16.7063 76.5631 16.5403 76.9159C16.3626 77.2624 16.3361 77.6411 16.4608 78.052C16.5503 78.3467 16.7085 78.6108 16.9354 78.8443C17.1534 79.0805 17.4427 79.2463 17.8033 79.3416C18.1612 79.4281 18.5946 79.394 19.1037 79.2395L22.6672 78.1579L23.1023 79.5913ZM13.3836 67.6324L13.2105 66.074L20.4753 68.07L20.6562 69.698L14.0082 73.2538L13.8273 71.6258L19.271 69.0208L13.3836 67.6324ZM12.0073 63.1654C12.0028 63.492 11.92 63.7429 11.7589 63.918C11.5886 64.0837 11.3541 64.1644 11.0555 64.1603C10.7568 64.1562 10.5294 64.069 10.373 63.8989C10.2168 63.7193 10.141 63.4663 10.1455 63.1396C10.1499 62.8223 10.2326 62.5808 10.3936 62.415C10.5547 62.2399 10.7845 62.1544 11.0832 62.1585C11.3818 62.1626 11.6139 62.2545 11.7794 62.4342C11.9357 62.6043 12.0117 62.8481 12.0073 63.1654ZM13.1935 62.4397L20.1928 62.5365L20.1721 64.0343L13.1728 63.9376L13.1935 62.4397ZM20.352 60.2033L13.4051 59.3428L13.5617 58.0785L14.8293 58.0944C14.3984 57.8529 14.0896 57.5372 13.9027 57.1473C13.7078 56.747 13.6436 56.2782 13.7102 55.741C13.7274 55.602 13.7585 55.4648 13.8035 55.3293C13.8392 55.1927 13.886 55.0809 13.9438 54.994L15.224 55.3642C15.1743 55.4615 15.1322 55.5739 15.0976 55.7012C15.0549 55.8182 15.0203 55.9832 14.9939 56.1962C14.9584 56.4834 15.0021 56.7756 15.1252 57.073C15.2389 57.3693 15.4372 57.6289 15.7199 57.8521C16.0038 58.0659 16.3819 58.2021 16.8543 58.2606L20.5361 58.7167L20.352 60.2033ZM15.2175 49.7564C15.4079 49.1022 15.715 48.5647 16.1388 48.1437C16.5627 47.7227 17.0794 47.4502 17.689 47.3263C18.2922 47.1908 18.9568 47.2287 19.6827 47.4399C20.4086 47.6512 20.9941 47.9771 21.4394 48.4178C21.8783 48.8468 22.1637 49.3527 22.2954 49.9354C22.4272 50.5181 22.3978 51.1366 22.2075 51.7908C22.0171 52.4449 21.7099 52.9825 21.2861 53.4035C20.8622 53.8245 20.3487 54.1028 19.7454 54.2383C19.1333 54.3712 18.4642 54.332 17.7383 54.1207C17.0124 53.9095 16.4314 53.5848 15.995 53.1468C15.5498 52.7061 15.2613 52.1945 15.1295 51.6118C14.9978 51.0291 15.0271 50.4106 15.2175 49.7564ZM16.3466 50.0851C16.2292 50.4883 16.2229 50.8607 16.3277 51.2023C16.426 51.5322 16.6278 51.8243 16.933 52.0783C17.2381 52.3324 17.6461 52.5337 18.1569 52.6824C18.6588 52.8285 19.1111 52.8775 19.5139 52.8294C19.9077 52.7788 20.2392 52.642 20.5082 52.4189C20.7709 52.1843 20.9609 51.8654 21.0783 51.4621C21.1957 51.0589 21.2052 50.6922 21.1068 50.3623C20.9994 50.0297 20.7932 49.7364 20.488 49.4823C20.1739 49.2256 19.7659 49.0243 19.2641 48.8782C18.7533 48.7296 18.3009 48.6806 17.9071 48.7312C17.5133 48.7818 17.1863 48.92 16.9262 49.1456C16.6572 49.3686 16.464 49.6818 16.3466 50.0851ZM23.7763 46.7067L17.563 43.4826L18.1756 42.3021L19.8362 43.0534L19.5719 43.1371C19.2759 42.8362 19.0678 42.5179 18.9476 42.1822C18.8234 41.8338 18.7848 41.4826 18.8319 41.1285C18.8833 40.7661 18.9971 40.415 19.1733 40.0754C19.4012 39.6363 19.6924 39.2879 20.0469 39.0303C20.3974 38.76 20.7962 38.6095 21.2434 38.5786C21.6905 38.5477 22.175 38.6677 22.6969 38.9386L26.7232 41.0278L26.0332 42.3574L22.4171 40.481C21.804 40.1629 21.3149 40.072 20.9497 40.2085C20.5804 40.3324 20.297 40.5848 20.0992 40.9659C19.9574 41.2393 19.8861 41.5388 19.8853 41.8644C19.8763 42.1857 19.9675 42.5064 20.1589 42.8265C20.3546 43.1384 20.6886 43.4168 21.1608 43.6619L24.4663 45.3771L23.7763 46.7067ZM27.9994 39.1909L22.7739 34.5332L23.6589 33.5404L24.5833 34.2706C24.4104 33.7913 24.3773 33.3305 24.4841 32.8881C24.5971 32.4387 24.8057 32.0433 25.11 31.7019C25.4454 31.3256 25.8399 31.0584 26.2935 30.9001C26.7464 30.7287 27.215 30.715 27.6992 30.859C27.5687 30.5426 27.5137 30.2185 27.5343 29.8868C27.5549 29.5551 27.6359 29.2398 27.7774 28.9408C27.9119 28.6356 28.0816 28.368 28.2866 28.1381C28.5847 27.8037 28.9338 27.5522 29.334 27.3838C29.7342 27.2154 30.1578 27.1679 30.6049 27.2414C31.0521 27.3149 31.4986 27.5503 31.9445 27.9478L35.3306 30.966L34.3339 32.0842L31.1254 29.2244C30.7004 28.8456 30.3038 28.6733 29.9356 28.7077C29.5674 28.7421 29.2435 28.916 28.9641 29.2296C28.7467 29.4734 28.6041 29.7527 28.5362 30.0673C28.4746 30.3749 28.5063 30.697 28.6314 31.0335C28.7496 31.3639 28.9793 31.6812 29.3207 31.9855L32.1634 34.5193L31.1666 35.6376L27.9582 32.7777C27.5332 32.3989 27.1366 32.2267 26.7684 32.2611C26.4001 32.2954 26.0763 32.4694 25.7968 32.7829C25.6105 32.9919 25.48 33.2506 25.4051 33.559C25.3303 33.8674 25.3492 34.1968 25.4619 34.5473C25.5746 34.8978 25.826 35.247 26.2162 35.5947L28.9962 38.0726L27.9994 39.1909ZM39.6182 27.9018C39.0399 28.2962 38.4495 28.5237 37.8469 28.5844C37.2444 28.6451 36.6673 28.536 36.1155 28.257C35.5662 27.965 35.0786 27.5068 34.6527 26.8822C34.2268 26.2576 33.9808 25.6401 33.9149 25.0299C33.8514 24.4067 33.9541 23.8283 34.2229 23.2948C34.4917 22.7613 34.8999 22.3078 35.4473 21.9345C36.0102 21.5506 36.5672 21.3403 37.1182 21.3035C37.6692 21.2666 38.1856 21.3777 38.6672 21.6367C39.1488 21.8957 39.5632 22.2797 39.9102 22.7886C40.0049 22.9274 40.0904 23.0611 40.1668 23.1897C40.2433 23.3184 40.3053 23.4342 40.353 23.5373L35.7032 26.7081L35.0564 25.7596L39.1626 22.9595L38.6757 23.5626C38.3182 23.0383 37.9137 22.7267 37.4622 22.6279C37.0054 22.5213 36.5496 22.6232 36.0946 22.9334C35.7631 23.1596 35.5265 23.4339 35.3849 23.7563C35.2433 24.0788 35.2121 24.439 35.2914 24.8368C35.3654 25.227 35.5522 25.6418 35.852 26.0813C36.1464 26.5131 36.4656 26.8321 36.8095 27.0382C37.1533 27.2443 37.5051 27.3376 37.8647 27.3183C38.2244 27.299 38.5777 27.1711 38.9247 26.9344C39.3102 26.6715 39.5726 26.3853 39.7117 26.0758C39.8508 25.7663 39.9004 25.4331 39.8604 25.0763L41.1591 24.8685C41.2096 25.2407 41.1863 25.6125 41.0893 25.9837C40.9946 26.3419 40.8222 26.6854 40.572 27.0142C40.3217 27.3431 40.0038 27.6389 39.6182 27.9018ZM43.7784 25.1607L40.9962 18.7374L42.2166 18.2088L43.0299 19.8399L42.7722 19.7379C42.7326 19.3177 42.7721 18.9395 42.8909 18.6032C43.0146 18.2547 43.2065 17.958 43.4666 17.7131C43.7352 17.4645 44.0451 17.2642 44.3963 17.1121C44.8502 16.9155 45.296 16.8292 45.7336 16.8532C46.176 16.865 46.5804 17.0001 46.9466 17.2585C47.3128 17.5169 47.6127 17.9159 47.8464 18.4554L49.6493 22.6177L48.2748 23.2131L46.6555 19.4748C46.381 18.841 46.059 18.4617 45.6897 18.3369C45.3251 18.1998 44.9459 18.2166 44.5519 18.3873C44.2693 18.5097 44.0249 18.6969 43.8188 18.9489C43.6089 19.1924 43.4771 19.4987 43.4234 19.8678C43.3783 20.2332 43.4614 20.6599 43.6729 21.1481L45.153 24.5653L43.7784 25.1607ZM51.5293 12.6544L53.1897 19.4114C53.2721 19.7468 53.4183 19.9703 53.6284 20.0821C53.8475 20.1916 54.1067 20.2096 54.4058 20.1361C54.6505 20.076 54.8546 19.9874 55.018 19.8704C55.1793 19.7443 55.3202 19.5943 55.4409 19.4205L56.0278 20.4007C55.8638 20.6332 55.6411 20.8417 55.3597 21.0262C55.0851 21.1994 54.762 21.3317 54.3904 21.423C54.0006 21.5188 53.627 21.5433 53.2696 21.4966C52.9121 21.4499 52.6082 21.3083 52.3579 21.0719C52.1053 20.8264 51.9177 20.4736 51.7951 20.0136L50.1748 13.4197L51.5293 12.6544ZM54.3589 14.0783L54.6395 15.2204L49.5411 16.4731L49.2605 15.3311L54.3589 14.0783ZM59.0231 17.6156C58.4755 17.6737 58.0076 17.5544 57.6195 17.2577C57.2396 16.9508 57.0216 16.5328 56.9655 16.0038C56.9084 15.4655 57.0343 15.0157 57.3432 14.6544C57.6604 14.2828 58.0928 14.068 58.6404 14.0099C59.1973 13.9508 59.6652 14.0701 60.044 14.3677C60.4219 14.6561 60.6394 15.0695 60.6966 15.6078C60.7527 16.1368 60.6273 16.5913 60.3203 16.9711C60.0124 17.3417 59.58 17.5565 59.0231 17.6156Z" fill="#F36249"/>
<path d="M55.2 71.875L53.1875 69.8625L66.9875 56.0625H54.625V53.1875H71.875V70.4375H69V58.075L55.2 71.875Z" fill="#F36249"/>
</svg>
