<svg width="25" height="25" viewBox="0 0 25 25" fill="none" xmlns="http://www.w3.org/2000/svg">
<g clip-path="url(#clip0_2545_9065)">
<path d="M11.4972 12.5283L11.4998 15.1064L6.34874 20.2679L3.77062 20.2705L3.76801 17.6924L8.91903 12.5309L11.4972 12.5283ZM20.268 17.6757L20.2706 20.2538L17.6925 20.2564L12.531 15.1054L12.5284 12.5273L15.1065 12.5246L20.268 17.6757ZM11.4935 8.91892L11.4961 11.497L8.91799 11.4997L3.75652 6.34863L3.75391 3.77051L6.33203 3.7679L11.4935 8.91892ZM20.2565 6.33192L15.1055 11.4934L12.5274 11.496L12.5247 8.91788L17.6758 3.75641L20.2539 3.7538L20.2565 6.33192Z" fill="white"/>
<path d="M11.2622 12.0129L9.38906 13.8898L1.88907 13.8974L0.0121778 12.0243L1.88528 10.1474L9.38526 10.1398L11.2622 12.0129ZM13.8974 22.1353L12.0243 24.0122L10.1474 22.1391L10.1398 14.6391L12.0129 12.7622L13.8898 14.6353L13.8974 22.1353ZM13.8845 9.38529L12.0114 11.2622L10.1345 9.38909L10.1269 1.8891L12 0.012207L13.8769 1.8853L13.8845 9.38529ZM22.139 13.8769L14.639 13.8845L12.7622 12.0114L14.6352 10.1345L22.1352 10.1269L24.0121 12L22.139 13.8769Z" fill="white"/>
</g>
<defs>
<clipPath id="clip0_2545_9065">
<rect width="24" height="24" fill="white" transform="translate(0 0.0244141) rotate(-0.0580262)"/>
</clipPath>
</defs>
</svg>
